<svg width="117" height="32" viewBox="0 0 117 32" fill="none" xmlns="http://www.w3.org/2000/svg">
<mask id="mask0_179_383" style="mask-type:luminance" maskUnits="userSpaceOnUse" x="1" y="0" width="33" height="31">
<path d="M1.40234 0.5L33.1252 0.776841L32.8648 30.6167L1.14194 30.3399L1.40234 0.5Z" fill="white"/>
</mask>
<g mask="url(#mask0_179_383)">
<mask id="mask1_179_383" style="mask-type:luminance" maskUnits="userSpaceOnUse" x="1" y="0" width="33" height="31">
<path d="M7.96526 0.572967L26.5467 0.735124C30.1757 0.766794 33.0933 3.55957 33.0635 6.97317L32.9109 24.4516C32.8811 27.8653 29.9153 30.6067 26.2863 30.575L7.70485 30.4129C4.07584 30.3812 1.15827 27.5884 1.18806 24.1748L1.34059 6.69633C1.37038 3.28273 4.33624 0.541297 7.96526 0.572967Z" fill="white"/>
</mask>
<g mask="url(#mask1_179_383)">
<path d="M1.39453 0.515625L33.1174 0.792466L32.857 30.6324L1.13412 30.3555L1.39453 0.515625Z" fill="#5271FF"/>
</g>
</g>
<path d="M20.306 24.336C20.2794 24.2781 20.3071 24.2099 20.3686 24.1863C20.4301 24.1613 20.5012 24.1874 20.5278 24.2453C20.5544 24.3033 20.5267 24.3714 20.4652 24.3964C20.4494 24.4029 20.4323 24.4055 20.4166 24.4053C20.3695 24.4049 20.3256 24.3791 20.306 24.336Z" fill="#FFFBF7"/>
<path d="M21.1858 23.9358C21.1535 23.8805 21.1755 23.8109 21.2342 23.7806C21.2929 23.7503 21.3669 23.771 21.3992 23.8277C21.4301 23.8829 21.4095 23.9525 21.3508 23.9828C21.3322 23.9921 21.3107 23.9959 21.2908 23.9957C21.248 23.9953 21.2069 23.9735 21.1858 23.9358Z" fill="#FFFBF7"/>
<path d="M22.0357 23.4796C21.9977 23.427 22.0126 23.356 22.0685 23.3216C22.1244 23.2859 22.1999 23.3 22.2365 23.3526C22.2745 23.4052 22.2596 23.4762 22.2037 23.5119C22.1822 23.5251 22.1579 23.5303 22.1351 23.5301C22.0966 23.5298 22.0583 23.512 22.0357 23.4796Z" fill="#FFFBF7"/>
<path d="M22.8142 22.953C22.7733 22.903 22.7811 22.832 22.8327 22.7922C22.8858 22.7524 22.9614 22.7598 23.0037 22.8098C23.0461 22.8584 23.0383 22.9308 22.9852 22.9706C22.9622 22.9878 22.9351 22.9956 22.908 22.9954C22.8737 22.9951 22.8382 22.98 22.8142 22.953Z" fill="#FFFBF7"/>
<path d="M23.557 22.3553C23.5104 22.3093 23.511 22.2368 23.5584 22.193C23.6073 22.1492 23.6843 22.1512 23.731 22.1958C23.7776 22.2419 23.777 22.3143 23.7281 22.3581C23.7051 22.3794 23.6737 22.3898 23.6423 22.3896C23.6109 22.3893 23.5796 22.3783 23.557 22.3553Z" fill="#FFFBF7"/>
<path d="M24.232 21.6899C24.1824 21.6492 24.1759 21.5767 24.2191 21.5288C24.2638 21.4809 24.3408 21.4762 24.3904 21.5169C24.4413 21.5576 24.4478 21.6301 24.4032 21.678C24.3787 21.7046 24.3458 21.7177 24.3102 21.7174C24.2831 21.7171 24.2546 21.7088 24.232 21.6899Z" fill="#FFFBF7"/>
<path d="M24.8276 20.9617C24.7723 20.925 24.7601 20.8538 24.7991 20.8018C24.838 20.7512 24.9137 20.7398 24.9675 20.7765C25.0228 20.8132 25.035 20.8844 24.9961 20.935C24.9716 20.967 24.9344 20.9841 24.8959 20.9837C24.8716 20.9835 24.8474 20.9766 24.8276 20.9617Z" fill="#FFFBF7"/>
<path d="M25.3681 20.2217C25.3099 20.1903 25.2906 20.119 25.3238 20.0657C25.3571 20.011 25.4314 19.9928 25.4896 20.0242C25.5478 20.0569 25.5671 20.1268 25.5339 20.1815C25.5107 20.2175 25.4692 20.2386 25.4279 20.2383C25.4079 20.2381 25.3865 20.2326 25.3681 20.2217Z" fill="#FFFBF7"/>
<path d="M25.8265 19.4072C25.7655 19.3799 25.7404 19.3113 25.768 19.2538C25.797 19.1977 25.8685 19.1729 25.9296 19.1989C25.9907 19.2263 26.0157 19.2949 25.9881 19.3523C25.9678 19.3937 25.9234 19.4175 25.8778 19.4171C25.8607 19.4169 25.8436 19.4141 25.8265 19.4072Z" fill="#FFFBF7"/>
<path d="M26.2005 18.5861C26.1366 18.5654 26.1043 18.4994 26.1277 18.4392C26.1496 18.3804 26.2197 18.3502 26.2823 18.3708C26.3448 18.3928 26.3785 18.4589 26.3551 18.5177C26.3376 18.5645 26.2903 18.5936 26.2404 18.5931C26.2276 18.593 26.2133 18.5915 26.2005 18.5861Z" fill="#FFFBF7"/>
<path d="M26.5265 17.711C26.4625 17.6944 26.4231 17.6323 26.4407 17.5708C26.4569 17.5106 26.5228 17.4736 26.5883 17.4889C26.6523 17.5056 26.6917 17.5676 26.6755 17.6292C26.6608 17.6813 26.6106 17.7144 26.5564 17.714C26.5464 17.7139 26.5364 17.7138 26.5265 17.711Z" fill="#FFFBF7"/>
<path d="M26.7218 16.8177C26.6548 16.8077 26.6111 16.7497 26.6217 16.6867C26.6322 16.6238 26.6953 16.5814 26.7608 16.5927C26.8277 16.6027 26.8728 16.6621 26.8609 16.7237C26.8518 16.7799 26.8002 16.8197 26.7403 16.8192C26.7346 16.8192 26.7289 16.8191 26.7218 16.8177Z" fill="#FFFBF7"/>
<path d="M26.8453 15.9091C26.7783 15.9045 26.7289 15.8491 26.7337 15.7861C26.7385 15.7231 26.796 15.6753 26.863 15.6812C26.9299 15.6858 26.9808 15.7399 26.976 15.8029C26.9712 15.8632 26.9166 15.9097 26.8538 15.9092C26.851 15.9091 26.8481 15.9091 26.8453 15.9091Z" fill="#FFFBF7"/>
<path d="M26.7686 14.8941C26.7663 14.831 26.8195 14.7791 26.8866 14.7784C26.9536 14.7776 27.0088 14.8277 27.0111 14.8908C27.0119 14.9539 26.9587 15.0057 26.8917 15.0065L26.8874 15.0064C26.8218 15.0058 26.7681 14.9571 26.7686 14.8941Z" fill="#FFFBF7"/>
<path d="M26.6952 13.9757C26.6872 13.9126 26.7361 13.8567 26.8018 13.8492C26.8689 13.8431 26.9298 13.8893 26.9364 13.951C26.943 14.0141 26.8954 14.0714 26.8283 14.0775C26.824 14.0775 26.8183 14.0787 26.8141 14.0787C26.7527 14.0782 26.7018 14.0335 26.6952 13.9757Z" fill="#FFFBF7"/>
<path d="M26.564 13.0873C26.5503 13.0255 26.5936 12.9641 26.6593 12.9526C26.725 12.9398 26.7888 12.9806 26.8026 13.0424C26.8149 13.1042 26.773 13.1642 26.7073 13.1771C26.6987 13.1783 26.6901 13.1796 26.6816 13.1795C26.626 13.179 26.575 13.141 26.564 13.0873Z" fill="#FFFBF7"/>
<path d="M26.3207 12.206C26.3012 12.1455 26.3374 12.0814 26.4018 12.0646C26.4661 12.0463 26.5342 12.0805 26.5522 12.141C26.5717 12.2015 26.5355 12.2656 26.4711 12.2838C26.4597 12.2864 26.4469 12.2876 26.4355 12.2875C26.3841 12.2871 26.3359 12.2558 26.3207 12.206Z" fill="#FFFBF7"/>
<path d="M26.0117 11.349C25.9866 11.2911 26.0171 11.2243 26.0786 11.2007C26.1416 11.1771 26.2126 11.2059 26.2378 11.2651C26.2615 11.323 26.2324 11.3898 26.1695 11.4134C26.1552 11.4187 26.1394 11.4212 26.1238 11.4211C26.0753 11.4206 26.0313 11.3948 26.0117 11.349Z" fill="#FFFBF7"/>
<path d="M25.6259 10.5339C25.595 10.4786 25.6184 10.4091 25.6786 10.3801C25.7373 10.3525 25.8112 10.3746 25.8407 10.4312C25.8716 10.4864 25.8482 10.556 25.788 10.5849C25.7708 10.5928 25.7523 10.5967 25.7323 10.5965C25.6881 10.5961 25.6469 10.5743 25.6259 10.5339Z" fill="#FFFBF7"/>
<path d="M25.1509 9.73556C25.1143 9.68159 25.132 9.61065 25.1894 9.57762C25.2453 9.54324 25.3207 9.55999 25.3559 9.61261C25.3925 9.66658 25.3748 9.73751 25.3189 9.77056C25.2988 9.78246 25.2759 9.78896 25.2531 9.78876C25.2132 9.78842 25.1734 9.76929 25.1509 9.73556Z" fill="#FFFBF7"/>
<path d="M24.5948 9.00163C24.5539 8.95165 24.5631 8.8793 24.6162 8.84086C24.6707 8.80244 24.7462 8.81249 24.7871 8.86247C24.828 8.91246 24.8174 8.9848 24.7643 9.02323C24.7414 9.03913 24.7156 9.04695 24.69 9.04673C24.6529 9.0464 24.6174 9.03 24.5934 9.00162L24.5948 9.00163Z" fill="#FFFBF7"/>
<path d="M23.984 8.30643C23.9387 8.25909 23.9422 8.18669 23.9911 8.1442C24.0414 8.10171 24.1169 8.10505 24.1636 8.15107C24.2088 8.19707 24.2053 8.26947 24.1564 8.3133C24.132 8.33321 24.102 8.34368 24.072 8.34342C24.0407 8.34314 24.008 8.33079 23.984 8.30643Z" fill="#FFFBF7"/>
<path d="M23.2937 7.68086C23.2427 7.63883 23.2391 7.56637 23.2851 7.51982C23.3298 7.47193 23.4068 7.46857 23.4563 7.51193C23.5059 7.55394 23.5095 7.6264 23.4649 7.67296C23.4404 7.69823 23.4075 7.71136 23.3733 7.71106C23.3448 7.71081 23.3163 7.70117 23.2923 7.68084L23.2937 7.68086Z" fill="#FFFBF7"/>
<path d="M22.5555 7.10511C22.5016 7.06708 22.4909 6.99456 22.5312 6.94394C22.5716 6.89466 22.6487 6.8846 22.7025 6.92263C22.755 6.96065 22.7658 7.03183 22.7254 7.08245C22.7009 7.11174 22.6651 7.12752 22.628 7.1272C22.6024 7.12698 22.5768 7.12005 22.5555 7.10511Z" fill="#FFFBF7"/>
<path d="M21.7754 6.57672C21.7187 6.54269 21.7007 6.47279 21.7354 6.4181C21.7716 6.36476 21.8459 6.34797 21.9026 6.382C21.9593 6.41468 21.9773 6.48593 21.9426 6.53928C21.9195 6.57395 21.8794 6.59372 21.838 6.59336C21.8166 6.59317 21.7953 6.58762 21.7754 6.57672Z" fill="#FFFBF7"/>
<path d="M20.9094 6.13556C20.8497 6.10688 20.8261 6.03826 20.8551 5.98218C20.8855 5.92611 20.9585 5.9026 21.0181 5.93129C21.0778 5.95998 21.1028 6.02727 21.0724 6.08468C21.0507 6.12472 21.0077 6.14849 20.9635 6.14811C20.9449 6.14795 20.9264 6.14376 20.9094 6.13556Z" fill="#FFFBF7"/>
<path d="M20.041 5.7568C19.9784 5.73479 19.9476 5.66746 19.9724 5.60866C19.9972 5.54985 20.0673 5.52096 20.1298 5.54431C20.1924 5.56765 20.2231 5.63365 20.1984 5.69245C20.1795 5.73789 20.1336 5.76565 20.0837 5.76522C20.0694 5.76509 20.0552 5.76229 20.041 5.7568Z" fill="#FFFBF7"/>
<path d="M19.1259 5.48303C19.0619 5.46503 19.0239 5.40166 19.043 5.34147C19.0621 5.27994 19.1294 5.24565 19.1934 5.26364C19.2574 5.2803 19.2954 5.34367 19.2763 5.40521C19.2602 5.45469 19.2114 5.4878 19.1587 5.48734C19.1472 5.48724 19.1373 5.48581 19.1259 5.48303Z" fill="#FFFBF7"/>
<path d="M14.2137 4.9044C13.5467 4.89858 12.9755 5.29331 12.768 5.84844C12.4388 5.68701 12.063 5.59446 11.6648 5.59099C10.3755 5.57974 9.31515 6.50849 9.23728 7.68965C8.01456 7.78957 7.0518 8.73783 7.04165 9.90092C7.04082 9.99685 7.04574 10.0915 7.05786 10.1849C6.03221 10.4344 5.27144 11.2978 5.26243 12.3303C5.25838 12.794 5.40698 13.2256 5.66259 13.585L5.76898 13.5832C4.5864 14.0246 3.74619 15.0965 3.7352 16.3555C3.72282 17.7744 4.76746 18.9734 6.18476 19.3082C5.86668 19.6838 5.67423 20.1578 5.66973 20.6734C5.65893 21.9111 6.72965 22.9224 8.06208 22.934C8.45161 22.9374 8.81888 22.8553 9.14504 22.7076C9.60909 23.23 10.3105 23.5665 11.0968 23.5734C11.2577 23.5748 11.4145 23.5629 11.5671 23.5375C11.8508 24.2995 12.6252 24.8485 13.5422 24.8565C13.775 24.8586 14.0068 24.8259 14.2273 24.7572C14.3931 24.7054 14.6029 24.5393 14.7671 24.6714C14.847 24.7347 14.8908 24.8297 14.9548 24.9075C15.1183 25.1088 15.4037 25.1885 15.6736 25.2282C16.0253 25.2819 16.3932 25.2878 16.7334 25.1855C17.0721 25.0845 17.3816 24.8607 17.5151 24.5541C17.565 24.4386 17.5891 24.3149 17.6461 24.2022C17.8612 23.767 18.4118 23.7612 18.8484 23.6477C19.2331 23.5471 19.6122 23.4279 19.9842 23.2912C20.6721 23.0361 21.3333 22.7167 21.9461 22.329C22.5128 21.9702 23.0368 21.5538 23.5037 21.0848C23.9475 20.6384 24.3385 20.1461 24.6665 19.62C24.9872 19.1045 25.2479 18.5578 25.4454 17.992C25.6415 17.4301 25.7774 16.849 25.8515 16.2621C25.9256 15.6738 25.9395 15.0783 25.8958 14.4877C25.8506 13.8957 25.7465 13.3059 25.5876 12.7316C25.4274 12.1546 25.2095 11.5904 24.9382 11.0511C24.6641 10.5091 24.3365 9.99056 23.957 9.50625C23.5731 9.01791 23.1386 8.5651 22.6563 8.15851C22.164 7.74117 21.6224 7.37403 21.0458 7.06388C20.4692 6.75506 19.8003 6.48008 19.1365 6.28642C18.8769 6.21087 18.6145 6.14463 18.3504 6.08903C18.1252 6.04176 17.9471 6.02555 17.7905 5.84697C17.7008 5.7436 17.6358 5.62444 17.5519 5.51712C17.2548 5.12946 16.7177 4.91293 16.2097 4.97378C16.0227 4.99613 15.8439 5.0532 15.6638 5.10226C15.5226 5.141 15.2889 5.23222 15.1412 5.19496C15.0781 5.17975 15.0168 5.11793 14.9567 5.08676C14.8837 5.04881 14.8049 5.01615 14.7261 4.98881C14.5613 4.93408 14.3876 4.90458 14.2137 4.90307L14.2137 4.9044Z" fill="#5271FF"/>
<path d="M20.2756 15.0906C20.274 15.2797 20.258 15.47 20.2265 15.6575C20.0775 16.5549 19.5811 17.3848 18.8487 17.9753C18.4854 18.2686 18.0684 18.4997 17.6207 18.6554C17.4977 18.6986 16.2223 18.9383 16.2311 18.9008C16.2951 18.5942 16.3605 18.2889 16.4245 17.9837C15.7783 18.0143 15.0723 18.0282 14.5579 17.6576C14.2306 17.4213 13.7761 17.0471 13.6239 16.6863C13.3417 16.0159 13.206 15.3857 13.2723 14.6512C13.3116 14.2277 13.4631 13.8655 13.5964 13.4589C13.7297 13.0523 14.0869 12.8073 14.4513 12.557C14.9807 12.1927 15.5152 11.8835 16.1701 11.8477C16.1841 11.7056 16.1968 11.5649 16.2123 11.4228C16.2263 11.2821 16.1995 11.251 16.3339 11.216C16.4996 11.1732 16.7856 11.2508 16.9522 11.2804C18.8685 11.6191 20.2916 13.2545 20.2756 15.0906Z" fill="white"/>
<path d="M5.76784 13.8526C5.69189 13.852 5.61624 13.8161 5.57038 13.7518C5.28411 13.3502 5.13486 12.8833 5.13908 12.3995C5.1507 11.0681 6.3262 9.99455 7.7609 10.0071C9.1942 10.0196 10.3522 11.1135 10.3406 12.4449C10.3368 12.8805 10.2065 13.3058 9.96409 13.6767C9.89565 13.7817 9.74766 13.8143 9.63428 13.7508C9.5223 13.6872 9.48552 13.5499 9.55395 13.4449C9.75211 13.144 9.85784 12.7954 9.86093 12.4407C9.87041 11.3544 8.92588 10.462 7.75702 10.4518C6.58676 10.4415 5.6282 11.3174 5.61872 12.4037C5.61528 12.7975 5.73574 13.1794 5.9706 13.5075C6.04286 13.6099 6.01352 13.7478 5.90321 13.8147C5.86079 13.8404 5.81426 13.853 5.76925 13.8527L5.76784 13.8526Z" fill="#FFFBF7"/>
<mask id="mask2_179_383" style="mask-type:luminance" maskUnits="userSpaceOnUse" x="3" y="13" width="7" height="7">
<path d="M3.63672 13.043L9.96035 13.0982L9.90043 19.9651L3.57679 19.9099L3.63672 13.043Z" fill="white"/>
</mask>
<g mask="url(#mask2_179_383)">
<path d="M7.04242 19.797C5.13035 19.7803 3.58896 18.3021 3.60468 16.5009C3.61146 15.7244 3.91175 14.9745 4.45017 14.389C4.98424 13.8116 5.71769 13.4263 6.51585 13.3058C6.64864 13.2855 6.77338 13.3711 6.7951 13.4961C6.8154 13.621 6.72597 13.7382 6.59319 13.7572C5.15536 13.974 4.10147 15.1304 4.08947 16.5051C4.07595 18.0542 5.40241 19.3253 7.04641 19.3396C7.92901 19.3473 8.7649 18.9885 9.33938 18.355C9.42578 18.2592 9.57987 18.2485 9.68182 18.3312C9.78378 18.4125 9.79535 18.5575 9.70895 18.6533C9.04089 19.3892 8.06903 19.8059 7.04242 19.797Z" fill="#FFFBF7"/>
</g>
<path d="M7.07227 10.5182C6.95367 10.5172 6.85009 10.433 6.83395 10.3169C6.81642 10.1966 6.80891 10.0751 6.80997 9.95358C6.82213 8.56001 8.01659 7.43612 9.47263 7.44883C10.2128 7.45528 10.9204 7.7604 11.4145 8.28614C11.5051 8.38248 11.4967 8.52846 11.3973 8.61496C11.2965 8.70144 11.1437 8.69328 11.0531 8.5983C10.6496 8.1689 10.0716 7.91952 9.46857 7.91426C8.28116 7.90389 7.30572 8.82086 7.2958 9.95782C7.29493 10.0575 7.3012 10.1572 7.31607 10.2542C7.33354 10.3813 7.24106 10.4992 7.10659 10.5158C7.09513 10.5184 7.0837 10.5183 7.07227 10.5182Z" fill="#FFFBF7"/>
<path d="M8.23837 23.405C6.77752 23.3923 5.59876 22.269 5.61069 20.9016C5.61561 20.3378 5.8283 19.7879 6.20917 19.3519C6.29461 19.2549 6.44815 19.2401 6.55211 19.3201C6.65608 19.4 6.67202 19.5448 6.58658 19.6418C6.27089 20.002 6.1022 20.4385 6.09812 20.9059C6.08838 22.0215 7.05102 22.9379 8.24236 22.9483C9.19428 22.9566 10.0525 22.3681 10.3294 21.5187C10.3678 21.3985 10.5046 21.3301 10.6333 21.3674C10.7634 21.4047 10.8354 21.5312 10.7957 21.6527C10.6322 22.1535 10.2942 22.6019 9.84268 22.9168C9.37676 23.2408 8.82186 23.4101 8.23837 23.405Z" fill="#FFFBF7"/>
<path d="M10.3488 16.724C9.22356 16.7142 8.27414 15.9262 8.14042 14.8913C8.12483 14.7719 8.21726 14.6624 8.34766 14.6481C8.47668 14.6339 8.59372 14.7208 8.60931 14.8402C8.71445 15.6568 9.46435 16.279 10.3527 16.2867C10.9306 16.2918 11.4747 16.0349 11.8097 15.5992C11.8854 15.5011 12.0325 15.478 12.1386 15.5482C12.2448 15.6184 12.2699 15.7558 12.1942 15.8539C11.7694 16.4056 11.0792 16.7304 10.3488 16.724Z" fill="#FFFBF7"/>
<path d="M12.5452 14.1712C12.4269 14.1702 12.327 14.078 12.3171 13.9561C12.2258 12.8773 11.3552 12.0574 10.2897 12.0481C10.1618 12.047 10.0593 11.9395 10.0604 11.8095C10.0616 11.6794 10.1659 11.5751 10.2938 11.5762C10.9239 11.5817 11.5246 11.825 11.9862 12.2622C12.4438 12.6951 12.7258 13.283 12.7788 13.9158C12.79 14.0446 12.695 14.16 12.567 14.1714C12.5602 14.1713 12.5534 14.1713 12.5452 14.1712Z" fill="#FFFBF7"/>
<path d="M12.4752 19.0694C11.8519 19.0639 11.2574 18.8203 10.8017 18.3823C10.35 17.9484 10.073 17.3603 10.0221 16.7287C10.0124 16.5991 10.1061 16.4855 10.2312 16.4756C10.3576 16.4643 10.4683 16.5603 10.4779 16.6899C10.5639 17.7697 11.4247 18.5889 12.4794 18.5981C12.4901 18.5982 12.4995 18.5983 12.5103 18.5984C12.6366 18.5981 12.7391 18.7023 12.7407 18.8319C12.7409 18.9628 12.6392 19.068 12.5129 19.0683C12.5008 19.0682 12.4887 19.0681 12.4753 19.068L12.4752 19.0694Z" fill="#FFFBF7"/>
<path d="M9.2389 7.94051C9.23322 7.94046 9.22754 7.94041 9.22187 7.94036C9.08851 7.92973 8.99009 7.81943 8.99971 7.69251C9.10481 6.38685 10.2636 5.37414 11.6378 5.38613C12.5748 5.39431 13.4436 5.88425 13.9039 6.66384C13.9697 6.77385 13.9287 6.91402 13.8131 6.97651C13.6962 7.039 13.5489 6.99988 13.4831 6.88986C13.1068 6.25288 12.399 5.85352 11.6338 5.84684C10.5123 5.83705 9.56806 6.66383 9.48211 7.72779C9.47253 7.84931 9.36525 7.94161 9.2389 7.94051Z" fill="#FFFBF7"/>
<path d="M7.34516 13.621C7.2604 13.6203 7.17989 13.5619 7.14831 13.466C7.08026 13.2657 7.0472 13.0544 7.04909 12.8378C7.05452 12.2147 7.35746 11.6407 7.84002 11.3383C7.94279 11.2745 8.07207 11.3164 8.1284 11.4322C8.18598 11.5481 8.14855 11.694 8.04578 11.7578C7.69733 11.977 7.47806 12.3915 7.47413 12.8415C7.47277 12.9976 7.49636 13.1512 7.54496 13.295C7.58626 13.4192 7.53145 13.558 7.42134 13.6048C7.39632 13.6158 7.37009 13.6212 7.34392 13.621L7.34516 13.621Z" fill="#FFFBF7"/>
<path d="M7.31348 17.9942C7.2982 17.9941 7.28154 17.9926 7.2663 17.9885C6.48009 17.8264 5.91507 17.1498 5.92178 16.38C5.92257 16.2898 5.93169 16.1996 5.94775 16.1108C5.96965 15.9889 6.09261 15.9064 6.22161 15.9274C6.34922 15.9497 6.43572 16.066 6.4138 16.1892C6.40213 16.2542 6.396 16.3191 6.39543 16.3842C6.39058 16.9403 6.79888 17.4296 7.36462 17.5461C7.49358 17.5724 7.57449 17.6926 7.54702 17.8158C7.52248 17.9217 7.42321 17.9952 7.31348 17.9942Z" fill="#FFFBF7"/>
<path d="M13.6042 20.0403C13.5358 20.0397 13.4676 20.0123 13.4195 19.9595C13.3334 19.8622 13.3461 19.7175 13.4495 19.6365C13.7323 19.4123 13.8963 19.0838 13.8994 18.7364C13.9034 18.2764 13.6332 17.8623 13.1958 17.6586C13.0751 17.6025 13.0264 17.4653 13.0858 17.3518C13.1453 17.2383 13.2911 17.1926 13.4118 17.2487C14.0083 17.5275 14.391 18.113 14.3856 18.7407C14.3814 19.2222 14.1535 19.6762 13.7615 19.9867C13.7156 20.0238 13.6598 20.0408 13.6042 20.0403Z" fill="#FFFBF7"/>
<path d="M13.4501 10.6009C13.3275 10.5998 13.2227 10.5117 13.2109 10.3936C13.1978 10.2687 13.2943 10.1569 13.4284 10.1433C13.711 10.1176 13.966 9.97766 14.1277 9.7591C14.3412 9.47124 14.3616 9.09988 14.1789 8.79246C14.1142 8.68191 14.1554 8.54278 14.2729 8.48076C14.3903 8.41874 14.5383 8.45893 14.6029 8.56948C14.8727 9.0252 14.8421 9.59499 14.5261 10.0214C14.2822 10.3506 13.8996 10.5606 13.4758 10.5998C13.4672 10.5997 13.4587 10.601 13.4501 10.6009Z" fill="#FFFBF7"/>
<path d="M11.8987 14.758C11.9762 14.6706 12.1209 14.6451 12.2347 14.7023C12.356 14.7633 12.3955 14.8977 12.3239 15.0004C12.1715 15.2186 12.1392 15.4825 12.2364 15.722C12.363 16.0409 12.686 16.2646 13.0767 16.3063C13.218 16.3215 13.3179 16.4309 13.3003 16.5494C13.2827 16.6693 13.1541 16.7536 13.0143 16.7384C12.4341 16.6759 11.9392 16.3321 11.7507 15.862C11.6064 15.5008 11.655 15.1056 11.8835 14.777C11.8881 14.7707 11.8927 14.7644 11.8987 14.758Z" fill="#FFFBF7"/>
<path d="M9.46627 20.63C9.43596 20.5093 9.49979 20.3823 9.61707 20.3383C9.74151 20.2901 9.88207 20.3552 9.928 20.4832C10.0268 20.7538 10.236 20.9659 10.5017 21.0654C10.8526 21.1975 11.2382 21.1153 11.5071 20.8494C11.6049 20.7545 11.7574 20.7573 11.8506 20.8567C11.9439 20.9547 11.9411 21.1113 11.8447 21.2062C11.4464 21.5971 10.8537 21.7239 10.3337 21.5309C9.93442 21.3809 9.62073 21.062 9.47317 20.6561C9.4704 20.6474 9.46762 20.6387 9.46485 20.63L9.46627 20.63Z" fill="#FFFBF7"/>
<path d="M7.55013 15.4097C7.42314 15.4086 7.3134 15.3139 7.29956 15.187C7.28579 15.0529 7.38844 14.9327 7.52901 14.9196C7.82362 14.8904 8.09089 14.74 8.26178 14.5052C8.48562 14.1959 8.50703 13.797 8.31567 13.4668C8.24648 13.348 8.29111 13.1985 8.41422 13.1319C8.53583 13.0652 8.69084 13.1084 8.76003 13.2271C9.04264 13.7166 9.01041 14.3287 8.67769 14.7869C8.42209 15.1406 8.02118 15.3662 7.57853 15.4085C7.56957 15.4084 7.56059 15.4098 7.55163 15.4097L7.55013 15.4097Z" fill="#FFFBF7"/>
<path d="M13.7961 22.4255C13.7229 22.4249 13.6499 22.3914 13.6026 22.3279C13.526 22.2231 13.5512 22.078 13.6589 22.0022C13.982 21.7762 14.1768 21.4106 14.1802 21.0242C14.186 20.3527 13.6317 19.8024 12.943 19.7964C12.7148 19.7944 12.4903 19.8541 12.2964 19.9662C12.1817 20.0323 12.0341 19.9968 11.9675 19.8852C11.8995 19.7736 11.9373 19.6314 12.0506 19.5652C12.321 19.4086 12.6316 19.3264 12.947 19.3291C13.9005 19.3374 14.6685 20.0993 14.6604 21.0284C14.6558 21.5642 14.3851 22.0702 13.9373 22.3829C13.8948 22.4127 13.8454 22.4273 13.7961 22.4269L13.7961 22.4255Z" fill="#FFFBF7"/>
<path d="M12.7827 12.3842C12.7095 12.3836 12.6365 12.3528 12.5905 12.2946C12.5125 12.1984 12.5376 12.0641 12.6452 11.9959C12.9682 11.7889 13.1641 11.4538 13.1672 11.0981C13.1725 10.4836 12.6164 9.97851 11.9291 9.97252C11.6995 9.97051 11.4765 10.0239 11.2812 10.1277C11.1666 10.1883 11.0204 10.1544 10.9523 10.0532C10.8842 9.95083 10.9219 9.8192 11.0351 9.7586C11.3054 9.61517 11.6159 9.54121 11.9328 9.54398C12.8849 9.55229 13.6535 10.2515 13.646 11.1023C13.6417 11.5937 13.3715 12.0588 12.9239 12.344C12.8814 12.3713 12.832 12.3847 12.7827 12.3842Z" fill="#FFFBF7"/>
<path d="M15.0003 9.55356C14.9076 9.55275 14.815 9.54255 14.7225 9.52296C14.5915 9.49634 14.5085 9.37355 14.538 9.25041C14.5662 9.12726 14.6952 9.04924 14.8262 9.07721C15.1294 9.14022 15.4453 9.04506 15.6511 8.82822C15.8051 8.66727 15.8825 8.46004 15.8701 8.24398C15.8577 8.02927 15.7568 7.82987 15.587 7.68487C15.3605 7.49377 15.0388 7.42792 14.7485 7.5166C14.6199 7.55571 14.4835 7.4888 14.4432 7.36907C14.4015 7.24799 14.4711 7.11983 14.5998 7.08071C15.053 6.94383 15.5569 7.0448 15.9108 7.34566C16.1783 7.572 16.3353 7.88321 16.3552 8.22005C16.3736 8.55822 16.2524 8.8831 16.0121 9.13451C15.753 9.40722 15.381 9.55688 15.0003 9.55356Z" fill="#FFFBF7"/>
<path d="M15.7942 6.64657C15.6602 6.6454 15.5527 6.54252 15.5538 6.41511C15.5595 5.76999 14.9711 5.22029 14.2681 5.21415C13.7206 5.20937 13.2343 5.53509 13.0604 6.02449C13.018 6.1435 12.8791 6.20801 12.7525 6.16801C12.626 6.128 12.5572 5.99864 12.5996 5.87829C12.8408 5.20035 13.5135 4.75018 14.2721 4.7568C14.7398 4.76088 15.1832 4.9351 15.5184 5.24786C15.8579 5.56335 16.0439 5.98078 16.04 6.41935C16.0389 6.54543 15.9282 6.64774 15.7942 6.64657Z" fill="#FFFBF7"/>
<path d="M17.6476 5.99293C17.5578 5.99214 17.4698 5.94309 17.4292 5.86091C17.2205 5.43256 16.7595 5.15222 16.2561 5.14783C15.9496 5.14516 15.6521 5.24852 15.4194 5.43696C15.3189 5.51924 15.165 5.50851 15.0774 5.41385C14.9898 5.31786 15.0011 5.17309 15.1016 5.09081C15.4233 4.82938 15.8352 4.68677 16.2601 4.69048C16.9502 4.6965 17.5814 5.08026 17.8701 5.66893C17.9261 5.78343 17.8736 5.91978 17.7519 5.97238C17.7176 5.98683 17.6833 5.99324 17.6476 5.99293Z" fill="#FFFBF7"/>
<path d="M11.1478 23.9291C10.4163 23.9227 9.73339 23.6757 9.22675 23.2339C9.13294 23.1508 9.13553 23.02 9.23511 22.9421C9.33325 22.863 9.49029 22.8668 9.58411 22.9488C9.99837 23.3097 10.5551 23.5108 11.1514 23.516C11.3012 23.5173 11.4511 23.5065 11.5952 23.4836C11.7292 23.4617 11.8595 23.5343 11.8862 23.646C11.9128 23.7589 11.8261 23.8672 11.6921 23.889C11.5144 23.9177 11.331 23.9319 11.1478 23.9303L11.1478 23.9291Z" fill="#FFFBF7"/>
<path d="M13.6485 25.2436C12.3628 25.2324 11.3238 24.2319 11.3344 23.0127C11.3357 22.8656 11.3527 22.7188 11.3838 22.5761C11.412 22.4522 11.541 22.3724 11.6719 22.3978C11.8028 22.4246 11.8873 22.5467 11.8591 22.6706C11.8353 22.7837 11.8215 22.8996 11.8205 23.0169C11.8121 23.9826 12.6348 24.7748 13.654 24.7837C14.6717 24.7926 15.4953 24.0147 15.5037 23.049C15.5049 22.9209 15.6141 22.8193 15.7481 22.8205C15.8821 22.8217 15.9895 22.9251 15.9884 23.0533C15.9832 23.644 15.7389 24.1963 15.2991 24.6092C14.8579 25.0235 14.2729 25.2491 13.6499 25.2436L13.6485 25.2436Z" fill="#FFFBF7"/>
<path d="M16.1369 25.6848C15.5124 25.6794 14.916 25.3898 14.5437 24.9117C14.4633 24.8091 14.4874 24.6658 14.595 24.5916C14.7026 24.5174 14.855 24.5389 14.9339 24.6415C15.2174 25.0035 15.669 25.222 16.1409 25.2261C16.7041 25.231 17.22 24.9431 17.4879 24.4733C17.5516 24.3612 17.6988 24.3196 17.8167 24.3796C17.9345 24.4397 17.9789 24.5782 17.9152 24.6903C17.5619 25.3096 16.8798 25.69 16.1369 25.6835L16.1369 25.6848Z" fill="#FFFBF7"/>
<path d="M16.1798 18.2524C15.2444 18.2443 14.3763 17.8866 13.7331 17.2466C13.6412 17.1546 13.6453 17.0097 13.743 16.9234C13.8407 16.8371 13.9947 16.8411 14.0866 16.9331C14.6365 17.4825 15.3824 17.7881 16.1823 17.7951C17.7921 17.8091 19.1118 16.5866 19.125 15.0711C19.1383 13.5542 17.8401 12.3089 16.2303 12.2948C15.2622 12.2864 14.3557 12.7305 13.8044 13.4808C13.7279 13.5848 13.5766 13.6103 13.466 13.5396C13.3568 13.4675 13.3281 13.3237 13.4046 13.2211C14.0482 12.3455 15.1065 11.8276 16.2343 11.8375C18.1122 11.8538 19.6267 13.3063 19.6113 15.0753C19.5958 16.843 18.0562 18.2688 16.1783 18.2524L16.1798 18.2524Z" fill="#FFFBF7"/>
<path d="M16.1808 16.9329C15.0701 16.9233 14.1735 16.065 14.1827 15.0189C14.1918 13.9728 15.1032 13.129 16.2139 13.1387C17.3233 13.1484 18.2198 14.0079 18.2107 15.0541C18.2015 16.1002 17.2901 16.9426 16.1808 16.9329ZM16.2099 13.596C15.3673 13.5887 14.6758 14.2291 14.6689 15.0231C14.6619 15.8171 15.3421 16.4682 16.1848 16.4756C17.0261 16.4829 17.7175 15.8438 17.7245 15.0498C17.7314 14.2558 17.0512 13.6034 16.2099 13.596Z" fill="#FFFBF7"/>
<path d="M17.2841 15.0525C17.2829 15.1866 17.2533 15.3164 17.198 15.4407C17.1427 15.5649 17.0633 15.6742 16.9613 15.7686C16.8592 15.8629 16.7416 15.9357 16.6086 15.9855C16.4755 16.0366 16.3384 16.0609 16.1958 16.0597C16.0518 16.0584 15.9152 16.0317 15.783 15.9783C15.6509 15.9261 15.5346 15.8514 15.4342 15.7552C15.3338 15.6591 15.2563 15.5485 15.2032 15.4233C15.1501 15.2981 15.1228 15.1677 15.1239 15.0336C15.1251 14.8981 15.1548 14.7683 15.21 14.644C15.2653 14.5211 15.3447 14.4118 15.4468 14.3161C15.5488 14.2218 15.6664 14.1504 15.7994 14.0992C15.9325 14.0494 16.0696 14.0238 16.2136 14.0251C16.3562 14.0263 16.4928 14.0543 16.625 14.1064C16.7571 14.1599 16.8734 14.2334 16.9738 14.3295C17.0742 14.4269 17.1517 14.5376 17.2048 14.6614C17.2579 14.7866 17.2853 14.917 17.2841 15.0525Z" fill="#5271FF"/>
<path d="M16.1349 21.7233C16.0009 21.7221 15.892 21.6192 15.8931 21.4931C15.8942 21.3671 16.0035 21.2647 16.1389 21.2659C19.7834 21.2977 22.7735 18.5298 22.8035 15.0949C22.8335 11.66 19.8921 8.83895 16.2476 8.80715C16.1136 8.80598 16.0047 8.70308 16.0058 8.57701C16.0069 8.44959 16.1162 8.3486 16.2516 8.34978C18.1466 8.36632 19.9228 9.07798 21.2521 10.3518C22.5814 11.6269 23.3053 13.3126 23.2897 15.0991C23.2741 16.8843 22.5209 18.5571 21.1696 19.8089C19.8182 21.0606 18.0299 21.7398 16.1349 21.7233Z" fill="#FFFBF7"/>
<path d="M16.9701 20.8114C16.9606 20.7483 17.0053 20.691 17.0724 20.6822C17.1381 20.6734 17.2005 20.7168 17.2099 20.7786C17.2193 20.8417 17.1732 20.899 17.1061 20.9078C17.1004 20.9091 17.0947 20.909 17.089 20.909C17.0291 20.9085 16.9781 20.8678 16.9701 20.8114ZM17.9199 20.6292C17.9005 20.5687 17.9353 20.5046 17.9996 20.4864C18.0639 20.4668 18.1321 20.501 18.1515 20.5615C18.1709 20.622 18.1362 20.6861 18.0718 20.7043C18.059 20.7082 18.0475 20.7095 18.0347 20.7093C17.9834 20.7089 17.9366 20.6776 17.9199 20.6292ZM18.8282 20.3072C18.7973 20.2506 18.8222 20.1824 18.8823 20.1547C18.9424 20.1271 19.015 20.1492 19.0458 20.2071C19.0753 20.2637 19.0504 20.3319 18.9903 20.3596C18.9731 20.3675 18.9546 20.3713 18.9346 20.3711C18.8918 20.3708 18.8492 20.3476 18.8282 20.3072ZM19.6692 19.8558C19.6311 19.8045 19.6446 19.7335 19.6991 19.6964C19.7536 19.6607 19.8291 19.6721 19.8685 19.7234C19.9066 19.776 19.8931 19.847 19.8386 19.8827C19.8171 19.8973 19.7928 19.9038 19.7686 19.9036C19.7301 19.9033 19.6931 19.8868 19.6692 19.8558ZM20.4271 19.2856C20.3804 19.2396 20.381 19.1672 20.4285 19.1234C20.4773 19.0795 20.5543 19.0802 20.601 19.1262C20.6477 19.1709 20.647 19.2433 20.5982 19.2871C20.5751 19.3097 20.5437 19.3202 20.5123 19.3199C20.4809 19.3196 20.4497 19.3086 20.4271 19.2856ZM21.0803 18.61C21.0265 18.5733 21.0157 18.5007 21.0561 18.4501C21.095 18.3995 21.1721 18.3894 21.226 18.4275C21.2798 18.4655 21.2906 18.5367 21.2502 18.5873C21.2257 18.6179 21.1885 18.6337 21.1514 18.6334C21.1272 18.6332 21.1016 18.6262 21.0803 18.61ZM21.6132 17.8474C21.5535 17.8173 21.5313 17.7487 21.5632 17.6927C21.5936 17.6366 21.668 17.6158 21.7262 17.6445C21.7858 17.6745 21.8094 17.7431 21.7776 17.7992C21.7558 17.8392 21.7129 17.8603 21.6687 17.8599C21.6501 17.8598 21.6316 17.8556 21.6132 17.8474ZM22.0126 17.0139C21.95 16.9946 21.9164 16.9299 21.9368 16.8697C21.9588 16.8095 22.0275 16.7779 22.0915 16.7973C22.154 16.8179 22.1891 16.8826 22.1672 16.9428C22.1497 16.9909 22.1024 17.0214 22.051 17.0209C22.0382 17.0208 22.0254 17.018 22.0126 17.0139ZM22.2684 16.1335C22.2015 16.1222 22.1578 16.0628 22.1683 16.0012C22.1802 15.9396 22.2419 15.8972 22.3089 15.9072C22.3744 15.9185 22.4195 15.9779 22.4075 16.0395C22.3985 16.0958 22.3468 16.1356 22.2869 16.135C22.2812 16.135 22.2741 16.1336 22.2684 16.1335ZM22.3733 15.225C22.3063 15.2245 22.2525 15.1717 22.2531 15.1086C22.2536 15.0456 22.3083 14.9951 22.3753 14.9957C22.4423 14.9963 22.496 15.0491 22.4955 15.1121C22.4949 15.1751 22.4403 15.2256 22.3733 15.225ZM22.1896 14.2148C22.1801 14.153 22.2249 14.0944 22.292 14.0856C22.3576 14.0768 22.42 14.1189 22.4294 14.182C22.4389 14.2438 22.3927 14.3024 22.3271 14.3112C22.3213 14.3125 22.3142 14.3124 22.3085 14.3124C22.2501 14.3119 22.1977 14.2712 22.1896 14.2148ZM21.9776 13.3411C21.9582 13.2819 21.993 13.2178 22.0573 13.1983C22.1216 13.18 22.1898 13.2128 22.2092 13.2734C22.2301 13.3339 22.1939 13.398 22.1295 13.4162C22.1181 13.4201 22.1052 13.4227 22.0924 13.4226C22.0411 13.4221 21.9943 13.3909 21.9776 13.3411ZM21.6227 12.5104C21.5932 12.4538 21.6181 12.3856 21.6768 12.3566C21.7369 12.329 21.8109 12.3524 21.8403 12.409C21.8698 12.4656 21.8449 12.5338 21.7862 12.5615C21.7676 12.5707 21.749 12.5745 21.7305 12.5744C21.6863 12.574 21.6437 12.5508 21.6227 12.5104ZM21.1331 11.7416C21.0951 11.6903 21.1071 11.6193 21.1616 11.5822C21.2161 11.5465 21.293 11.5579 21.3311 11.6092C21.3706 11.6605 21.3571 11.7328 21.3026 11.7685C21.2811 11.7831 21.2568 11.7909 21.2325 11.7907C21.194 11.7904 21.1571 11.774 21.1331 11.7416ZM20.5231 11.0549C20.4765 11.0102 20.4771 10.9378 20.5245 10.8926C20.572 10.8487 20.649 10.8494 20.6956 10.8954C20.7437 10.9401 20.7431 11.0125 20.6942 11.0564C20.6712 11.079 20.6398 11.0894 20.6084 11.0892C20.577 11.0889 20.5472 11.0779 20.5231 11.0549ZM19.8067 10.4652C19.7529 10.4271 19.7407 10.3559 19.781 10.3053C19.8214 10.2547 19.8971 10.2446 19.9509 10.2827C20.0048 10.3193 20.0156 10.3919 19.9766 10.4425C19.9521 10.4731 19.9149 10.4889 19.8778 10.4886C19.8522 10.4884 19.828 10.4801 19.8067 10.4652ZM19.001 9.98867C18.9413 9.95998 18.9177 9.89002 18.9481 9.8353C18.98 9.77924 19.0529 9.75707 19.1125 9.78576C19.1722 9.81579 19.1944 9.88439 19.1639 9.94046C19.1422 9.98051 19.0992 10.0029 19.055 10.0026C19.0365 10.0024 19.018 9.9982 19.001 9.98867ZM18.1256 9.63765C18.0616 9.61697 18.0266 9.55229 18.0485 9.49346C18.0689 9.43328 18.1377 9.40035 18.2017 9.42102C18.2657 9.44036 18.2993 9.50504 18.2788 9.56522C18.2613 9.61335 18.214 9.64379 18.1627 9.64334C18.1498 9.64323 18.137 9.64178 18.1256 9.63765ZM17.2021 9.42035C17.1366 9.41039 17.0915 9.35098 17.1034 9.28938C17.1139 9.22643 17.1756 9.18405 17.2425 9.19536C17.3081 9.20532 17.3532 9.26473 17.3426 9.32634C17.3322 9.38259 17.2805 9.42237 17.222 9.42186C17.2149 9.4218 17.2092 9.42175 17.2021 9.42035ZM16.1357 9.22728C16.1363 9.16425 16.1909 9.11375 16.2579 9.11434C16.3249 9.11492 16.3787 9.16636 16.3781 9.2294C16.3776 9.29244 16.3229 9.34293 16.2559 9.34234C16.1889 9.34176 16.1352 9.29032 16.1357 9.22728Z" fill="#5271FF"/>
<path d="M16.5855 22.5865C16.4572 22.5854 16.3511 22.4893 16.345 22.3685C16.339 22.2424 16.4426 22.1346 16.5767 22.1291C20.5638 21.9533 23.7135 18.8662 23.7464 15.1013C23.7793 11.3351 20.6754 8.18271 16.679 7.94797C16.5451 7.9401 16.4433 7.8319 16.4516 7.70589C16.4598 7.57988 16.5747 7.48296 16.7087 7.49084C20.963 7.74124 24.2677 11.0859 24.2326 15.1056C24.1975 19.1239 20.8451 22.3997 16.5983 22.5867C16.5941 22.5866 16.5898 22.5866 16.5855 22.5865Z" fill="#FFFBF7"/>
<path d="M17.4574 7.10795C17.3606 7.09503 17.2623 7.0821 17.164 7.07186L17.2179 6.61762C17.3204 6.62925 17.4259 6.6409 17.527 6.65519L17.4574 7.10795Z" fill="#FFFBF7"/>
<path d="M18.0668 23.3546L17.968 22.9071C18.1609 22.8699 18.3538 22.8246 18.5439 22.7753L18.6755 23.2151C18.4754 23.2683 18.2696 23.3148 18.0668 23.3546ZM19.2731 23.0352L19.1086 22.6046C19.2931 22.5418 19.4791 22.4723 19.6594 22.3974L19.8554 22.8163C19.665 22.8951 19.469 22.9685 19.2731 23.0352ZM20.4194 22.5597L20.1934 22.1553C20.3667 22.0683 20.5401 21.9746 20.7077 21.8768L20.9639 22.2666C20.7861 22.3697 20.6028 22.4687 20.4194 22.5597ZM21.4844 21.9372L21.201 21.5659C21.3602 21.4573 21.5181 21.3433 21.6703 21.2239L21.9809 21.5754C21.8201 21.7014 21.6536 21.8233 21.4844 21.9372ZM22.4492 21.1824L22.1127 20.8522C22.255 20.7234 22.3945 20.5891 22.5269 20.4521L22.8864 20.7597C22.7468 20.9047 22.5987 21.0469 22.4478 21.1824L22.4492 21.1824ZM23.2924 20.3086L22.9113 20.0249C23.0338 19.8798 23.152 19.7279 23.2632 19.5746L23.6645 19.833C23.5461 19.9942 23.4221 20.1555 23.2924 20.3086ZM23.9997 19.3329L23.5796 19.1026C23.6794 18.9412 23.7749 18.7757 23.8619 18.6101L24.2965 18.8124C24.2051 18.9887 24.1052 19.1635 23.9997 19.3329ZM24.555 18.2741L24.106 18.0999C24.1802 17.9275 24.2502 17.7511 24.3116 17.5745L24.7738 17.7181C24.708 17.9053 24.6351 18.0924 24.555 18.2741ZM24.9484 17.1509L24.4774 17.0381C24.526 16.8588 24.569 16.6741 24.6034 16.492L25.0818 16.5726C25.0445 16.7668 25 16.9609 24.9484 17.1509ZM25.171 15.9886L24.6881 15.9388C24.7096 15.7539 24.7241 15.5662 24.7314 15.3798L25.2175 15.3988C25.2087 15.5959 25.1927 15.7943 25.171 15.9886ZM24.7349 14.8205C24.7294 14.6354 24.7168 14.4475 24.697 14.2622L25.1808 14.2182C25.2005 14.4128 25.2144 14.6115 25.2198 14.8087L24.7349 14.8205ZM24.6177 13.7076C24.5851 13.5249 24.5453 13.3408 24.4984 13.1607L24.9713 13.0535C25.0196 13.2443 25.0621 13.4392 25.0975 13.6327L24.6191 13.7076L24.6177 13.7076ZM24.3377 12.6214C24.2779 12.4452 24.211 12.2675 24.1384 12.0952L24.5905 11.9261C24.6673 12.1092 24.7384 12.2963 24.8009 12.4833L24.3377 12.6214ZM23.9005 11.5835C23.8149 11.4164 23.7223 11.2493 23.6239 11.0888L24.0451 10.8618C24.1491 11.033 24.2474 11.2082 24.3371 11.3861L23.9005 11.5835ZM23.3114 10.6126C23.203 10.4574 23.086 10.3048 22.9661 10.1576L23.3492 9.87789C23.4776 10.0333 23.6003 10.1953 23.7158 10.3586L23.3114 10.6126ZM22.5862 9.72637C22.4548 9.58842 22.3177 9.45175 22.1762 9.32175L22.5156 8.99476C22.6656 9.13288 22.8112 9.27632 22.9496 9.42373L22.5862 9.72771L22.5862 9.72637ZM21.7375 8.9437C21.5874 8.82436 21.4316 8.70631 21.2728 8.59628L21.5612 8.2286C21.7285 8.34541 21.8942 8.46891 22.0528 8.59638L21.7375 8.9437ZM20.7822 8.27948C20.6162 8.18012 20.4445 8.08473 20.2713 7.99603L20.5016 7.59431C20.6847 7.68712 20.8678 7.78797 21.0437 7.89413L20.7836 8.27949L20.7822 8.27948ZM19.7388 7.74593C19.5598 7.66926 19.375 7.5979 19.1902 7.53324L19.3579 7.10415C19.5541 7.17293 19.7488 7.2484 19.9392 7.33054L19.7388 7.74593ZM18.6257 7.35529C18.4365 7.30401 18.2429 7.25672 18.0508 7.21749L18.1545 6.7704C18.358 6.81242 18.563 6.86115 18.7621 6.91654L18.6257 7.35529Z" fill="#FFFBF7"/>
<path d="M17.1213 23.4822L17.0739 23.0257C17.171 23.0172 17.2695 23.006 17.3665 22.9947L17.431 23.4473C17.3297 23.4599 17.2255 23.4724 17.1213 23.4808L17.1213 23.4822Z" fill="#FFFBF7"/>
<path d="M17.4993 24.354C17.3809 24.353 17.2775 24.2703 17.2614 24.1561C17.244 24.0312 17.3362 23.9153 17.4704 23.8991C22.117 23.3186 25.6521 19.5427 25.6907 15.1179C25.7293 10.6931 22.2522 6.84532 17.605 6.19177C17.4711 6.17317 17.3795 6.05567 17.3991 5.9311C17.4187 5.80652 17.5421 5.72041 17.676 5.73902C20.033 6.07078 22.1935 7.1949 23.7571 8.9067C25.3363 10.6334 26.1954 12.8407 26.1755 15.1221C26.1556 17.4036 25.261 19.5889 23.6562 21.2878C22.0673 22.9694 19.8917 24.0584 17.5335 24.353C17.5221 24.3542 17.5107 24.3555 17.4992 24.3554L17.4993 24.354Z" fill="#FFFBF7"/>
<path d="M19.3125 14.7422L20.784 14.755L20.7785 15.3814L19.307 15.3685L19.3125 14.7422Z" fill="#FFFBF7"/>
<path d="M22.1308 15.0907C22.1298 15.2047 22.1046 15.3144 22.058 15.42C22.0101 15.5255 21.9437 15.6189 21.856 15.6986C21.7697 15.7783 21.6708 15.8405 21.5578 15.8838C21.4447 15.9257 21.3276 15.9475 21.2064 15.9464C21.0852 15.9454 20.9685 15.9215 20.8562 15.8776C20.744 15.8324 20.6447 15.7685 20.5599 15.6873C20.475 15.606 20.4088 15.5116 20.3641 15.4052C20.318 15.2989 20.2962 15.1887 20.2971 15.0747C20.2982 14.9593 20.3219 14.8496 20.3699 14.744C20.4165 14.6384 20.4843 14.5465 20.5705 14.4654C20.6568 14.3857 20.7572 14.3235 20.8702 14.2816C20.9832 14.2383 21.1003 14.2179 21.2215 14.2189C21.3427 14.22 21.4594 14.2425 21.5717 14.2877C21.684 14.3316 21.7818 14.3955 21.8666 14.4767C21.9529 14.5593 22.0177 14.6524 22.0638 14.7588C22.1085 14.8651 22.1318 14.9753 22.1308 15.0907Z" fill="#FFFBF7"/>
<path d="M18.7479 13.334L20.0286 12.6517L20.3575 13.1965L19.0768 13.8788L18.7479 13.334Z" fill="#FFFBF7"/>
<path d="M21.4745 12.7352C21.4735 12.8492 21.4498 12.959 21.4018 13.0645C21.3552 13.1701 21.2874 13.2634 21.2012 13.3431C21.1149 13.4228 21.0145 13.485 20.9015 13.5283C20.7899 13.5702 20.6714 13.592 20.5502 13.5909C20.429 13.5899 20.3123 13.5661 20.2 13.5222C20.0877 13.4769 19.9899 13.413 19.9051 13.3318C19.8188 13.2506 19.754 13.1561 19.7079 13.0498C19.6632 12.9434 19.6399 12.8332 19.6409 12.7192C19.6419 12.6039 19.6671 12.4941 19.7137 12.3885C19.7616 12.283 19.828 12.191 19.9157 12.11C20.002 12.0302 20.1009 11.9681 20.2139 11.9261C20.327 11.8829 20.4441 11.8624 20.5653 11.8635C20.6865 11.8645 20.8046 11.887 20.9154 11.9322C21.0277 11.9762 21.127 12.0401 21.2118 12.1213C21.2967 12.2038 21.3629 12.297 21.4076 12.4033C21.4537 12.5097 21.4755 12.6199 21.4745 12.7352Z" fill="#FFFBF7"/>
<path d="M17.5169 12.3918L18.2631 11.1978L18.8364 11.5154L18.0902 12.7107L17.5169 12.3918Z" fill="#FFFBF7"/>
<path d="M19.6738 11.0008C19.6728 11.1148 19.6476 11.2246 19.601 11.3302C19.553 11.4357 19.4866 11.529 19.3989 11.6087C19.3127 11.6898 19.2123 11.7506 19.1007 11.7939C18.9877 11.8372 18.8706 11.8576 18.7494 11.8566C18.6268 11.8555 18.51 11.833 18.3992 11.7878C18.287 11.7425 18.1877 11.68 18.1029 11.5974C18.018 11.5162 17.9518 11.4217 17.9071 11.3154C17.861 11.209 17.8391 11.0988 17.8401 10.9848C17.8411 10.8708 17.8649 10.7597 17.9129 10.6542C17.9594 10.5499 18.0273 10.4566 18.1135 10.3769C18.1998 10.2959 18.3001 10.235 18.4131 10.1918C18.5247 10.1485 18.6419 10.128 18.7645 10.1291C18.8857 10.1302 19.0024 10.1526 19.1147 10.1979C19.2255 10.2431 19.3248 10.3057 19.4096 10.3882C19.4959 10.4695 19.5606 10.5639 19.6068 10.6689C19.6515 10.7753 19.6748 10.8868 19.6738 11.0008Z" fill="#FFFBF7"/>
<path d="M15.9293 12.1368L15.9414 10.75L16.6073 10.7558L16.5952 12.1426L15.9293 12.1368Z" fill="#FFFBF7"/>
<path d="M17.205 10.3563C17.204 10.4716 17.1802 10.5814 17.1323 10.687C17.0857 10.7925 17.0179 10.8845 16.9316 10.9656C16.8454 11.0453 16.745 11.1074 16.632 11.1494C16.5204 11.1927 16.4033 11.2131 16.2807 11.212C16.1595 11.211 16.0427 11.1885 15.9305 11.1433C15.8182 11.0994 15.7204 11.0355 15.6355 10.9542C15.5493 10.8717 15.4845 10.7786 15.4383 10.6722C15.3936 10.5658 15.3704 10.4556 15.3714 10.3403C15.3724 10.2263 15.3976 10.1165 15.4441 10.011C15.4921 9.90543 15.5585 9.81212 15.6462 9.7324C15.7324 9.65268 15.8314 9.5905 15.9444 9.54722C16.0574 9.50529 16.1745 9.48351 16.2957 9.48456C16.4183 9.48563 16.5351 9.50945 16.6459 9.55334C16.7582 9.59859 16.8574 9.66249 16.9423 9.74371C17.0271 9.82493 17.0933 9.9194 17.138 10.0258C17.1841 10.1321 17.206 10.2423 17.205 10.3563Z" fill="#FFFBF7"/>
<path d="M19.0602 16.2373L20.3289 16.9418L19.9905 17.4821L18.7218 16.7776L19.0602 16.2373Z" fill="#FFFBF7"/>
<path d="M21.4355 17.4344C21.4345 17.5484 21.4107 17.6582 21.3627 17.7638C21.3162 17.8693 21.2483 17.9626 21.1621 18.0423C21.0758 18.1234 20.9755 18.1842 20.8625 18.2275C20.7508 18.2708 20.6323 18.2912 20.5111 18.2902C20.3899 18.2891 20.2732 18.2666 20.1609 18.2214C20.0487 18.1761 19.9508 18.1136 19.866 18.031C19.7797 17.9498 19.715 17.8553 19.6688 17.749C19.6241 17.6426 19.6008 17.5324 19.6018 17.4184C19.6028 17.3044 19.628 17.1933 19.6746 17.0878C19.7226 16.9836 19.789 16.8902 19.8766 16.8105C19.9629 16.7295 20.0618 16.6686 20.1749 16.6253C20.2879 16.5821 20.405 16.5616 20.5262 16.5627C20.6474 16.5637 20.7656 16.5862 20.8764 16.6315C20.9886 16.6767 21.0879 16.7393 21.1727 16.8218C21.2576 16.9031 21.3238 16.9975 21.3685 17.1025C21.4146 17.2089 21.4365 17.3204 21.4355 17.4344Z" fill="#FFFBF7"/>
<path d="M18.0526 17.4152L18.7779 18.622L18.1991 18.9308L17.4738 17.7227L18.0526 17.4152Z" fill="#FFFBF7"/>
<path d="M19.6074 19.1336C19.6064 19.2476 19.5812 19.3574 19.5346 19.463C19.4866 19.5685 19.4202 19.6618 19.3325 19.7415C19.2463 19.8213 19.1459 19.8834 19.0343 19.9267C18.9213 19.9687 18.8042 19.9904 18.683 19.9894C18.5604 19.9883 18.4437 19.9645 18.3328 19.9206C18.2206 19.8754 18.1213 19.8114 18.0364 19.7302C17.9516 19.649 17.8854 19.5545 17.8407 19.4482C17.7946 19.3418 17.7727 19.2316 17.7737 19.1176C17.7747 19.0023 17.7985 18.8925 17.8465 18.787C17.893 18.6814 17.9608 18.5895 18.0471 18.5084C18.1334 18.4287 18.2337 18.3665 18.3467 18.3246C18.4583 18.2813 18.5754 18.2608 18.6981 18.2619C18.8193 18.263 18.936 18.2854 19.0483 18.3307C19.1591 18.3746 19.2584 18.4385 19.3432 18.5197C19.4295 18.6023 19.4942 18.6954 19.5404 18.8018C19.5851 18.9081 19.6084 19.0183 19.6074 19.1336Z" fill="#FFFBF7"/>
<path d="M16.5434 17.9355L16.5312 19.3223L15.8668 19.3165L15.8789 17.9297L16.5434 17.9355Z" fill="#FFFBF7"/>
<path d="M17.1269 19.743C17.1259 19.857 17.1021 19.9681 17.0541 20.0737C17.0076 20.1779 16.9398 20.2712 16.8535 20.3509C16.7672 20.432 16.6669 20.4928 16.5539 20.5361C16.4423 20.5794 16.3251 20.5998 16.2025 20.5988C16.0813 20.5977 15.9646 20.5752 15.8523 20.53C15.7401 20.4847 15.6422 20.4222 15.5574 20.3396C15.4711 20.2584 15.4064 20.1639 15.3602 20.0589C15.3155 19.9526 15.2922 19.841 15.2932 19.727C15.2942 19.613 15.3194 19.5032 15.366 19.3977C15.414 19.2921 15.4804 19.1988 15.5681 19.1191C15.6543 19.0381 15.7532 18.9772 15.8663 18.9339C15.9793 18.8907 16.0964 18.8702 16.2176 18.8713C16.3402 18.8724 16.457 18.8948 16.5678 18.9401C16.68 18.9853 16.7793 19.0479 16.8641 19.1304C16.949 19.2117 17.0152 19.3061 17.0599 19.4125C17.106 19.5188 17.1279 19.629 17.1269 19.743Z" fill="#FFFBF7"/>
<path d="M21.6993 15.074C21.6987 15.1344 21.6868 15.1933 21.6606 15.2494C21.6359 15.3055 21.5998 15.3548 21.5538 15.3974C21.5078 15.4399 21.4548 15.4729 21.3947 15.4966C21.3346 15.5188 21.2718 15.5304 21.2076 15.5298C21.142 15.5292 21.0808 15.5166 21.0211 15.4933C20.9614 15.4686 20.909 15.4346 20.8637 15.3913C20.8185 15.348 20.7833 15.2981 20.7581 15.2415C20.7343 15.185 20.722 15.1259 20.7225 15.0655C20.7231 15.0038 20.7364 14.9449 20.7612 14.8888C20.7873 14.8327 20.8234 14.7834 20.8694 14.7408C20.9154 14.6983 20.9685 14.6653 21.0285 14.643C21.0886 14.6194 21.15 14.6092 21.2156 14.6097C21.2798 14.6103 21.3424 14.6216 21.4021 14.6462C21.4618 14.6696 21.5143 14.7036 21.5595 14.7469C21.6048 14.7902 21.64 14.8401 21.6637 14.8967C21.6889 14.9532 21.6998 15.0123 21.6993 15.074Z" fill="white"/>
<path d="M21.2149 15.5527C20.9383 15.5503 20.7163 15.3378 20.7185 15.0776C20.7208 14.8174 20.9465 14.6074 21.2231 14.6098C21.4983 14.6122 21.7218 14.8261 21.7195 15.0863C21.7172 15.3465 21.4901 15.5551 21.2149 15.5527ZM21.2229 14.6326C20.9606 14.6303 20.7449 14.8297 20.7428 15.0778C20.7406 15.3246 20.9527 15.5276 21.2151 15.5299C21.4775 15.5322 21.6931 15.3329 21.6952 15.0861C21.6974 14.838 21.4853 14.6349 21.2229 14.6326Z" fill="#FFFBF7"/>
<path d="M28.1649 15.3638L21.2267 15.3032C21.0927 15.302 20.9852 15.1992 20.9863 15.0731C20.9874 14.9457 21.0966 14.8447 21.2307 14.8459L28.1688 14.9064C28.3029 14.9076 28.4104 15.0105 28.4092 15.1379C28.4081 15.2639 28.2989 15.3649 28.1649 15.3638Z" fill="#FFFBF7"/>
<path d="M21.0508 12.7225C21.0503 12.7842 21.0369 12.8431 21.0122 12.8992C20.9875 12.9553 20.9514 13.0046 20.9054 13.0471C20.8594 13.0897 20.8063 13.1227 20.7463 13.145C20.6862 13.1686 20.6233 13.1788 20.5592 13.1782C20.4936 13.1777 20.4324 13.1664 20.3727 13.1417C20.313 13.1184 20.2605 13.0844 20.2139 13.0411C20.1686 12.9978 20.1348 12.9479 20.1096 12.8913C20.0859 12.8348 20.0736 12.7756 20.0741 12.7139C20.0746 12.6536 20.088 12.5947 20.1127 12.5386C20.1389 12.4825 20.1735 12.4331 20.2195 12.3906C20.267 12.3481 20.32 12.315 20.3801 12.2914C20.4402 12.2691 20.5016 12.2576 20.5672 12.2582C20.6314 12.2587 20.694 12.2714 20.7537 12.2947C20.8133 12.3193 20.8658 12.3533 20.9111 12.3966C20.9563 12.44 20.9915 12.4899 21.0153 12.5464C21.039 12.603 21.0513 12.6621 21.0508 12.7225Z" fill="white"/>
<path d="M20.5704 13.1823C20.3979 13.1808 20.2304 13.0948 20.139 12.9424C20.0027 12.7159 20.0879 12.4283 20.3272 12.3002C20.4446 12.2382 20.5788 12.222 20.7083 12.2566C20.8363 12.2899 20.944 12.3687 21.0101 12.4779C21.145 12.7044 21.0612 12.9934 20.8205 13.1214C20.7417 13.1636 20.656 13.183 20.5704 13.1823ZM20.577 12.2608C20.4943 12.2601 20.4129 12.2809 20.3398 12.3205C20.1106 12.4419 20.0298 12.7161 20.1591 12.9305C20.2884 13.1463 20.5801 13.2226 20.8093 13.1012C21.0371 12.9798 21.1179 12.7055 20.9886 12.4898C20.9253 12.3859 20.8233 12.3099 20.701 12.278C20.6597 12.2669 20.6184 12.2612 20.577 12.2608Z" fill="#FFFBF7"/>
<path d="M20.5678 12.9411C20.4836 12.9404 20.4027 12.8981 20.3577 12.8252C20.2917 12.7147 20.3328 12.5755 20.4503 12.5135L25.102 10.0352C25.324 9.91637 25.577 9.8542 25.8322 9.85642L26.9372 9.86607C27.0713 9.86724 27.1787 9.97145 27.1776 10.0975C27.1765 10.2236 27.0673 10.3259 26.9332 10.3248L25.8282 10.3151C25.6585 10.3136 25.4899 10.3537 25.3409 10.4329L20.6892 12.9113C20.6505 12.9311 20.6091 12.9415 20.5678 12.9411Z" fill="#FFFBF7"/>
<path d="M19.2305 10.9842C19.23 11.0445 19.2166 11.1034 19.1919 11.1596C19.1657 11.2157 19.1297 11.265 19.0837 11.3075C19.0377 11.35 18.9846 11.3831 18.9245 11.4067C18.8644 11.429 18.803 11.4405 18.7374 11.4399C18.6733 11.4394 18.6106 11.4268 18.5509 11.4034C18.4913 11.3788 18.4388 11.3448 18.3936 11.3015C18.3483 11.2582 18.3131 11.2082 18.2893 11.1517C18.2642 11.0951 18.2533 11.036 18.2538 10.9757C18.2543 10.914 18.2663 10.855 18.2924 10.7989C18.3171 10.7428 18.3532 10.6935 18.3992 10.651C18.4452 10.6085 18.4983 10.5754 18.5584 10.5531C18.6185 10.5295 18.6813 10.5193 18.7455 10.5199C18.811 10.5205 18.8723 10.5317 18.9319 10.5564C18.9916 10.5797 19.0441 10.6137 19.0893 10.657C19.1346 10.7003 19.1698 10.7503 19.195 10.8068C19.2187 10.8634 19.231 10.9225 19.2305 10.9842Z" fill="white"/>
<path d="M18.7305 11.4433C18.6436 11.4426 18.5582 11.4217 18.4816 11.3781C18.2432 11.2459 18.163 10.9569 18.3032 10.7327C18.4435 10.5086 18.7508 10.4335 18.9892 10.5657C19.1041 10.6297 19.1859 10.7324 19.2191 10.8547C19.2522 10.9758 19.234 11.103 19.166 11.2124C19.0981 11.3205 18.9905 11.3973 18.8604 11.4284C18.8176 11.4387 18.7733 11.4437 18.7305 11.4433ZM18.74 10.5233C18.5746 10.5218 18.4142 10.6009 18.3245 10.7437C18.1915 10.9571 18.2675 11.2327 18.4931 11.3581C18.6024 11.4194 18.7306 11.4366 18.8549 11.4069C18.9778 11.3771 19.0811 11.3029 19.1448 11.2002C19.2098 11.0974 19.228 10.9755 19.1962 10.8599C19.1644 10.7443 19.0854 10.647 18.9762 10.5857C18.9024 10.5448 18.8198 10.524 18.74 10.5233Z" fill="#FFFBF7"/>
<path d="M18.7415 11.2008C18.6887 11.2004 18.6361 11.1838 18.5922 11.1512C18.4873 11.0725 18.4701 10.9275 18.5536 10.829L21.5475 7.30064C21.9222 6.85859 22.4819 6.60863 23.0807 6.61385L24.3939 6.62531C24.5266 6.62647 24.6355 6.72936 24.6344 6.85543C24.6332 6.98285 24.524 7.08383 24.39 7.08266L23.0767 7.0712C22.6276 7.06728 22.2082 7.25543 21.9272 7.58562L18.9333 11.1153C18.8857 11.1726 18.8142 11.2014 18.7415 11.2008Z" fill="#FFFBF7"/>
<path d="M16.7461 10.3279C16.7456 10.3883 16.7323 10.4472 16.7075 10.5033C16.6828 10.5594 16.6467 10.6087 16.6007 10.6513C16.5547 10.6951 16.5017 10.7268 16.4416 10.7505C16.3815 10.7727 16.3186 10.7843 16.2545 10.7837C16.1889 10.7831 16.1263 10.7705 16.0666 10.7472C16.0069 10.7225 15.9544 10.6899 15.9092 10.6452C15.8639 10.6019 15.8287 10.552 15.805 10.4954C15.7812 10.4389 15.7689 10.3798 15.7694 10.3194C15.77 10.2577 15.7833 10.2002 15.808 10.144C15.8328 10.0866 15.8689 10.0373 15.9149 9.99474C15.9609 9.95222 16.0139 9.91915 16.074 9.89687C16.1341 9.87325 16.1969 9.86307 16.2625 9.86364C16.3267 9.8642 16.3893 9.87548 16.449 9.90014C16.5087 9.92347 16.5611 9.95746 16.6064 10.0008C16.6516 10.0441 16.6869 10.094 16.7106 10.1519C16.7343 10.2085 16.7467 10.2662 16.7461 10.3279Z" fill="white"/>
<path d="M16.254 10.791C15.9773 10.7886 15.7553 10.576 15.7576 10.3159C15.7599 10.0557 15.9856 9.8457 16.2622 9.84812C16.5374 9.85052 16.7594 10.0644 16.7571 10.3246C16.7548 10.5848 16.5292 10.7934 16.254 10.791ZM16.262 9.87092C15.9982 9.86862 15.784 10.0679 15.7818 10.3161C15.7797 10.5628 15.9904 10.7659 16.2542 10.7682C16.5165 10.7705 16.7307 10.5711 16.7329 10.3244C16.735 10.0762 16.5243 9.87321 16.262 9.87092Z" fill="#FFFBF7"/>
<path d="M16.2362 10.5607C16.1021 10.5595 15.9932 10.4566 15.9943 10.3305L16.01 8.53599L17.3712 5.82904C17.6933 5.18802 18.3885 4.77828 19.1428 4.78486L20.1765 4.79389C20.3105 4.79505 20.418 4.89793 20.4169 5.02401C20.4158 5.15142 20.3065 5.25241 20.1725 5.25124L19.1388 5.24221C18.5727 5.23727 18.051 5.54525 17.8101 6.02601L16.4953 8.64082L16.4806 10.3348C16.4795 10.4608 16.3702 10.5618 16.2362 10.5607Z" fill="#FFFBF7"/>
<mask id="mask3_179_383" style="mask-type:luminance" maskUnits="userSpaceOnUse" x="19" y="4" width="3" height="2">
<path d="M19.1641 4.10938L21.3542 4.12849L21.3379 5.99679L19.1478 5.97767L19.1641 4.10938Z" fill="white"/>
</mask>
<g mask="url(#mask3_179_383)">
<path d="M20.1597 5.88258C19.6421 5.87806 19.2263 5.47875 19.2306 4.99189C19.2348 4.50503 19.6575 4.11303 20.1751 4.11755C20.6912 4.12205 21.1084 4.52138 21.1041 5.00824C21.0999 5.4951 20.6758 5.88708 20.1597 5.88258ZM20.1711 4.5749C19.9215 4.57272 19.7174 4.76141 19.7154 4.99612C19.7133 5.23083 19.9141 5.42305 20.1637 5.42522C20.4117 5.42739 20.6159 5.23871 20.6179 5.004C20.62 4.76928 20.4192 4.57707 20.1711 4.5749Z" fill="#FFFBF7"/>
</g>
<path d="M24.4619 7.74721C23.9443 7.74269 23.5271 7.34203 23.5314 6.85517C23.5356 6.36965 23.9597 5.97633 24.4773 5.98084C24.9934 5.98535 25.4106 6.38602 25.4064 6.87153C25.4021 7.35839 24.978 7.75171 24.4619 7.74721ZM24.4733 6.43954C24.2237 6.43736 24.0196 6.62604 24.0176 6.85941C24.0155 7.09412 24.2163 7.28634 24.4659 7.28852C24.714 7.29068 24.9181 7.102 24.9201 6.86729C24.9222 6.63392 24.7214 6.4417 24.4733 6.43954Z" fill="#FFFBF7"/>
<path d="M26.9253 10.9841C26.4091 10.9796 25.992 10.5803 25.9962 10.0935C26.0005 9.60659 26.4231 9.2146 26.9407 9.21911C27.4568 9.22362 27.874 9.62294 27.8698 10.1098C27.8655 10.5967 27.4414 10.9886 26.9253 10.9841ZM26.9367 9.67646C26.6872 9.67429 26.483 9.86297 26.481 10.0977C26.4789 10.3324 26.6798 10.5246 26.9293 10.5268C27.1774 10.529 27.3815 10.3403 27.3836 10.1056C27.3856 9.87085 27.1848 9.67863 26.9367 9.67646Z" fill="#FFFBF7"/>
<path d="M21.0118 17.4217C21.0112 17.4834 20.9979 17.5409 20.9731 17.5984C20.9484 17.6545 20.9123 17.7038 20.8663 17.7464C20.8203 17.7889 20.7673 17.8219 20.7072 17.8442C20.6471 17.8678 20.5843 17.878 20.5201 17.8775C20.4545 17.8769 20.3933 17.8656 20.3336 17.841C20.2739 17.8176 20.2215 17.7836 20.1748 17.7403C20.1295 17.697 20.0957 17.6471 20.0706 17.5905C20.0468 17.5326 20.0345 17.4749 20.035 17.4132C20.0356 17.3528 20.0489 17.2939 20.0737 17.2378C20.0998 17.1817 20.1345 17.1324 20.1805 17.0898C20.2279 17.046 20.2809 17.0143 20.341 16.9906C20.4011 16.9684 20.4625 16.9568 20.5281 16.9574C20.5923 16.958 20.6549 16.9706 20.7146 16.9939C20.7743 17.0186 20.8268 17.0512 20.872 17.0959C20.9173 17.1392 20.9525 17.1891 20.9762 17.2457C21 17.3022 21.0123 17.3613 21.0118 17.4217Z" fill="white"/>
<path d="M20.5303 17.9004C20.4433 17.8996 20.3579 17.8774 20.2813 17.8351C20.0429 17.703 19.9641 17.4126 20.1044 17.1898C20.2432 16.9657 20.5505 16.8905 20.7889 17.0227C20.9038 17.0868 20.9856 17.1894 21.0202 17.3104C21.0534 17.4328 21.0337 17.56 20.9672 17.6681C20.8992 17.7775 20.7902 17.8543 20.6601 17.8854C20.6173 17.8958 20.573 17.9007 20.5303 17.9004ZM20.5397 16.9803C20.3757 16.9789 20.2139 17.0579 20.1243 17.2007C19.9912 17.4141 20.0672 17.6898 20.2943 17.8151C20.4036 17.8765 20.5317 17.8937 20.6546 17.8626C20.7775 17.8328 20.8808 17.7599 20.9459 17.6572C21.0096 17.5531 21.0277 17.4326 20.9959 17.3169C20.9642 17.2 20.8866 17.1027 20.7773 17.0427C20.7021 17.0005 20.621 16.981 20.5397 16.9803Z" fill="#FFFBF7"/>
<path d="M26.8474 20.378L25.7424 20.3683C25.4872 20.3661 25.2354 20.3008 25.0154 20.1782L20.4077 17.619C20.2913 17.555 20.2526 17.4151 20.3206 17.3057C20.3885 17.1963 20.5371 17.1614 20.6535 17.2255L25.2612 19.7847C25.4088 19.8651 25.5753 19.9095 25.7464 19.911L26.8514 19.9206C26.9855 19.9218 27.0929 20.0247 27.0918 20.1521C27.0907 20.2781 26.9815 20.3791 26.8474 20.378Z" fill="#FFFBF7"/>
<path d="M19.1602 19.1639C19.1597 19.2242 19.1463 19.2831 19.1216 19.3392C19.0954 19.3954 19.0593 19.4447 19.0133 19.4872C18.9673 19.531 18.9143 19.5628 18.8542 19.5864C18.7941 19.6087 18.7327 19.6202 18.6671 19.6196C18.6029 19.6191 18.5403 19.6065 18.4806 19.5831C18.421 19.5585 18.3685 19.5258 18.3232 19.4812C18.278 19.4378 18.2428 19.3879 18.219 19.3314C18.1939 19.2748 18.183 19.2157 18.1835 19.1553C18.184 19.0937 18.1959 19.0361 18.2221 18.98C18.2468 18.9239 18.2829 18.8732 18.3289 18.8307C18.3749 18.7882 18.428 18.7551 18.488 18.7328C18.5481 18.7092 18.611 18.699 18.6751 18.6996C18.7407 18.7001 18.8019 18.7114 18.8616 18.7361C18.9213 18.7594 18.9738 18.7934 19.019 18.8367C19.0643 18.88 19.0995 18.9313 19.1247 18.9878C19.1484 19.0444 19.1607 19.1022 19.1602 19.1639Z" fill="white"/>
<path d="M18.661 19.6192C18.4871 19.6176 18.3196 19.5317 18.2282 19.3807C18.0933 19.1541 18.1771 18.8652 18.4177 18.7371C18.5338 18.6751 18.6694 18.6602 18.7974 18.6935C18.9269 18.7268 19.0332 18.8069 19.0992 18.9161C19.2356 19.1427 19.1503 19.4303 18.9111 19.5583C18.8323 19.6005 18.7451 19.6199 18.661 19.6192ZM18.6676 18.6991C18.5849 18.6984 18.5035 18.7178 18.429 18.7574C18.2012 18.8788 18.1204 19.153 18.2497 19.3688C18.379 19.5845 18.6706 19.6608 18.8984 19.5394C19.1276 19.4167 19.2085 19.1424 19.0777 18.928C19.0159 18.8228 18.9139 18.7482 18.7915 18.7163C18.7503 18.7052 18.709 18.6994 18.6676 18.6991Z" fill="#FFFBF7"/>
<path d="M24.2467 23.5865L22.9349 23.575C22.3346 23.5698 21.7808 23.3088 21.4139 22.8616L18.4821 19.2802C18.4002 19.1802 18.42 19.0369 18.5262 18.96C18.6324 18.8831 18.7848 18.9006 18.8666 19.0019L21.7985 22.5819C22.0737 22.9183 22.4898 23.1137 22.9389 23.1177L24.2507 23.1291C24.3847 23.1303 24.4936 23.2332 24.4925 23.3592C24.4914 23.4853 24.3807 23.5876 24.2467 23.5865Z" fill="#FFFBF7"/>
<path d="M16.668 19.7693C16.6675 19.8297 16.6541 19.8886 16.6294 19.9447C16.6047 20.0008 16.5686 20.0501 16.5226 20.0927C16.4766 20.1365 16.4235 20.1683 16.3634 20.1919C16.3034 20.2142 16.2405 20.2257 16.1763 20.2251C16.1108 20.2245 16.0481 20.2119 15.9884 20.1886C15.9288 20.1639 15.8763 20.1313 15.8311 20.0866C15.7858 20.0433 15.7506 19.9934 15.7268 19.9368C15.7031 19.8803 15.6908 19.8212 15.6913 19.7608C15.6918 19.6991 15.7052 19.6416 15.7299 19.5841C15.7546 19.528 15.7907 19.4787 15.8367 19.4361C15.8827 19.3936 15.9358 19.3606 15.9959 19.3383C16.056 19.3147 16.1188 19.3045 16.1844 19.305C16.2485 19.3056 16.3112 19.3169 16.3709 19.3416C16.4305 19.3649 16.483 19.3989 16.5283 19.4422C16.5735 19.4855 16.6087 19.5354 16.6325 19.592C16.6562 19.6499 16.6685 19.7076 16.668 19.7693Z" fill="white"/>
<path d="M16.1758 20.2168C15.8992 20.2144 15.6772 20.0018 15.6795 19.7416C15.6817 19.4814 15.9075 19.2715 16.1841 19.2739C16.4593 19.2763 16.6813 19.4902 16.679 19.7504C16.6767 20.0106 16.451 20.2192 16.1758 20.2168ZM16.1839 19.2967C15.9201 19.2944 15.7059 19.4937 15.7037 19.7418C15.7016 19.9886 15.9123 20.1917 16.176 20.194C16.4384 20.1963 16.6526 19.9969 16.6548 19.7501C16.6569 19.502 16.4462 19.299 16.1839 19.2967Z" fill="#FFFBF7"/>
<path d="M19.997 25.3459L18.9632 25.3369C18.2089 25.3303 17.5211 24.9072 17.2101 24.2606L15.8964 21.5317L15.9121 19.7372C15.9132 19.6111 16.0224 19.5088 16.1579 19.5099C16.2919 19.5111 16.3994 19.6153 16.3983 19.7414L16.3835 21.434L17.6524 24.0727C17.8849 24.5576 18.4012 24.8746 18.9672 24.8796L20.001 24.8886C20.135 24.8898 20.2425 24.9926 20.2414 25.1187C20.2402 25.2461 20.131 25.3471 19.997 25.3459Z" fill="#FFFBF7"/>
<mask id="mask4_179_383" style="mask-type:luminance" maskUnits="userSpaceOnUse" x="18" y="24" width="4" height="3">
<path d="M18.9883 24.1914L21.1784 24.2105L21.1625 26.0332L18.9724 26.0141L18.9883 24.1914Z" fill="white"/>
</mask>
<g mask="url(#mask4_179_383)">
<path d="M19.9839 26.0271C19.4663 26.0226 19.0505 25.6233 19.0548 25.1364C19.059 24.6496 19.4817 24.2576 19.9993 24.2621C20.5154 24.2666 20.9326 24.6659 20.9284 25.1528C20.9241 25.6396 20.5 26.0316 19.9839 26.0271ZM19.9953 24.7194C19.7458 24.7173 19.5416 24.9059 19.5396 25.1406C19.5375 25.3754 19.7383 25.5676 19.9879 25.5698C20.236 25.5719 20.4401 25.3832 20.4421 25.1485C20.4442 24.9138 20.2434 24.7216 19.9953 24.7194Z" fill="#FFFBF7"/>
</g>
<path d="M24.3212 24.242C23.8037 24.2374 23.3865 23.8381 23.3907 23.3513C23.395 22.8644 23.8191 22.4724 24.3366 22.4769C24.8528 22.4814 25.27 22.8808 25.2657 23.3676C25.2615 23.8545 24.8374 24.2465 24.3212 24.242ZM24.3327 22.9343C24.0831 22.9321 23.879 23.1208 23.8769 23.3555C23.8749 23.5902 24.0757 23.7824 24.3252 23.7846C24.5733 23.7868 24.7775 23.5981 24.7795 23.3634C24.7816 23.1287 24.5808 22.9365 24.3327 22.9343Z" fill="#FFFBF7"/>
<path d="M26.8393 21.0284C26.3232 21.0239 25.906 20.6233 25.9103 20.1364C25.9145 19.6496 26.3372 19.2576 26.8548 19.2621C27.3709 19.2666 27.7881 19.6659 27.7838 20.1528C27.7796 20.6396 27.3555 21.033 26.8393 21.0284ZM26.8508 19.7194C26.6012 19.7173 26.3971 19.9073 26.3951 20.1406C26.393 20.3754 26.5938 20.5676 26.8433 20.5698C27.0914 20.5719 27.2956 20.3832 27.2976 20.1485C27.2997 19.9152 27.0989 19.7216 26.8508 19.7194Z" fill="#FFFBF7"/>
<mask id="mask5_179_383" style="mask-type:luminance" maskUnits="userSpaceOnUse" x="27" y="13" width="3" height="4">
<path d="M27.1172 13.9844L29.0977 14.0017L29.0767 16.4051L27.0962 16.3878L27.1172 13.9844Z" fill="white"/>
</mask>
<g mask="url(#mask5_179_383)">
<path d="M28.1597 16.0349C27.6421 16.0304 27.2263 15.6311 27.2306 15.1442C27.2348 14.6574 27.6575 14.2654 28.1751 14.2699C28.6912 14.2744 29.1084 14.6737 29.1041 15.1606C29.0999 15.6474 28.6758 16.0394 28.1597 16.0349ZM28.1711 14.7272C27.9215 14.7251 27.7174 14.9138 27.7154 15.1485C27.7133 15.3832 27.9141 15.5754 28.1637 15.5776C28.4117 15.5797 28.6159 15.391 28.6179 15.1563C28.62 14.9216 28.4192 14.7294 28.1711 14.7272Z" fill="#FFFBF7"/>
</g>
<path d="M14.1636 16.5589C14.0859 16.467 14.0141 16.3685 13.9522 16.266L14.1584 16.1659C14.2133 16.2522 14.2725 16.3359 14.3388 16.4156L14.1636 16.5589Z" fill="white"/>
<path d="M14.369 13.3089C14.4568 13.2252 14.5516 13.1469 14.652 13.0767L14.783 13.2575C14.6984 13.3185 14.6179 13.3849 14.5417 13.4553L14.369 13.3089Z" fill="white"/>
<path d="M13.6519 15.4924C13.6287 15.3755 13.614 15.2587 13.6094 15.1406L13.8418 15.1427C13.8466 15.242 13.8586 15.3427 13.8777 15.4407L13.6519 15.4924Z" fill="white"/>
<path d="M18.4974 14.4197C18.4669 14.3229 18.4292 14.2287 18.3858 14.1371L18.592 14.0369C18.6453 14.1434 18.6885 14.2551 18.7232 14.3681L18.4974 14.4197Z" fill="white"/>
<path d="M15.4289 12.703C15.5476 12.6678 15.6705 12.6394 15.7947 12.6204L15.8199 12.8392C15.7156 12.8558 15.6114 12.879 15.5098 12.909L15.4289 12.703Z" fill="white"/>
<path d="M13.708 14.3078C13.7447 14.1955 13.7898 14.0846 13.8435 13.9777L14.0494 14.0815C14.0044 14.1723 13.9651 14.2658 13.9343 14.3621L13.708 14.3078Z" fill="white"/>
<path d="M16.2083 17.4887C16.1455 17.4881 16.0828 17.4849 16.0215 17.4803L16.0505 17.262C16.1032 17.2664 16.156 17.2682 16.2102 17.2687C16.2629 17.2692 16.3171 17.2683 16.3713 17.2648L16.3965 17.4836C16.3338 17.4871 16.271 17.4879 16.2068 17.4873L16.2083 17.4887Z" fill="white"/>
<path d="M15.1627 17.2695C15.0476 17.2215 14.9369 17.1656 14.8305 17.1016L14.9646 16.923C15.0554 16.9761 15.1491 17.0239 15.2457 17.065L15.1627 17.2695Z" fill="white"/>
<path d="M18.0603 16.4591C18.128 16.3805 18.1901 16.2979 18.245 16.2125L18.4494 16.3163C18.3858 16.4176 18.3123 16.5136 18.233 16.6054L18.0603 16.4591Z" fill="white"/>
<mask id="mask6_179_383" style="mask-type:luminance" maskUnits="userSpaceOnUse" x="17" y="14" width="3" height="2">
<path d="M19.0872 14.8728L17.9922 14.8633L17.9832 15.8933L19.0782 15.9029L19.0872 14.8728Z" fill="white"/>
</mask>
<g mask="url(#mask6_179_383)">
<mask id="mask7_179_383" style="mask-type:luminance" maskUnits="userSpaceOnUse" x="18" y="14" width="1" height="2">
<path d="M18.3398 14.957L18.9387 14.9623L18.9322 15.7039L18.3334 15.6987L18.3398 14.957Z" fill="white"/>
</mask>
<g mask="url(#mask7_179_383)">
<path d="M18.4406 15.0123L18.4405 15.0177C18.4391 15.188 18.4147 15.3595 18.3705 15.5227L18.8415 15.6368C18.8946 15.4361 18.9235 15.2298 18.9253 15.0219L18.9254 15.0165L18.4406 15.0123Z" fill="white"/>
</g>
</g>
<path d="M18.552 15.4802C18.5729 15.3798 18.5866 15.278 18.5932 15.1761L18.8256 15.1781C18.8189 15.2975 18.8036 15.4167 18.7783 15.5345L18.552 15.4802Z" fill="white"/>
<mask id="mask8_179_383" style="mask-type:luminance" maskUnits="userSpaceOnUse" x="17" y="12" width="2" height="2">
<path d="M18.3841 12.865L17.2891 12.8555L17.2801 13.8855L18.3751 13.8951L18.3841 12.865Z" fill="white"/>
</mask>
<g mask="url(#mask8_179_383)">
<mask id="mask9_179_383" style="mask-type:luminance" maskUnits="userSpaceOnUse" x="17" y="12" width="2" height="2">
<path d="M17.5078 12.8086L18.3847 12.8162L18.3775 13.6411L17.5006 13.6334L17.5078 12.8086Z" fill="white"/>
</mask>
<g mask="url(#mask9_179_383)">
<path d="M17.7908 12.8696L17.5123 13.2441C17.6598 13.3419 17.7957 13.4558 17.9158 13.5843L18.2806 13.2843C18.1351 13.1274 17.9709 12.9879 17.7908 12.8696Z" fill="white"/>
</g>
</g>
<path d="M17.9198 13.4963C17.8449 13.4232 17.7656 13.3568 17.682 13.2943L17.8148 13.1144C17.914 13.1864 18.0074 13.2663 18.095 13.3516L17.9198 13.4963Z" fill="white"/>
<mask id="mask10_179_383" style="mask-type:luminance" maskUnits="userSpaceOnUse" x="16" y="12" width="2" height="2">
<path d="M17.2747 12.1424L16.1797 12.1328L16.1707 13.1629L17.2657 13.1724L17.2747 12.1424Z" fill="white"/>
</mask>
<g mask="url(#mask10_179_383)">
<mask id="mask11_179_383" style="mask-type:luminance" maskUnits="userSpaceOnUse" x="16" y="12" width="2" height="2">
<path d="M16.457 12.4297L17.2455 12.4366L17.2398 13.0964L16.4513 13.0896L16.457 12.4297Z" fill="white"/>
</mask>
<g mask="url(#mask11_179_383)">
<path d="M16.5883 12.5005L16.5273 12.9533C16.7068 12.975 16.8832 13.0168 17.0524 13.0786L17.2272 12.6523C17.0225 12.5781 16.8062 12.5265 16.5883 12.5005Z" fill="white"/>
</g>
</g>
<path d="M16.9411 12.9213C16.8402 12.8896 16.7363 12.8645 16.6309 12.8475L16.6599 12.6291C16.7838 12.6503 16.9062 12.6796 17.0256 12.7168L16.9411 12.9213Z" fill="white"/>
<path d="M17.1628 17.0887C17.2616 17.0493 17.3561 17.0032 17.4478 16.9517L17.5788 17.1326C17.4714 17.1947 17.3597 17.2487 17.2438 17.2946L17.1628 17.0887Z" fill="white"/>
<mask id="mask12_179_383" style="mask-type:luminance" maskUnits="userSpaceOnUse" x="1" y="0" width="8" height="8">
<path d="M1.13672 0.335938L8.48982 0.400107L8.42994 7.26171L1.07684 7.19754L1.13672 0.335938Z" fill="white"/>
</mask>
<g mask="url(#mask12_179_383)">
<path d="M8.30498 0.502701L8.24732 7.10948L1.22359 7.04818L8.30498 0.502701Z" fill="white"/>
</g>
<path d="M42.8487 19.7952L43.8354 19.8038C45.6063 19.8193 46.9015 18.6221 46.916 16.9563L46.9478 13.319C46.9623 11.6532 45.6882 10.4335 43.9173 10.4181L42.9306 10.4095C41.1597 10.394 39.8645 11.5912 39.8499 13.257L39.8182 16.8944C39.8036 18.5601 41.0778 19.7798 42.8487 19.7952ZM43.3549 17.6764C42.9057 17.6724 42.5465 17.3286 42.5503 16.8941L42.5816 13.305C42.5854 12.8704 42.9506 12.5329 43.3997 12.5369C43.8603 12.5409 44.2194 12.8847 44.2157 13.3193L44.1843 16.9083C44.1805 17.3429 43.8154 17.6804 43.3549 17.6764Z" fill="#5271FF"/>
<path d="M48.7966 19.854L49.8574 19.8632C50.3308 19.8674 50.696 19.5299 50.6998 19.0846L50.7178 17.0312C50.7214 16.6087 51.0866 16.2726 51.5357 16.2765L55.6265 16.3122C56.087 16.3162 56.465 15.9788 56.469 15.5215L56.4736 14.993C56.4776 14.5357 56.1184 14.1918 55.645 14.1877L51.5543 14.152C51.1051 14.1481 50.7459 13.8056 50.7496 13.3831C50.7534 12.9486 51.1185 12.6111 51.5677 12.615L56.1575 12.655C56.6309 12.6592 56.996 12.323 56.9999 11.8764L57.0047 11.3252C57.0086 10.8799 56.6494 10.536 56.176 10.5319L48.8785 10.4682C48.4051 10.4641 48.04 10.8016 48.0361 11.2469L47.9679 19.0607C47.964 19.506 48.3232 19.8499 48.7966 19.854Z" fill="#5271FF"/>
<path d="M58.781 19.9555L59.8418 19.9648C60.3152 19.9689 60.6803 19.6314 60.6842 19.1861L60.7021 17.1328C60.7058 16.7103 61.071 16.3741 61.5201 16.378L65.6109 16.4137C66.0714 16.4178 66.4494 16.0804 66.4534 15.623L66.458 15.0946C66.462 14.6372 66.1028 14.2934 65.6294 14.2893L61.5386 14.2536C61.0895 14.2497 60.7303 13.9072 60.734 13.4847C60.7378 13.0501 61.1029 12.7126 61.552 12.7165L66.1419 12.7566C66.6152 12.7607 66.9804 12.4246 66.9843 11.9779L66.9891 11.4267C66.993 10.9814 66.6338 10.6376 66.1604 10.6335L58.8629 10.5698C58.3895 10.5657 58.0244 10.9032 58.0205 11.3484L57.9523 19.1623C57.9484 19.6076 58.3076 19.9514 58.781 19.9555Z" fill="#5271FF"/>
<path d="M68.7615 20.0415L69.8223 20.0507C70.2957 20.0549 70.6608 19.7174 70.6647 19.2721L70.7329 11.4582C70.7368 11.0129 70.3776 10.6691 69.9042 10.665L68.8434 10.6557C68.37 10.6516 68.0048 10.9891 68.001 11.4344L67.9328 19.2482C67.9289 19.6935 68.2881 20.0374 68.7615 20.0415Z" fill="#5271FF"/>
<path d="M74.7198 20.1116L79.7972 20.1559C80.2706 20.1601 80.6357 19.8226 80.6396 19.3773L80.6444 18.8261C80.6483 18.3794 80.2891 18.037 79.8157 18.0328L75.2259 17.9928C74.7768 17.9888 74.4176 17.645 74.4214 17.2105L74.4527 13.6214C74.4565 13.1869 74.8217 12.8493 75.2708 12.8533L79.8606 12.8933C80.3211 12.8973 80.699 12.572 80.7029 12.1267L80.7078 11.5634C80.7117 11.1182 80.3525 10.7743 79.8791 10.7702L74.8017 10.7259C73.0308 10.7104 71.7355 11.9076 71.721 13.5734L71.6893 17.2108C71.6747 18.8765 72.9489 20.0962 74.7198 20.1116Z" fill="#5271FF"/>
<path d="M82.531 20.1626L89.8399 20.2264C90.3147 20.2305 90.6798 19.893 90.6837 19.4477L90.6885 18.8965C90.6924 18.4499 90.3332 18.1074 89.8584 18.1032L85.2572 18.0631C84.8081 18.0592 84.4489 17.7153 84.4527 17.2808C84.4563 16.8583 84.8216 16.5101 85.2707 16.514L89.3743 16.5498C89.8349 16.5538 90.2128 16.2164 90.2168 15.7591L90.2209 15.2897C90.2248 14.8444 89.8656 14.5005 89.3922 14.4964L85.2886 14.4606C84.8395 14.4567 84.4803 14.1142 84.484 13.6917C84.4878 13.2572 84.8529 12.9197 85.302 12.9236L89.9033 12.9637C90.3781 12.9679 90.7432 12.6317 90.7471 12.1851L90.7519 11.6339C90.7558 11.1886 90.3966 10.8448 89.9218 10.8406L82.6129 10.7768C82.1395 10.7727 81.7744 11.1102 81.7705 11.5555L81.7023 19.3693C81.6984 19.8146 82.0576 20.1584 82.531 20.1626Z" fill="#5271FF"/>
<path d="M96.6755 20.2563L97.7363 20.2656C98.2097 20.2697 98.5749 19.9322 98.5788 19.4869L98.5972 17.3745C98.601 16.9413 98.9661 16.6038 99.4152 16.6077C99.8758 16.6118 100.235 16.9663 100.231 17.3888L100.213 19.5012C100.209 19.9465 100.568 20.2903 101.041 20.2944L102.102 20.3037C102.576 20.3078 102.941 19.9703 102.945 19.525L102.957 18.094C102.96 17.8123 102.899 17.5999 102.738 17.3637L101.852 16.0187C101.667 15.7354 101.67 15.4779 101.859 15.1979L102.769 13.8685C102.933 13.6353 102.998 13.4239 103 13.1422L103.013 11.7112C103.017 11.2659 102.658 10.9221 102.184 10.9179L101.123 10.9087C100.65 10.9045 100.285 11.242 100.281 11.6873L100.263 13.7997C100.259 14.2222 99.8937 14.5584 99.4332 14.5544C98.984 14.5504 98.6248 14.2079 98.6285 13.7855L98.6469 11.6731C98.6508 11.2278 98.2916 10.884 97.8183 10.8798L96.7574 10.8706C96.284 10.8664 95.9189 11.2039 95.915 11.6492L95.8468 19.4631C95.8429 19.9084 96.2021 20.2522 96.6755 20.2563Z" fill="#5271FF"/>
<path d="M104.816 20.3384L105.877 20.3476C106.35 20.3517 106.715 20.0142 106.719 19.569L106.788 11.7551C106.791 11.3098 106.432 10.966 105.959 10.9619L104.898 10.9526C104.425 10.9485 104.06 11.286 104.056 11.7313L103.987 19.5451C103.984 19.9904 104.343 20.3342 104.816 20.3384Z" fill="#5271FF"/>
<path d="M111.29 20.3899L112.388 20.3995C112.924 20.4042 113.213 20.1491 113.217 19.6435L113.267 13.9072C113.271 13.4847 113.649 13.1473 114.098 13.1512L115.208 13.1609C115.744 13.1656 116.033 12.8985 116.037 12.3942L116.042 11.8188C116.046 11.3145 115.762 11.0425 115.226 11.0378L108.629 10.9681C108.08 10.9633 107.802 11.2305 107.798 11.7362L107.793 12.3223C107.788 12.8266 108.074 13.0986 108.61 13.1033L109.707 13.1129C110.169 13.1169 110.541 13.4609 110.537 13.8833L110.487 19.6089C110.483 20.1132 110.754 20.3852 111.29 20.3899Z" fill="#5271FF"/>
</svg>
