<svg width="116" height="31" viewBox="0 0 116 31" fill="none" xmlns="http://www.w3.org/2000/svg">
<mask id="mask0_179_604" style="mask-type:luminance" maskUnits="userSpaceOnUse" x="0" y="0" width="33" height="31">
<path d="M0.527344 0.164062L32.2502 0.440904L31.9898 30.2808L0.266935 30.0039L0.527344 0.164062Z" fill="white"/>
</mask>
<g mask="url(#mask0_179_604)">
<mask id="mask1_179_604" style="mask-type:luminance" maskUnits="userSpaceOnUse" x="0" y="0" width="33" height="31">
<path d="M7.09026 0.237029L25.6717 0.399187C29.3007 0.430857 32.2183 3.22363 32.1885 6.63724L32.0359 24.1157C32.0061 27.5293 29.0403 30.2707 25.4113 30.2391L6.82985 30.0769C3.20084 30.0452 0.283271 27.2525 0.313061 23.8389L0.465593 6.36039C0.495383 2.94679 3.46124 0.205359 7.09026 0.237029Z" fill="white"/>
</mask>
<g mask="url(#mask1_179_604)">
<path d="M0.519531 0.179688L32.2424 0.456529L31.982 30.2964L0.259123 30.0196L0.519531 0.179688Z" fill="white"/>
</g>
</g>
<path d="M19.431 24C19.4044 23.9421 19.4321 23.8739 19.4936 23.8503C19.5551 23.8254 19.6262 23.8515 19.6528 23.9094C19.6794 23.9673 19.6517 24.0355 19.5902 24.0604C19.5744 24.067 19.5573 24.0695 19.5416 24.0694C19.4945 24.069 19.4506 24.0431 19.431 24Z" fill="#5271FF"/>
<path d="M20.3108 23.5998C20.2785 23.5446 20.3005 23.475 20.3592 23.4447C20.4179 23.4143 20.4919 23.4351 20.5242 23.4917C20.5551 23.547 20.5345 23.6166 20.4758 23.6469C20.4572 23.6561 20.4357 23.66 20.4158 23.6598C20.373 23.6594 20.3319 23.6376 20.3108 23.5998Z" fill="#5271FF"/>
<path d="M21.1607 23.1437C21.1227 23.091 21.1376 23.0201 21.1935 22.9857C21.2494 22.95 21.3249 22.964 21.3615 23.0167C21.3995 23.0693 21.3846 23.1403 21.3287 23.176C21.3072 23.1892 21.2829 23.1944 21.2601 23.1942C21.2216 23.1938 21.1833 23.1761 21.1607 23.1437Z" fill="#5271FF"/>
<path d="M21.9392 22.6171C21.8983 22.5671 21.9061 22.4961 21.9577 22.4563C22.0108 22.4165 22.0864 22.4239 22.1287 22.4739C22.1711 22.5225 22.1633 22.5949 22.1102 22.6346C22.0872 22.6519 22.0601 22.6597 22.033 22.6595C21.9987 22.6592 21.9632 22.6441 21.9392 22.6171Z" fill="#5271FF"/>
<path d="M22.682 22.0193C22.6354 21.9733 22.636 21.9009 22.6834 21.8571C22.7323 21.8132 22.8093 21.8152 22.856 21.8599C22.9026 21.9059 22.902 21.9783 22.8531 22.0222C22.8301 22.0434 22.7987 22.0539 22.7673 22.0536C22.7359 22.0533 22.7046 22.0423 22.682 22.0193Z" fill="#5271FF"/>
<path d="M23.357 21.3539C23.3074 21.3133 23.3009 21.2408 23.3441 21.1929C23.3888 21.145 23.4658 21.1403 23.5154 21.1809C23.5663 21.2216 23.5728 21.2941 23.5282 21.342C23.5037 21.3686 23.4708 21.3818 23.4352 21.3814C23.4081 21.3812 23.3796 21.3729 23.357 21.3539Z" fill="#5271FF"/>
<path d="M23.9526 20.6257C23.8973 20.589 23.8851 20.5179 23.9241 20.4659C23.963 20.4152 24.0387 20.4038 24.0925 20.4405C24.1478 20.4772 24.16 20.5484 24.1211 20.599C24.0966 20.631 24.0594 20.6481 24.0209 20.6478C23.9966 20.6476 23.9724 20.6407 23.9526 20.6257Z" fill="#5271FF"/>
<path d="M24.4931 19.8857C24.4349 19.8544 24.4156 19.7831 24.4488 19.7297C24.4821 19.675 24.5564 19.6569 24.6146 19.6883C24.6728 19.721 24.6921 19.7909 24.6589 19.8456C24.6357 19.8816 24.5942 19.9027 24.5529 19.9023C24.5329 19.9022 24.5115 19.8966 24.4931 19.8857Z" fill="#5271FF"/>
<path d="M24.9515 19.0713C24.8905 19.0439 24.8654 18.9753 24.893 18.9179C24.922 18.8618 24.9935 18.8369 25.0546 18.863C25.1157 18.8903 25.1407 18.9589 25.1131 19.0164C25.0928 19.0578 25.0484 19.0815 25.0028 19.0811C24.9857 19.081 24.9686 19.0782 24.9515 19.0713Z" fill="#5271FF"/>
<path d="M25.3255 18.2501C25.2616 18.2295 25.2293 18.1634 25.2527 18.1033C25.2746 18.0445 25.3447 18.0142 25.4073 18.0349C25.4698 18.0569 25.5035 18.1229 25.4801 18.1817C25.4626 18.2285 25.4153 18.2576 25.3654 18.2572C25.3526 18.2571 25.3383 18.2556 25.3255 18.2501Z" fill="#5271FF"/>
<path d="M25.6515 17.3751C25.5875 17.3584 25.5481 17.2964 25.5657 17.2348C25.5819 17.1746 25.6478 17.1376 25.7133 17.153C25.7773 17.1696 25.8167 17.2317 25.8005 17.2932C25.7858 17.3454 25.7356 17.3785 25.6814 17.378C25.6714 17.3779 25.6614 17.3778 25.6515 17.3751Z" fill="#5271FF"/>
<path d="M25.8468 16.4818C25.7798 16.4718 25.7361 16.4137 25.7467 16.3508C25.7572 16.2878 25.8203 16.2455 25.8858 16.2568C25.9527 16.2667 25.9978 16.3262 25.9859 16.3878C25.9768 16.444 25.9252 16.4838 25.8653 16.4833C25.8596 16.4832 25.8539 16.4832 25.8468 16.4818Z" fill="#5271FF"/>
<path d="M25.9703 15.5731C25.9033 15.5685 25.8539 15.5131 25.8587 15.4501C25.8635 15.3871 25.921 15.3393 25.988 15.3453C26.0549 15.3499 26.1058 15.404 26.101 15.467C26.0962 15.5273 26.0416 15.5738 25.9788 15.5732C25.976 15.5732 25.9731 15.5732 25.9703 15.5731Z" fill="#5271FF"/>
<path d="M25.8936 14.5581C25.8913 14.4951 25.9445 14.4432 26.0116 14.4425C26.0786 14.4417 26.1338 14.4918 26.1361 14.5549C26.1369 14.6179 26.0837 14.6698 26.0167 14.6705L26.0124 14.6705C25.9468 14.6699 25.8931 14.6212 25.8936 14.5581Z" fill="#5271FF"/>
<path d="M25.8202 13.6398C25.8122 13.5767 25.8611 13.5208 25.9268 13.5133C25.9939 13.5072 26.0548 13.5533 26.0614 13.6151C26.068 13.6782 26.0204 13.7354 25.9533 13.7416C25.949 13.7415 25.9433 13.7428 25.9391 13.7428C25.8777 13.7422 25.8268 13.6975 25.8202 13.6398Z" fill="#5271FF"/>
<path d="M25.689 12.7513C25.6753 12.6895 25.7186 12.6282 25.7843 12.6167C25.85 12.6039 25.9138 12.6447 25.9276 12.7065C25.9399 12.7683 25.898 12.8283 25.8323 12.8411C25.8237 12.8424 25.8151 12.8437 25.8066 12.8436C25.751 12.8431 25.7 12.8051 25.689 12.7513Z" fill="#5271FF"/>
<path d="M25.4457 11.8701C25.4262 11.8096 25.4624 11.7455 25.5268 11.7286C25.5911 11.7104 25.6592 11.7445 25.6772 11.805C25.6967 11.8656 25.6605 11.9296 25.5961 11.9479C25.5847 11.9504 25.5719 11.9517 25.5605 11.9516C25.5091 11.9511 25.4609 11.9198 25.4457 11.8701Z" fill="#5271FF"/>
<path d="M25.1367 11.0131C25.1116 10.9552 25.1421 10.8884 25.2036 10.8648C25.2666 10.8412 25.3376 10.87 25.3628 10.9292C25.3865 10.9871 25.3574 11.0539 25.2945 11.0775C25.2802 11.0827 25.2644 11.0853 25.2488 11.0851C25.2003 11.0847 25.1563 11.0588 25.1367 11.0131Z" fill="#5271FF"/>
<path d="M24.7509 10.198C24.72 10.1427 24.7434 10.0732 24.8036 10.0442C24.8623 10.0165 24.9362 10.0386 24.9657 10.0952C24.9966 10.1505 24.9732 10.22 24.913 10.249C24.8958 10.2569 24.8773 10.2608 24.8573 10.2606C24.8131 10.2602 24.7719 10.2384 24.7509 10.198Z" fill="#5271FF"/>
<path d="M24.2759 9.39962C24.2393 9.34565 24.257 9.27472 24.3144 9.24169C24.3703 9.2073 24.4457 9.22405 24.4809 9.27667C24.5175 9.33064 24.4998 9.40158 24.4439 9.43462C24.4238 9.44652 24.4009 9.45303 24.3781 9.45283C24.3382 9.45248 24.2984 9.43335 24.2759 9.39962Z" fill="#5271FF"/>
<path d="M23.7198 8.66569C23.6789 8.61571 23.6881 8.54336 23.7412 8.50492C23.7957 8.4665 23.8712 8.47655 23.9121 8.52654C23.953 8.57652 23.9424 8.64886 23.8893 8.68729C23.8664 8.70319 23.8406 8.71101 23.815 8.71079C23.7779 8.71046 23.7424 8.69406 23.7184 8.66568L23.7198 8.66569Z" fill="#5271FF"/>
<path d="M23.109 7.97049C23.0637 7.92315 23.0672 7.85075 23.1161 7.80826C23.1664 7.76578 23.2419 7.76912 23.2886 7.81513C23.3338 7.86113 23.3303 7.93353 23.2814 7.97736C23.257 7.99727 23.227 8.00774 23.197 8.00748C23.1657 8.0072 23.133 7.99485 23.109 7.97049Z" fill="#5271FF"/>
<path d="M22.4187 7.34492C22.3677 7.30289 22.3641 7.23043 22.4101 7.18389C22.4548 7.13599 22.5318 7.13264 22.5813 7.17599C22.6309 7.218 22.6345 7.29047 22.5899 7.33702C22.5654 7.36229 22.5325 7.37542 22.4983 7.37512C22.4698 7.37487 22.4413 7.36524 22.4173 7.34491L22.4187 7.34492Z" fill="#5271FF"/>
<path d="M21.6805 6.76917C21.6266 6.73114 21.6159 6.65862 21.6562 6.608C21.6966 6.55872 21.7737 6.54867 21.8275 6.58669C21.88 6.62471 21.8908 6.69589 21.8504 6.74651C21.8259 6.7758 21.7901 6.79159 21.753 6.79126C21.7274 6.79104 21.7018 6.78411 21.6805 6.76917Z" fill="#5271FF"/>
<path d="M20.9004 6.24078C20.8437 6.20675 20.8257 6.13685 20.8604 6.08216C20.8966 6.02882 20.9709 6.01203 21.0276 6.04606C21.0843 6.07875 21.1023 6.14999 21.0676 6.20334C21.0445 6.23801 21.0044 6.25778 20.963 6.25742C20.9416 6.25724 20.9203 6.25169 20.9004 6.24078Z" fill="#5271FF"/>
<path d="M20.0344 5.79963C19.9747 5.77094 19.9511 5.70233 19.9801 5.64624C20.0105 5.59017 20.0835 5.56667 20.1431 5.59536C20.2028 5.62404 20.2278 5.69133 20.1974 5.74874C20.1757 5.78879 20.1327 5.81256 20.0885 5.81217C20.0699 5.81201 20.0514 5.80782 20.0344 5.79963Z" fill="#5271FF"/>
<path d="M19.166 5.42086C19.1034 5.39885 19.0726 5.33152 19.0974 5.27272C19.1222 5.21392 19.1923 5.18502 19.2548 5.20837C19.3174 5.23172 19.3481 5.29771 19.3234 5.35651C19.3045 5.40195 19.2586 5.42972 19.2087 5.42928C19.1944 5.42916 19.1802 5.42635 19.166 5.42086Z" fill="#5271FF"/>
<path d="M18.2509 5.14709C18.1869 5.1291 18.1489 5.06572 18.168 5.00553C18.1871 4.944 18.2544 4.90971 18.3184 4.92771C18.3824 4.94436 18.4204 5.00773 18.4013 5.06927C18.3852 5.11876 18.3364 5.15186 18.2837 5.1514C18.2722 5.1513 18.2623 5.14987 18.2509 5.14709Z" fill="#5271FF"/>
<path d="M13.3387 4.56846C12.6717 4.56264 12.1005 4.95737 11.893 5.51251C11.5638 5.35108 11.188 5.25853 10.7898 5.25505C9.50049 5.2438 8.44015 6.17255 8.36228 7.35371C7.13956 7.45363 6.1768 8.40189 6.16665 9.56499C6.16582 9.66091 6.17074 9.75555 6.18286 9.84893C5.15721 10.0985 4.39644 10.9619 4.38743 11.9944C4.38338 12.458 4.53198 12.8897 4.78759 13.249L4.89398 13.2473C3.7114 13.6886 2.87119 14.7606 2.8602 16.0196C2.84782 17.4385 3.89246 18.6374 5.30976 18.9722C4.99168 19.3479 4.79923 19.8218 4.79473 20.3374C4.78393 21.5751 5.85465 22.5865 7.18708 22.5981C7.57661 22.6015 7.94388 22.5194 8.27004 22.3717C8.73409 22.894 9.43552 23.2306 10.2218 23.2375C10.3827 23.2389 10.5395 23.2269 10.6921 23.2016C10.9758 23.9635 11.7502 24.5126 12.6672 24.5206C12.9 24.5226 13.1318 24.49 13.3523 24.4213C13.5181 24.3695 13.7279 24.2034 13.8921 24.3354C13.972 24.3987 14.0158 24.4937 14.0798 24.5716C14.2433 24.7728 14.5287 24.8526 14.7986 24.8923C15.1503 24.946 15.5182 24.9519 15.8584 24.8496C16.1971 24.7486 16.5066 24.5248 16.6401 24.2182C16.69 24.1027 16.7141 23.979 16.7711 23.8662C16.9862 23.4311 17.5368 23.4252 17.9734 23.3118C18.3581 23.2112 18.7372 23.0919 19.1092 22.9553C19.7971 22.7001 20.4583 22.3808 21.0711 21.9931C21.6378 21.6343 22.1618 21.2178 22.6287 20.7489C23.0725 20.3024 23.4635 19.8102 23.7915 19.2841C24.1122 18.7686 24.3729 18.2219 24.5704 17.656C24.7665 17.0941 24.9024 16.5131 24.9765 15.9261C25.0506 15.3378 25.0645 14.7424 25.0208 14.1518C24.9756 13.5598 24.8715 12.9699 24.7126 12.3956C24.5524 11.8186 24.3345 11.2545 24.0632 10.7151C23.7891 10.1731 23.4615 9.65463 23.082 9.17032C22.6981 8.68197 22.2636 8.22916 21.7813 7.82257C21.289 7.40523 20.7474 7.03809 20.1708 6.72794C19.5942 6.41912 18.9253 6.14414 18.2615 5.95048C18.0019 5.87493 17.7395 5.80869 17.4754 5.75309C17.2502 5.70582 17.0721 5.68961 16.9155 5.51103C16.8258 5.40766 16.7608 5.28851 16.6769 5.18118C16.3798 4.79353 15.8427 4.57699 15.3347 4.63784C15.1477 4.66019 14.9689 4.71726 14.7888 4.76632C14.6476 4.80506 14.4139 4.89629 14.2662 4.85902C14.2031 4.84382 14.1418 4.78199 14.0817 4.75082C14.0087 4.71288 13.9299 4.68021 13.8511 4.65288C13.6863 4.59814 13.5126 4.56865 13.3387 4.56713L13.3387 4.56846Z" fill="white"/>
<path d="M19.4006 14.7546C19.399 14.9437 19.383 15.1341 19.3515 15.3216C19.2025 16.2189 18.7061 17.0489 17.9737 17.6394C17.6104 17.9327 17.1934 18.1637 16.7457 18.3195C16.6227 18.3626 15.3473 18.6023 15.3561 18.5649C15.4201 18.2583 15.4855 17.953 15.5495 17.6478C14.9033 17.6783 14.1973 17.6923 13.6829 17.3216C13.3556 17.0854 12.9011 16.7112 12.7489 16.3504C12.4667 15.68 12.331 15.0497 12.3973 14.3153C12.4366 13.8918 12.5881 13.5296 12.7214 13.123C12.8547 12.7164 13.2119 12.4714 13.5763 12.221C14.1057 11.8568 14.6402 11.5476 15.2951 11.5117C15.3091 11.3697 15.3218 11.229 15.3373 11.0869C15.3513 10.9462 15.3245 10.9151 15.4589 10.8801C15.6246 10.8373 15.9106 10.9149 16.0772 10.9445C17.9935 11.2831 19.4166 12.9185 19.4006 14.7546Z" fill="#5271FF"/>
<path d="M4.89284 13.5167C4.81689 13.516 4.74124 13.4802 4.69538 13.4159C4.40911 13.0143 4.25986 12.5474 4.26408 12.0636C4.2757 10.7321 5.4512 9.65861 6.8859 9.67113C8.3192 9.68364 9.47719 10.7775 9.46557 12.109C9.46177 12.5445 9.33146 12.9699 9.08909 13.3407C9.02065 13.4458 8.87266 13.4784 8.75928 13.4148C8.6473 13.3512 8.61052 13.214 8.67895 13.1089C8.87711 12.8081 8.98284 12.4595 8.98593 12.1048C8.99541 11.0185 8.05088 10.126 6.88202 10.1158C5.71176 10.1056 4.7532 10.9815 4.74372 12.0678C4.74028 12.4616 4.86074 12.8435 5.0956 13.1716C5.16786 13.2739 5.13852 13.4119 5.02821 13.4788C4.98579 13.5045 4.93926 13.5171 4.89425 13.5167L4.89284 13.5167Z" fill="#5271FF"/>
<mask id="mask2_179_604" style="mask-type:luminance" maskUnits="userSpaceOnUse" x="2" y="12" width="8" height="8">
<path d="M2.76172 12.707L9.08535 12.7622L9.02543 19.6292L2.70179 19.574L2.76172 12.707Z" fill="white"/>
</mask>
<g mask="url(#mask2_179_604)">
<path d="M6.16742 19.4611C4.25535 19.4444 2.71396 17.9662 2.72968 16.165C2.73646 15.3884 3.03675 14.6386 3.57517 14.0531C4.10924 13.4756 4.84269 13.0904 5.64085 12.9699C5.77364 12.9496 5.89838 13.0352 5.9201 13.1601C5.9404 13.285 5.85097 13.4023 5.71819 13.4213C4.28036 13.6381 3.22647 14.7945 3.21447 16.1692C3.20095 17.7183 4.52741 18.9894 6.17141 19.0037C7.05401 19.0114 7.8899 18.6525 8.46438 18.0191C8.55078 17.9233 8.70487 17.9125 8.80682 17.9952C8.90878 18.0766 8.92035 18.2216 8.83395 18.3174C8.16589 19.0533 7.19403 19.47 6.16742 19.4611Z" fill="#5271FF"/>
</g>
<path d="M6.19727 10.1823C6.07867 10.1813 5.97509 10.0971 5.95895 9.98094C5.94142 9.86067 5.93391 9.73912 5.93497 9.61764C5.94713 8.22408 7.14159 7.10018 8.59763 7.11289C9.3378 7.11935 10.0454 7.42446 10.5395 7.9502C10.6301 8.04654 10.6217 8.19253 10.5223 8.27902C10.4215 8.3655 10.2687 8.35734 10.1781 8.26236C9.77457 7.83296 9.19657 7.58358 8.59357 7.57832C7.40616 7.56796 6.43072 8.48492 6.4208 9.62188C6.41993 9.72152 6.4262 9.82122 6.44107 9.91826C6.45854 10.0454 6.36606 10.1633 6.23159 10.1799C6.22013 10.1825 6.2087 10.1824 6.19727 10.1823Z" fill="#5271FF"/>
<path d="M7.36337 23.0691C5.90252 23.0563 4.72376 21.9331 4.73569 20.5657C4.74061 20.0019 4.9533 19.4519 5.33417 19.016C5.41961 18.9189 5.57315 18.9042 5.67711 18.9841C5.78108 19.0641 5.79702 19.2088 5.71158 19.3059C5.39589 19.6661 5.2272 20.1026 5.22312 20.57C5.21338 21.6855 6.17602 22.602 7.36736 22.6124C8.31928 22.6207 9.17749 22.0322 9.45444 21.1828C9.49277 21.0626 9.62957 20.9941 9.75828 21.0314C9.88843 21.0687 9.96044 21.1952 9.92067 21.3168C9.75716 21.8176 9.41918 22.266 8.96768 22.5808C8.50176 22.9049 7.94686 23.0742 7.36337 23.0691Z" fill="#5271FF"/>
<path d="M9.47385 16.3881C8.34856 16.3783 7.39914 15.5902 7.26542 14.5553C7.24983 14.4359 7.34226 14.3264 7.47266 14.3122C7.60168 14.2979 7.71872 14.3849 7.73431 14.5043C7.83945 15.3209 8.58935 15.943 9.47767 15.9508C10.0556 15.9558 10.5997 15.699 10.9347 15.2633C11.0104 15.1652 11.1575 15.1421 11.2636 15.2123C11.3698 15.2824 11.3949 15.4199 11.3192 15.518C10.8944 16.0696 10.2042 16.3945 9.47385 16.3881Z" fill="#5271FF"/>
<path d="M11.6702 13.8353C11.5519 13.8342 11.452 13.742 11.4421 13.6202C11.3508 12.5414 10.4802 11.7214 9.41472 11.7122C9.2868 11.711 9.18431 11.6036 9.18545 11.4735C9.18658 11.3434 9.29092 11.2392 9.41883 11.2403C10.0489 11.2458 10.6496 11.4891 11.1112 11.9262C11.5688 12.3592 11.8508 12.947 11.9038 13.5799C11.915 13.7087 11.82 13.8241 11.692 13.8354C11.6852 13.8354 11.6784 13.8353 11.6702 13.8353Z" fill="#5271FF"/>
<path d="M11.6002 18.7334C10.9769 18.728 10.3824 18.4844 9.92671 18.0463C9.475 17.6124 9.19797 17.0243 9.14705 16.3927C9.13743 16.2631 9.23113 16.1496 9.35618 16.1396C9.48258 16.1283 9.59326 16.2244 9.60288 16.354C9.68885 17.4338 10.5497 18.253 11.6044 18.2622C11.6151 18.2623 11.6245 18.2623 11.6353 18.2624C11.7616 18.2622 11.8641 18.3664 11.8657 18.496C11.8659 18.6269 11.7642 18.7321 11.6379 18.7324C11.6258 18.7323 11.6137 18.7322 11.6003 18.732L11.6002 18.7334Z" fill="white"/>
<path d="M8.3639 7.60457C8.35822 7.60452 8.35254 7.60447 8.34687 7.60442C8.21351 7.5938 8.11509 7.48349 8.12471 7.35657C8.22981 6.05092 9.38862 5.0382 10.7628 5.05019C11.6998 5.05837 12.5686 5.54832 13.0289 6.3279C13.0947 6.43792 13.0537 6.57808 12.9381 6.64058C12.8212 6.70306 12.6739 6.66394 12.6081 6.55392C12.2318 5.91695 11.524 5.51758 10.7588 5.5109C9.63729 5.50112 8.69306 6.32789 8.60711 7.39186C8.59753 7.51338 8.49025 7.60567 8.3639 7.60457Z" fill="#5271FF"/>
<path d="M6.47016 13.2851C6.3854 13.2843 6.30489 13.226 6.27331 13.1301C6.20526 12.9297 6.1722 12.7185 6.17409 12.5019C6.17952 11.8788 6.48246 11.3048 6.96502 11.0024C7.06779 10.9385 7.19707 10.9805 7.2534 11.0963C7.31098 11.2121 7.27355 11.3581 7.17078 11.4219C6.82233 11.6411 6.60306 12.0555 6.59913 12.5056C6.59777 12.6617 6.62136 12.8152 6.66996 12.9591C6.71126 13.0832 6.65645 13.222 6.54634 13.2689C6.52132 13.2799 6.49509 13.2853 6.46892 13.2851L6.47016 13.2851Z" fill="#5271FF"/>
<path d="M6.43848 17.6583C6.4232 17.6582 6.40654 17.6567 6.3913 17.6526C5.60509 17.4904 5.04007 16.8139 5.04678 16.0441C5.04757 15.9538 5.05669 15.8637 5.07275 15.7749C5.09465 15.653 5.21761 15.5704 5.34661 15.5915C5.47422 15.6138 5.56072 15.73 5.5388 15.8533C5.52713 15.9182 5.521 15.9832 5.52043 16.0482C5.51558 16.6043 5.92388 17.0937 6.48962 17.2101C6.61858 17.2365 6.69949 17.3566 6.67202 17.4798C6.64748 17.5858 6.54821 17.6593 6.43848 17.6583Z" fill="#5271FF"/>
<path d="M12.7292 19.7044C12.6608 19.7038 12.5926 19.6763 12.5445 19.6236C12.4584 19.5263 12.4711 19.3815 12.5745 19.3006C12.8573 19.0764 13.0213 18.7479 13.0244 18.4005C13.0284 17.9405 12.7582 17.5263 12.3208 17.3227C12.2001 17.2666 12.1514 17.1294 12.2108 17.0159C12.2703 16.9024 12.4161 16.8567 12.5368 16.9128C13.1333 17.1916 13.516 17.7771 13.5106 18.4047C13.5064 18.8862 13.2785 19.3403 12.8865 19.6507C12.8406 19.6879 12.7848 19.7048 12.7292 19.7044Z" fill="#5271FF"/>
<path d="M12.5751 10.265C12.4525 10.2639 12.3477 10.1758 12.3359 10.0576C12.3228 9.93279 12.4193 9.82096 12.5534 9.80738C12.836 9.78168 13.091 9.64173 13.2527 9.42316C13.4662 9.1353 13.4866 8.76394 13.3039 8.45653C13.2392 8.34598 13.2804 8.20684 13.3979 8.14482C13.5153 8.08281 13.6633 8.12299 13.7279 8.23355C13.9977 8.68926 13.9671 9.25905 13.6511 9.68551C13.4072 10.0147 13.0246 10.2246 12.6008 10.2638C12.5922 10.2638 12.5837 10.265 12.5751 10.265Z" fill="#5271FF"/>
<path d="M11.0237 14.4221C11.1012 14.3347 11.2459 14.3092 11.3597 14.3663C11.481 14.4274 11.5205 14.5617 11.4489 14.6645C11.2965 14.8827 11.2642 15.1466 11.3614 15.3861C11.488 15.705 11.811 15.9286 12.2017 15.9703C12.343 15.9856 12.4429 16.095 12.4253 16.2135C12.4077 16.3333 12.2791 16.4177 12.1393 16.4025C11.5591 16.34 11.0642 15.9961 10.8757 15.5261C10.7314 15.1649 10.78 14.7697 11.0085 14.4411C11.0131 14.4348 11.0177 14.4284 11.0237 14.4221Z" fill="#5271FF"/>
<path d="M8.59127 20.294C8.56096 20.1734 8.62479 20.0463 8.74207 20.0024C8.86651 19.9542 9.00707 20.0192 9.053 20.1472C9.15185 20.4178 9.36098 20.6299 9.62668 20.7294C9.97763 20.8616 10.3632 20.7794 10.6321 20.5134C10.7299 20.4186 10.8824 20.4213 10.9756 20.5208C11.0689 20.6187 11.0661 20.7753 10.9697 20.8702C10.5714 21.2612 9.97874 21.388 9.45868 21.1949C9.05942 21.045 8.74573 20.7261 8.59817 20.3202C8.5954 20.3115 8.59262 20.3027 8.58985 20.294L8.59127 20.294Z" fill="#5271FF"/>
<path d="M6.67513 15.0737C6.54814 15.0726 6.4384 14.978 6.42456 14.8511C6.41079 14.7169 6.51344 14.5968 6.65401 14.5836C6.94862 14.5545 7.21589 14.4041 7.38678 14.1693C7.61062 13.86 7.63203 13.461 7.44067 13.1308C7.37148 13.0121 7.41611 12.8626 7.53922 12.796C7.66083 12.7293 7.81584 12.7724 7.88503 12.8912C8.16764 13.3807 8.13541 13.9928 7.80269 14.451C7.54709 14.8047 7.14618 15.0303 6.70353 15.0725C6.69457 15.0725 6.68559 15.0738 6.67663 15.0737L6.67513 15.0737Z" fill="#5271FF"/>
<path d="M12.9211 22.0896C12.8479 22.089 12.7749 22.0554 12.7276 21.992C12.651 21.8872 12.6762 21.7421 12.7839 21.6663C13.107 21.4403 13.3018 21.0747 13.3052 20.6882C13.311 20.0168 12.7567 19.4665 12.068 19.4605C11.8398 19.4585 11.6153 19.5182 11.4214 19.6302C11.3067 19.6964 11.1591 19.6609 11.0925 19.5493C11.0245 19.4377 11.0623 19.2955 11.1756 19.2293C11.446 19.0727 11.7566 18.9904 12.072 18.9932C13.0255 19.0015 13.7935 19.7633 13.7854 20.6924C13.7808 21.2282 13.5101 21.7343 13.0623 22.047C13.0198 22.0768 12.9704 22.0914 12.9211 22.091L12.9211 22.0896Z" fill="#5271FF"/>
<path d="M11.9077 12.0483C11.8345 12.0477 11.7615 12.0169 11.7155 11.9586C11.6375 11.8624 11.6626 11.7282 11.7702 11.66C12.0932 11.4529 12.2891 11.1178 12.2922 10.7622C12.2975 10.1476 11.7414 9.64258 11.0541 9.63658C10.8245 9.63458 10.6015 9.68793 10.4062 9.7918C10.2916 9.85238 10.1454 9.81843 10.0773 9.71729C10.0092 9.61489 10.0469 9.48326 10.1601 9.42266C10.4304 9.27923 10.7409 9.20528 11.0578 9.20804C12.0099 9.21635 12.7785 9.91556 12.771 10.7663C12.7667 11.2577 12.4965 11.7229 12.0489 12.0081C12.0064 12.0353 11.957 12.0487 11.9077 12.0483Z" fill="#5271FF"/>
<path d="M14.1253 9.21762C14.0326 9.21681 13.94 9.20661 13.8475 9.18703C13.7165 9.1604 13.6335 9.03761 13.663 8.91447C13.6912 8.79132 13.8202 8.71331 13.9512 8.74128C14.2544 8.80428 14.5703 8.70912 14.7761 8.49229C14.9301 8.33133 15.0075 8.1241 14.9951 7.90805C14.9827 7.69333 14.8818 7.49393 14.712 7.34893C14.4855 7.15783 14.1638 7.09198 13.8735 7.18066C13.7449 7.21978 13.6085 7.15286 13.5682 7.03313C13.5265 6.91205 13.5961 6.78389 13.7248 6.74478C14.178 6.60789 14.6819 6.70887 15.0358 7.00972C15.3033 7.23606 15.4603 7.54727 15.4802 7.88411C15.4986 8.22228 15.3774 8.54716 15.1371 8.79857C14.878 9.07128 14.506 9.22094 14.1253 9.21762Z" fill="#5271FF"/>
<path d="M14.9192 6.31063C14.7852 6.30946 14.6777 6.20659 14.6788 6.07917C14.6845 5.43405 14.0961 4.88435 13.3931 4.87821C12.8456 4.87344 12.3593 5.19915 12.1854 5.68855C12.143 5.80756 12.0041 5.87207 11.8775 5.83207C11.751 5.79207 11.6822 5.6627 11.7246 5.54235C11.9658 4.86442 12.6385 4.41424 13.3971 4.42086C13.8648 4.42494 14.3082 4.59916 14.6434 4.91193C14.9829 5.22741 15.1689 5.64484 15.165 6.08342C15.1639 6.20949 15.0532 6.3118 14.9192 6.31063Z" fill="#5271FF"/>
<path d="M16.7726 5.65699C16.6828 5.6562 16.5948 5.60715 16.5542 5.52498C16.3455 5.09662 15.8845 4.81629 15.3811 4.81189C15.0746 4.80922 14.7771 4.91259 14.5444 5.10102C14.4439 5.1833 14.29 5.17257 14.2024 5.07792C14.1148 4.98192 14.1261 4.83716 14.2266 4.75487C14.5483 4.49344 14.9602 4.35083 15.3851 4.35454C16.0752 4.36057 16.7064 4.74432 16.9951 5.33299C17.0511 5.44749 16.9986 5.58385 16.8769 5.63644C16.8426 5.65089 16.8083 5.6573 16.7726 5.65699Z" fill="#5271FF"/>
<path d="M10.2728 23.5931C9.54125 23.5867 8.85839 23.3397 8.35175 22.898C8.25794 22.8148 8.26053 22.684 8.36011 22.6061C8.45825 22.5271 8.61529 22.5308 8.70911 22.6128C9.12337 22.9738 9.68011 23.1749 10.2764 23.1801C10.4262 23.1814 10.5761 23.1706 10.7202 23.1476C10.8542 23.1258 10.9845 23.1984 11.0112 23.3101C11.0378 23.423 10.9511 23.5312 10.8171 23.5531C10.6394 23.5818 10.456 23.5959 10.2728 23.5943L10.2728 23.5931Z" fill="#5271FF"/>
<path d="M12.7735 24.9077C11.4878 24.8965 10.4488 23.896 10.4594 22.6767C10.4607 22.5297 10.4777 22.3828 10.5088 22.2401C10.537 22.1163 10.666 22.0365 10.7969 22.0619C10.9278 22.0887 11.0123 22.2108 10.9841 22.3346C10.9603 22.4477 10.9465 22.5636 10.9455 22.681C10.9371 23.6467 11.7598 24.4389 12.779 24.4478C13.7967 24.4566 14.6203 23.6788 14.6287 22.7131C14.6299 22.585 14.7391 22.4834 14.8731 22.4846C15.0071 22.4857 15.1145 22.5892 15.1134 22.7173C15.1082 23.3081 14.8639 23.8603 14.4241 24.2733C13.9829 24.6876 13.3979 24.9131 12.7749 24.9077L12.7735 24.9077Z" fill="#5271FF"/>
<path d="M15.2619 25.3489C14.6374 25.3434 14.041 25.0539 13.6687 24.5758C13.5883 24.4732 13.6124 24.3298 13.72 24.2557C13.8276 24.1815 13.98 24.2029 14.0589 24.3056C14.3424 24.6675 14.794 24.8861 15.2659 24.8902C15.8291 24.8951 16.345 24.6072 16.6129 24.1374C16.6766 24.0253 16.8238 23.9836 16.9417 24.0437C17.0595 24.1037 17.1039 24.2423 17.0402 24.3544C16.6869 24.9737 16.0048 25.354 15.2619 25.3475L15.2619 25.3489Z" fill="#5271FF"/>
<path d="M15.3048 17.9165C14.3694 17.9083 13.5013 17.5507 12.8581 16.9106C12.7662 16.8186 12.7703 16.6738 12.868 16.5875C12.9657 16.5011 13.1197 16.5052 13.2116 16.5972C13.7615 17.1465 14.5074 17.4522 15.3073 17.4591C16.9171 17.4732 18.2368 16.2507 18.25 14.7351C18.2633 13.2182 16.9651 11.9729 15.3553 11.9589C14.3872 11.9504 13.4807 12.3945 12.9294 13.1449C12.8529 13.2488 12.7016 13.2743 12.591 13.2036C12.4818 13.1316 12.4531 12.9878 12.5296 12.8852C13.1732 12.0096 14.2315 11.4917 15.3593 11.5015C17.2372 11.5179 18.7517 12.9703 18.7363 14.7394C18.7208 16.5071 17.1812 17.9329 15.3033 17.9165L15.3048 17.9165Z" fill="#5271FF"/>
<path d="M15.3058 16.597C14.1951 16.5873 13.2985 15.7291 13.3077 14.683C13.3168 13.6368 14.2282 12.793 15.3389 12.8027C16.4483 12.8124 17.3448 13.672 17.3357 14.7181C17.3265 15.7643 16.4151 16.6067 15.3058 16.597ZM15.3349 13.2601C14.4923 13.2527 13.8008 13.8932 13.7939 14.6872C13.7869 15.4812 14.4671 16.1323 15.3098 16.1397C16.1511 16.147 16.8425 15.5079 16.8495 14.7139C16.8564 13.9199 16.1762 13.2674 15.3349 13.2601Z" fill="#5271FF"/>
<path d="M16.4091 14.7165C16.4079 14.8506 16.3783 14.9805 16.323 15.1047C16.2677 15.229 16.1883 15.3383 16.0863 15.4326C15.9842 15.527 15.8666 15.5997 15.7336 15.6495C15.6005 15.7007 15.4634 15.725 15.3208 15.7237C15.1768 15.7225 15.0402 15.6958 14.908 15.6423C14.7759 15.5902 14.6596 15.5154 14.5592 15.4193C14.4588 15.3232 14.3813 15.2125 14.3282 15.0873C14.2751 14.9621 14.2478 14.8318 14.2489 14.6977C14.2501 14.5622 14.2798 14.4324 14.335 14.3081C14.3903 14.1852 14.4697 14.0759 14.5718 13.9802C14.6738 13.8859 14.7914 13.8145 14.9244 13.7633C15.0575 13.7135 15.1946 13.6879 15.3386 13.6891C15.4812 13.6904 15.6178 13.7184 15.75 13.7705C15.8821 13.824 15.9984 13.8974 16.0988 13.9935C16.1992 14.091 16.2767 14.2016 16.3298 14.3255C16.3829 14.4507 16.4103 14.5811 16.4091 14.7165Z" fill="white"/>
<path d="M15.2599 21.3873C15.1259 21.3862 15.017 21.2833 15.0181 21.1572C15.0192 21.0311 15.1285 20.9288 15.2639 20.93C18.9084 20.9618 21.8985 18.1939 21.9285 14.7589C21.9585 11.324 19.0171 8.50301 15.3726 8.47121C15.2386 8.47004 15.1297 8.36715 15.1308 8.24107C15.1319 8.11365 15.2412 8.01266 15.3766 8.01385C17.2716 8.03038 19.0478 8.74204 20.3771 10.0158C21.7064 11.291 22.4303 12.9767 22.4147 14.7632C22.3991 16.5484 21.6459 18.2212 20.2946 19.4729C18.9432 20.7247 17.1549 21.4039 15.2599 21.3873Z" fill="#5271FF"/>
<path d="M16.0951 20.4754C16.0856 20.4123 16.1303 20.355 16.1974 20.3462C16.2631 20.3374 16.3255 20.3809 16.3349 20.4427C16.3443 20.5058 16.2982 20.5631 16.2311 20.5719C16.2254 20.5732 16.2197 20.5731 16.214 20.5731C16.1541 20.5725 16.1031 20.5319 16.0951 20.4754ZM17.0449 20.2933C17.0255 20.2327 17.0603 20.1687 17.1246 20.1504C17.1889 20.1309 17.2571 20.165 17.2765 20.2255C17.2959 20.2861 17.2612 20.3502 17.1968 20.3684C17.184 20.3723 17.1725 20.3735 17.1597 20.3734C17.1084 20.373 17.0616 20.3417 17.0449 20.2933ZM17.9532 19.9712C17.9223 19.9146 17.9472 19.8464 18.0073 19.8188C18.0674 19.7912 18.14 19.8133 18.1708 19.8712C18.2003 19.9278 18.1754 19.996 18.1153 20.0236C18.0981 20.0315 18.0796 20.0354 18.0596 20.0352C18.0168 20.0348 17.9742 20.0117 17.9532 19.9712ZM18.7942 19.5198C18.7561 19.4685 18.7696 19.3976 18.8241 19.3605C18.8786 19.3248 18.9541 19.3361 18.9935 19.3875C19.0316 19.4401 19.0181 19.5111 18.9636 19.5468C18.9421 19.5614 18.9178 19.5679 18.8936 19.5677C18.8551 19.5673 18.8181 19.5509 18.7942 19.5198ZM19.5521 18.9497C19.5054 18.9037 19.506 18.8313 19.5535 18.7874C19.6023 18.7436 19.6793 18.7442 19.726 18.7903C19.7727 18.8349 19.772 18.9074 19.7232 18.9512C19.7001 18.9738 19.6687 18.9843 19.6373 18.984C19.6059 18.9837 19.5747 18.9727 19.5521 18.9497ZM20.2053 18.274C20.1515 18.2373 20.1407 18.1648 20.1811 18.1142C20.22 18.0636 20.2971 18.0535 20.351 18.0915C20.4048 18.1296 20.4156 18.2007 20.3752 18.2514C20.3507 18.282 20.3135 18.2978 20.2764 18.2974C20.2522 18.2972 20.2266 18.2903 20.2053 18.274ZM20.7382 17.5114C20.6785 17.4814 20.6563 17.4128 20.6882 17.3568C20.7186 17.3007 20.793 17.2799 20.8512 17.3085C20.9108 17.3386 20.9344 17.4072 20.9026 17.4632C20.8808 17.5033 20.8379 17.5244 20.7937 17.524C20.7751 17.5238 20.7566 17.5196 20.7382 17.5114ZM21.1376 16.6779C21.075 16.6586 21.0414 16.5939 21.0618 16.5338C21.0838 16.4736 21.1525 16.442 21.2165 16.4613C21.279 16.482 21.3141 16.5467 21.2922 16.6069C21.2747 16.655 21.2274 16.6854 21.176 16.685C21.1632 16.6849 21.1504 16.6821 21.1376 16.6779ZM21.3934 15.7976C21.3265 15.7863 21.2828 15.7269 21.2933 15.6653C21.3052 15.6037 21.3669 15.5613 21.4339 15.5713C21.4994 15.5826 21.5445 15.642 21.5325 15.7036C21.5235 15.7598 21.4718 15.7996 21.4119 15.7991C21.4062 15.7991 21.3991 15.7977 21.3934 15.7976ZM21.4983 14.8891C21.4313 14.8885 21.3775 14.8357 21.3781 14.7727C21.3786 14.7097 21.4333 14.6592 21.5003 14.6598C21.5673 14.6604 21.621 14.7131 21.6205 14.7762C21.6199 14.8392 21.5653 14.8897 21.4983 14.8891ZM21.3146 13.8788C21.3051 13.8171 21.3499 13.7584 21.417 13.7496C21.4826 13.7408 21.545 13.7829 21.5544 13.8461C21.5639 13.9078 21.5177 13.9665 21.4521 13.9753C21.4463 13.9766 21.4392 13.9765 21.4335 13.9765C21.3751 13.9759 21.3227 13.9353 21.3146 13.8788ZM21.1026 13.0051C21.0832 12.946 21.118 12.8819 21.1823 12.8623C21.2466 12.8441 21.3148 12.8769 21.3342 12.9374C21.3551 12.998 21.3189 13.062 21.2545 13.0802C21.2431 13.0842 21.2302 13.0867 21.2174 13.0866C21.1661 13.0862 21.1193 13.0549 21.1026 13.0051ZM20.7477 12.1745C20.7182 12.1179 20.7431 12.0497 20.8018 12.0207C20.8619 11.993 20.9359 12.0165 20.9653 12.0731C20.9948 12.1297 20.9699 12.1979 20.9112 12.2255C20.8926 12.2347 20.874 12.2386 20.8555 12.2384C20.8113 12.2381 20.7687 12.2149 20.7477 12.1745ZM20.2581 11.4056C20.2201 11.3543 20.2321 11.2834 20.2866 11.2463C20.3411 11.2105 20.418 11.2219 20.4561 11.2732C20.4956 11.3246 20.4821 11.3969 20.4276 11.4326C20.4061 11.4472 20.3818 11.455 20.3575 11.4548C20.319 11.4545 20.2821 11.438 20.2581 11.4056ZM19.6481 10.7189C19.6015 10.6743 19.6021 10.6018 19.6495 10.5567C19.697 10.5128 19.774 10.5135 19.8206 10.5595C19.8687 10.6042 19.8681 10.6766 19.8192 10.7204C19.7962 10.743 19.7648 10.7535 19.7334 10.7532C19.702 10.7529 19.6722 10.7419 19.6481 10.7189ZM18.9317 10.1292C18.8779 10.0912 18.8657 10.02 18.906 9.96938C18.9464 9.91876 19.0221 9.90869 19.0759 9.94672C19.1298 9.9834 19.1406 10.0559 19.1016 10.1066C19.0771 10.1372 19.0399 10.153 19.0028 10.1526C18.9772 10.1524 18.953 10.1442 18.9317 10.1292ZM18.126 9.65273C18.0663 9.62404 18.0427 9.55409 18.0731 9.49936C18.105 9.4433 18.1779 9.42113 18.2375 9.44982C18.2972 9.47985 18.3194 9.54845 18.2889 9.60452C18.2672 9.64457 18.2242 9.667 18.18 9.66661C18.1615 9.66645 18.143 9.66227 18.126 9.65273ZM17.2506 9.30171C17.1866 9.28104 17.1516 9.21635 17.1735 9.15752C17.1939 9.09734 17.2627 9.06441 17.3267 9.08509C17.3907 9.10442 17.4243 9.1691 17.4038 9.22928C17.3863 9.27741 17.339 9.30785 17.2877 9.3074C17.2748 9.30729 17.262 9.30584 17.2506 9.30171ZM16.3271 9.08441C16.2616 9.07445 16.2165 9.01504 16.2284 8.95344C16.2389 8.89049 16.3006 8.84811 16.3675 8.85942C16.4331 8.86939 16.4782 8.9288 16.4676 8.99041C16.4572 9.04665 16.4055 9.08644 16.347 9.08593C16.3399 9.08586 16.3342 9.08581 16.3271 9.08441ZM15.2607 8.89135C15.2613 8.82831 15.3159 8.77782 15.3829 8.7784C15.4499 8.77899 15.5037 8.83042 15.5031 8.89346C15.5026 8.9565 15.4479 9.00699 15.3809 9.00641C15.3139 9.00582 15.2602 8.95438 15.2607 8.89135Z" fill="white"/>
<path d="M15.7105 22.2506C15.5822 22.2495 15.4761 22.1533 15.47 22.0326C15.464 21.9064 15.5676 21.7987 15.7017 21.7931C19.6888 21.6173 22.8385 18.5302 22.8714 14.7654C22.9043 10.9992 19.8004 7.84677 15.804 7.61204C15.6701 7.60416 15.5683 7.49597 15.5766 7.36995C15.5848 7.24394 15.6997 7.14702 15.8337 7.1549C20.088 7.4053 23.3927 10.7499 23.3576 14.7696C23.3225 18.788 19.9701 22.0638 15.7233 22.2507C15.7191 22.2507 15.7148 22.2506 15.7105 22.2506Z" fill="#5271FF"/>
<path d="M16.5824 6.77201C16.4856 6.75909 16.3873 6.74617 16.289 6.73592L16.3429 6.28169C16.4454 6.29331 16.5509 6.30496 16.652 6.31926L16.5824 6.77201Z" fill="#5271FF"/>
<path d="M17.1918 23.0187L17.093 22.5712C17.2859 22.534 17.4788 22.4887 17.6689 22.4394L17.8005 22.8791C17.6004 22.9324 17.3946 22.9789 17.1918 23.0187ZM18.3981 22.6993L18.2336 22.2686C18.4181 22.2058 18.6041 22.1364 18.7844 22.0615L18.9804 22.4804C18.79 22.5592 18.594 22.6326 18.3981 22.6993ZM19.5444 22.2237L19.3184 21.8194C19.4917 21.7324 19.6651 21.6386 19.8327 21.5408L20.0889 21.9307C19.9111 22.0338 19.7278 22.1328 19.5444 22.2237ZM20.6094 21.6013L20.326 21.2299C20.4852 21.1213 20.6431 21.0074 20.7953 20.888L21.1059 21.2394C20.9451 21.3655 20.7786 21.4874 20.6094 21.6013ZM21.5742 20.8465L21.2377 20.5163C21.38 20.3874 21.5195 20.2532 21.6519 20.1162L22.0114 20.4238C21.8718 20.5688 21.7237 20.711 21.5728 20.8465L21.5742 20.8465ZM22.4174 19.9726L22.0363 19.689C22.1588 19.5438 22.277 19.392 22.3882 19.2387L22.7895 19.497C22.6711 19.6583 22.5471 19.8195 22.4174 19.9726ZM23.1247 18.997L22.7046 18.7666C22.8044 18.6052 22.8999 18.4397 22.9869 18.2742L23.4215 18.4765C23.3301 18.6527 23.2302 18.8276 23.1247 18.997ZM23.68 17.9382L23.231 17.7639C23.3052 17.5916 23.3752 17.4151 23.4366 17.2386L23.8988 17.3821C23.833 17.5693 23.7601 17.7565 23.68 17.9382ZM24.0734 16.8149L23.6024 16.7022C23.651 16.5229 23.694 16.3382 23.7284 16.156L24.2068 16.2367C24.1695 16.4308 24.125 16.6249 24.0734 16.8149ZM24.296 15.6527L23.8131 15.6028C23.8346 15.4179 23.8491 15.2303 23.8564 15.0439L24.3425 15.0629C24.3337 15.26 24.3177 15.4584 24.296 15.6527ZM23.8599 14.4846C23.8544 14.2995 23.8418 14.1116 23.822 13.9263L24.3058 13.8822C24.3255 14.0769 24.3394 14.2755 24.3448 14.4727L23.8599 14.4846ZM23.7427 13.3717C23.7101 13.189 23.6703 13.0049 23.6234 12.8247L24.0963 12.7175C24.1446 12.9084 24.1871 13.1033 24.2225 13.2967L23.7441 13.3717L23.7427 13.3717ZM23.4627 12.2855C23.4029 12.1092 23.336 11.9316 23.2634 11.7593L23.7155 11.5902C23.7923 11.7733 23.8634 11.9603 23.9259 12.1473L23.4627 12.2855ZM23.0255 11.2475C22.9399 11.0804 22.8473 10.9133 22.7489 10.7528L23.1701 10.5258C23.2741 10.6971 23.3724 10.8723 23.4621 11.0501L23.0255 11.2475ZM22.4364 10.2766C22.328 10.1215 22.211 9.96887 22.0911 9.82162L22.4742 9.54195C22.6026 9.69732 22.7253 9.85935 22.8408 10.0226L22.4364 10.2766ZM21.7112 9.39044C21.5798 9.25248 21.4427 9.11581 21.3012 8.98581L21.6406 8.65882C21.7906 8.79694 21.9362 8.94039 22.0746 9.08779L21.7112 9.39178L21.7112 9.39044ZM20.8625 8.60777C20.7124 8.48842 20.5566 8.37037 20.3978 8.26034L20.6862 7.89266C20.8535 8.00947 21.0192 8.13298 21.1778 8.26044L20.8625 8.60777ZM19.9072 7.94354C19.7412 7.84418 19.5695 7.74879 19.3963 7.66009L19.6266 7.25838C19.8097 7.35118 19.9928 7.45204 20.1687 7.55819L19.9086 7.94355L19.9072 7.94354ZM18.8638 7.40999C18.6848 7.33332 18.5 7.26196 18.3152 7.19731L18.4829 6.76822C18.6791 6.83699 18.8738 6.91246 19.0642 6.9946L18.8638 7.40999ZM17.7507 7.01935C17.5615 6.96807 17.3679 6.92078 17.1758 6.88155L17.2795 6.43446C17.483 6.47648 17.688 6.52521 17.8871 6.5806L17.7507 7.01935Z" fill="#5271FF"/>
<path d="M16.2463 23.1462L16.1989 22.6898C16.296 22.6812 16.3945 22.67 16.4915 22.6588L16.556 23.1114C16.4547 23.1239 16.3505 23.1364 16.2463 23.1449L16.2463 23.1462Z" fill="#5271FF"/>
<path d="M16.6243 24.0181C16.5059 24.0171 16.4025 23.9343 16.3864 23.8202C16.369 23.6953 16.4612 23.5794 16.5954 23.5631C21.242 22.9826 24.7771 19.2067 24.8157 14.782C24.8543 10.3572 21.3772 6.50939 16.73 5.85584C16.5961 5.83723 16.5045 5.71973 16.5241 5.59516C16.5437 5.47058 16.6671 5.38447 16.801 5.40308C19.158 5.73484 21.3185 6.85897 22.8821 8.57076C24.4613 10.2974 25.3204 12.5047 25.3005 14.7862C25.2806 17.0677 24.386 19.253 22.7812 20.9519C21.1923 22.6335 19.0167 23.7224 16.6585 24.0171C16.6471 24.0183 16.6357 24.0195 16.6242 24.0194L16.6243 24.0181Z" fill="#5271FF"/>
<path d="M18.4375 14.4062L19.909 14.4191L19.9035 15.0454L18.432 15.0326L18.4375 14.4062Z" fill="#5271FF"/>
<path d="M21.2558 14.7547C21.2548 14.8687 21.2296 14.9785 21.183 15.0841C21.1351 15.1896 21.0687 15.2829 20.981 15.3626C20.8947 15.4424 20.7958 15.5045 20.6828 15.5478C20.5697 15.5898 20.4526 15.6115 20.3314 15.6105C20.2102 15.6094 20.0935 15.5856 19.9812 15.5417C19.869 15.4965 19.7697 15.4325 19.6849 15.3513C19.6 15.2701 19.5338 15.1756 19.4891 15.0693C19.443 14.9629 19.4212 14.8527 19.4221 14.7387C19.4232 14.6234 19.4469 14.5136 19.4949 14.4081C19.5415 14.3025 19.6093 14.2106 19.6955 14.1295C19.7818 14.0498 19.8822 13.9876 19.9952 13.9457C20.1082 13.9024 20.2253 13.8819 20.3465 13.883C20.4677 13.8841 20.5844 13.9065 20.6967 13.9518C20.809 13.9957 20.9068 14.0596 20.9916 14.1408C21.0779 14.2234 21.1427 14.3165 21.1888 14.4229C21.2335 14.5292 21.2568 14.6394 21.2558 14.7547Z" fill="#5271FF"/>
<path d="M17.8729 12.9981L19.1536 12.3158L19.4825 12.8606L18.2018 13.5428L17.8729 12.9981Z" fill="#5271FF"/>
<path d="M20.5995 12.3993C20.5985 12.5133 20.5748 12.6231 20.5268 12.7286C20.4802 12.8342 20.4124 12.9275 20.3262 13.0072C20.2399 13.0869 20.1395 13.1491 20.0265 13.1923C19.9149 13.2343 19.7964 13.2561 19.6752 13.255C19.554 13.2539 19.4373 13.2301 19.325 13.1862C19.2127 13.141 19.1149 13.0771 19.0301 12.9959C18.9438 12.9146 18.879 12.8202 18.8329 12.7138C18.7882 12.6075 18.7649 12.4973 18.7659 12.3833C18.7669 12.2679 18.7921 12.1582 18.8387 12.0526C18.8866 11.9471 18.953 11.8551 19.0407 11.774C19.127 11.6943 19.2259 11.6321 19.3389 11.5902C19.452 11.5469 19.5691 11.5265 19.6903 11.5275C19.8115 11.5286 19.9296 11.5511 20.0404 11.5963C20.1527 11.6402 20.252 11.7041 20.3368 11.7853C20.4217 11.8679 20.4879 11.961 20.5326 12.0674C20.5787 12.1737 20.6005 12.2839 20.5995 12.3993Z" fill="#5271FF"/>
<path d="M16.6419 12.0558L17.3881 10.8619L17.9614 11.1794L17.2152 12.3747L16.6419 12.0558Z" fill="#5271FF"/>
<path d="M18.7988 10.6649C18.7978 10.7789 18.7726 10.8887 18.726 10.9942C18.678 11.0998 18.6116 11.1931 18.5239 11.2728C18.4377 11.3539 18.3373 11.4147 18.2257 11.458C18.1127 11.5012 17.9956 11.5217 17.8744 11.5206C17.7518 11.5196 17.635 11.4971 17.5242 11.4518C17.412 11.4066 17.3127 11.344 17.2279 11.2615C17.143 11.1803 17.0768 11.0858 17.0321 10.9794C16.986 10.8731 16.9641 10.7629 16.9651 10.6489C16.9661 10.5349 16.9899 10.4238 17.0379 10.3182C17.0844 10.214 17.1523 10.1207 17.2385 10.041C17.3248 9.95992 17.4251 9.89909 17.5381 9.85582C17.6497 9.81253 17.7669 9.79209 17.8895 9.79316C18.0107 9.79421 18.1274 9.81669 18.2397 9.86194C18.3505 9.90717 18.4498 9.96973 18.5346 10.0523C18.6209 10.1335 18.6856 10.228 18.7318 10.333C18.7765 10.4394 18.7998 10.5509 18.7988 10.6649Z" fill="#5271FF"/>
<path d="M15.0543 11.8009L15.0664 10.4141L15.7323 10.4199L15.7202 11.8067L15.0543 11.8009Z" fill="#5271FF"/>
<path d="M16.33 10.0204C16.329 10.1357 16.3052 10.2455 16.2573 10.351C16.2107 10.4566 16.1429 10.5485 16.0566 10.6296C15.9704 10.7093 15.87 10.7715 15.757 10.8134C15.6454 10.8567 15.5283 10.8772 15.4057 10.8761C15.2845 10.875 15.1677 10.8526 15.0555 10.8073C14.9432 10.7634 14.8454 10.6995 14.7605 10.6183C14.6743 10.5357 14.6095 10.4426 14.5633 10.3362C14.5186 10.2299 14.4954 10.1197 14.4964 10.0044C14.4974 9.89036 14.5226 9.78059 14.5691 9.67503C14.6171 9.56949 14.6835 9.47618 14.7712 9.39646C14.8574 9.31674 14.9564 9.25456 15.0694 9.21128C15.1824 9.16935 15.2995 9.14757 15.4207 9.14863C15.5433 9.1497 15.6601 9.17352 15.7709 9.21741C15.8832 9.26265 15.9824 9.32656 16.0673 9.40778C16.1521 9.48899 16.2183 9.58346 16.263 9.68982C16.3091 9.79618 16.331 9.90636 16.33 10.0204Z" fill="#5271FF"/>
<path d="M18.1852 15.9013L19.4539 16.6059L19.1155 17.1462L17.8468 16.4416L18.1852 15.9013Z" fill="#5271FF"/>
<path d="M20.5605 17.0985C20.5595 17.2125 20.5357 17.3223 20.4877 17.4278C20.4412 17.5334 20.3733 17.6267 20.2871 17.7064C20.2008 17.7875 20.1005 17.8483 19.9875 17.8916C19.8758 17.9349 19.7573 17.9553 19.6361 17.9542C19.5149 17.9532 19.3982 17.9307 19.2859 17.8854C19.1737 17.8402 19.0758 17.7776 18.991 17.6951C18.9047 17.6139 18.84 17.5194 18.7938 17.413C18.7491 17.3067 18.7258 17.1965 18.7268 17.0825C18.7278 16.9685 18.753 16.8574 18.7996 16.7518C18.8476 16.6476 18.914 16.5543 19.0016 16.4746C19.0879 16.3935 19.1868 16.3327 19.2999 16.2894C19.4129 16.2461 19.53 16.2257 19.6512 16.2268C19.7724 16.2278 19.8906 16.2503 20.0014 16.2955C20.1136 16.3408 20.2129 16.4033 20.2977 16.4859C20.3826 16.5671 20.4488 16.6616 20.4935 16.7666C20.5396 16.873 20.5615 16.9845 20.5605 17.0985Z" fill="#5271FF"/>
<path d="M17.1776 17.0792L17.9029 18.286L17.3241 18.5949L16.5988 17.3867L17.1776 17.0792Z" fill="#5271FF"/>
<path d="M18.7324 18.7977C18.7314 18.9117 18.7062 19.0215 18.6596 19.127C18.6116 19.2326 18.5452 19.3259 18.4575 19.4056C18.3713 19.4853 18.2709 19.5475 18.1593 19.5908C18.0463 19.6327 17.9292 19.6545 17.808 19.6534C17.6854 19.6524 17.5687 19.6286 17.4578 19.5847C17.3456 19.5394 17.2463 19.4755 17.1614 19.3943C17.0766 19.3131 17.0104 19.2186 16.9657 19.1123C16.9196 19.0059 16.8977 18.8957 16.8987 18.7817C16.8997 18.6664 16.9235 18.5566 16.9715 18.451C17.018 18.3455 17.0858 18.2535 17.1721 18.1725C17.2584 18.0927 17.3587 18.0306 17.4717 17.9886C17.5833 17.9453 17.7004 17.9249 17.8231 17.926C17.9443 17.927 18.061 17.9495 18.1733 17.9947C18.2841 18.0386 18.3834 18.1025 18.4682 18.1838C18.5545 18.2663 18.6192 18.3595 18.6654 18.4658C18.7101 18.5722 18.7334 18.6824 18.7324 18.7977Z" fill="#5271FF"/>
<path d="M15.6684 17.5995L15.6562 18.9864L14.9918 18.9806L15.0039 17.5938L15.6684 17.5995Z" fill="#5271FF"/>
<path d="M16.2519 19.4071C16.2509 19.5211 16.2271 19.6322 16.1791 19.7377C16.1326 19.842 16.0648 19.9353 15.9785 20.015C15.8922 20.0961 15.7919 20.1569 15.6789 20.2002C15.5673 20.2434 15.4501 20.2639 15.3275 20.2628C15.2063 20.2618 15.0896 20.2393 14.9773 20.194C14.8651 20.1488 14.7672 20.0862 14.6824 20.0037C14.5961 19.9224 14.5314 19.828 14.4852 19.723C14.4405 19.6166 14.4172 19.5051 14.4182 19.3911C14.4192 19.2771 14.4444 19.1673 14.491 19.0618C14.539 18.9562 14.6054 18.8629 14.6931 18.7832C14.7793 18.7021 14.8782 18.6413 14.9913 18.598C15.1043 18.5547 15.2214 18.5343 15.3426 18.5353C15.4652 18.5364 15.582 18.5589 15.6928 18.6041C15.805 18.6494 15.9043 18.7119 15.9891 18.7945C16.074 18.8757 16.1402 18.9702 16.1849 19.0765C16.231 19.1829 16.2529 19.2931 16.2519 19.4071Z" fill="#5271FF"/>
<path d="M20.8243 14.7381C20.8237 14.7984 20.8118 14.8574 20.7856 14.9135C20.7609 14.9696 20.7248 15.0189 20.6788 15.0614C20.6328 15.1039 20.5798 15.137 20.5197 15.1606C20.4596 15.1829 20.3968 15.1944 20.3326 15.1939C20.267 15.1933 20.2058 15.1807 20.1461 15.1574C20.0864 15.1327 20.034 15.0987 19.9887 15.0554C19.9435 15.0121 19.9083 14.9621 19.8831 14.9056C19.8593 14.849 19.847 14.7899 19.8475 14.7296C19.8481 14.6679 19.8614 14.609 19.8862 14.5528C19.9123 14.4967 19.9484 14.4474 19.9944 14.4049C20.0404 14.3624 20.0935 14.3293 20.1535 14.307C20.2136 14.2834 20.275 14.2732 20.3406 14.2738C20.4048 14.2744 20.4674 14.2856 20.5271 14.3103C20.5868 14.3336 20.6393 14.3676 20.6845 14.4109C20.7298 14.4542 20.765 14.5042 20.7887 14.5607C20.8139 14.6173 20.8248 14.6764 20.8243 14.7381Z" fill="#5271FF"/>
<path d="M20.3399 15.2168C20.0633 15.2144 19.8413 15.0018 19.8435 14.7416C19.8458 14.4814 20.0715 14.2715 20.3481 14.2739C20.6233 14.2763 20.8468 14.4902 20.8445 14.7504C20.8422 15.0106 20.6151 15.2192 20.3399 15.2168ZM20.3479 14.2967C20.0856 14.2944 19.8699 14.4937 19.8678 14.7418C19.8656 14.9886 20.0777 15.1917 20.3401 15.194C20.6025 15.1963 20.8181 14.9969 20.8202 14.7502C20.8224 14.502 20.6103 14.299 20.3479 14.2967Z" fill="#5271FF"/>
<path d="M27.2899 15.0278L20.3517 14.9673C20.2177 14.9661 20.1102 14.8632 20.1113 14.7372C20.1124 14.6097 20.2216 14.5088 20.3557 14.5099L27.2938 14.5705C27.4279 14.5716 27.5354 14.6745 27.5342 14.8019C27.5331 14.928 27.4239 15.029 27.2899 15.0278Z" fill="#5271FF"/>
<path d="M20.1758 12.3865C20.1753 12.4482 20.1619 12.5071 20.1372 12.5632C20.1125 12.6194 20.0764 12.6687 20.0304 12.7112C19.9844 12.7537 19.9313 12.7868 19.8713 12.8091C19.8112 12.8327 19.7483 12.8429 19.6842 12.8423C19.6186 12.8417 19.5574 12.8305 19.4977 12.8058C19.438 12.7825 19.3855 12.7485 19.3389 12.7052C19.2936 12.6618 19.2598 12.6119 19.2346 12.5554C19.2109 12.4988 19.1986 12.4397 19.1991 12.378C19.1996 12.3176 19.213 12.2587 19.2377 12.2026C19.2639 12.1465 19.2985 12.0972 19.3445 12.0547C19.392 12.0122 19.445 11.9791 19.5051 11.9555C19.5652 11.9332 19.6266 11.9217 19.6922 11.9222C19.7564 11.9228 19.819 11.9354 19.8787 11.9587C19.9383 11.9834 19.9908 12.0174 20.0361 12.0607C20.0813 12.104 20.1165 12.154 20.1403 12.2105C20.164 12.267 20.1763 12.3262 20.1758 12.3865Z" fill="#5271FF"/>
<path d="M19.6954 12.8463C19.5229 12.8448 19.3554 12.7588 19.264 12.6065C19.1277 12.38 19.2129 12.0923 19.4522 11.9643C19.5696 11.9023 19.7038 11.886 19.8333 11.9207C19.9613 11.954 20.069 12.0327 20.1351 12.1419C20.27 12.3685 20.1862 12.6575 19.9455 12.7855C19.8667 12.8277 19.781 12.8471 19.6954 12.8463ZM19.702 11.9249C19.6193 11.9242 19.5379 11.9449 19.4648 11.9845C19.2356 12.1059 19.1548 12.3802 19.2841 12.5946C19.4134 12.8103 19.7051 12.8866 19.9343 12.7652C20.1621 12.6438 20.2429 12.3696 20.1136 12.1538C20.0503 12.05 19.9483 11.974 19.826 11.9421C19.7847 11.931 19.7434 11.9253 19.702 11.9249Z" fill="#5271FF"/>
<path d="M19.6928 12.6052C19.6086 12.6044 19.5277 12.5621 19.4827 12.4893C19.4167 12.3787 19.4578 12.2396 19.5753 12.1776L24.227 9.69921C24.449 9.58043 24.702 9.51826 24.9572 9.52049L26.0622 9.53013C26.1963 9.5313 26.3037 9.63552 26.3026 9.76159C26.3015 9.88766 26.1923 9.98999 26.0582 9.98882L24.9532 9.97918C24.7835 9.9777 24.6149 10.0178 24.4659 10.097L19.8142 12.5754C19.7755 12.5951 19.7341 12.6055 19.6928 12.6052Z" fill="#5271FF"/>
<path d="M18.3555 10.6482C18.355 10.7086 18.3416 10.7675 18.3169 10.8236C18.2907 10.8797 18.2547 10.929 18.2087 10.9716C18.1627 11.0141 18.1096 11.0471 18.0495 11.0708C17.9894 11.093 17.928 11.1046 17.8624 11.104C17.7983 11.1034 17.7356 11.0908 17.6759 11.0675C17.6163 11.0428 17.5638 11.0089 17.5186 10.9655C17.4733 10.9222 17.4381 10.8723 17.4143 10.8157C17.3892 10.7592 17.3783 10.7001 17.3788 10.6397C17.3793 10.578 17.3913 10.5191 17.4174 10.463C17.4421 10.4069 17.4782 10.3576 17.5242 10.3151C17.5702 10.2725 17.6233 10.2395 17.6834 10.2172C17.7435 10.1936 17.8063 10.1834 17.8705 10.1839C17.936 10.1845 17.9973 10.1958 18.0569 10.2204C18.1166 10.2438 18.1691 10.2778 18.2143 10.3211C18.2596 10.3644 18.2948 10.4143 18.32 10.4709C18.3437 10.5274 18.356 10.5865 18.3555 10.6482Z" fill="#5271FF"/>
<path d="M17.8555 11.1074C17.7686 11.1066 17.6832 11.0858 17.6066 11.0422C17.3682 10.91 17.288 10.6209 17.4282 10.3968C17.5685 10.1727 17.8758 10.0976 18.1142 10.2298C18.2291 10.2938 18.3109 10.3965 18.3441 10.5188C18.3772 10.6398 18.359 10.7671 18.291 10.8765C18.2231 10.9845 18.1155 11.0614 17.9854 11.0924C17.9426 11.1028 17.8983 11.1078 17.8555 11.1074ZM17.865 10.1873C17.6996 10.1859 17.5392 10.265 17.4495 10.4077C17.3165 10.6212 17.3925 10.8968 17.6181 11.0222C17.7274 11.0835 17.8556 11.1007 17.9799 11.0709C18.1028 11.0412 18.2061 10.9669 18.2698 10.8642C18.3348 10.7615 18.353 10.6396 18.3212 10.524C18.2894 10.4083 18.2104 10.3111 18.1012 10.2498C18.0274 10.2089 17.9448 10.188 17.865 10.1873Z" fill="#5271FF"/>
<path d="M17.8665 10.8649C17.8137 10.8644 17.7611 10.8479 17.7172 10.8153C17.6123 10.7366 17.5951 10.5916 17.6786 10.493L20.6725 6.9647C21.0472 6.52265 21.6069 6.27269 22.2057 6.27792L23.5189 6.28938C23.6516 6.29053 23.7605 6.39342 23.7594 6.5195C23.7582 6.64691 23.649 6.7479 23.515 6.74673L22.2017 6.73527C21.7526 6.73135 21.3332 6.91949 21.0522 7.24969L18.0583 10.7794C18.0107 10.8366 17.9392 10.8655 17.8665 10.8649Z" fill="#5271FF"/>
<path d="M15.8711 9.99199C15.8706 10.0523 15.8573 10.1112 15.8325 10.1674C15.8078 10.2235 15.7717 10.2728 15.7257 10.3153C15.6797 10.3592 15.6267 10.3909 15.5666 10.4145C15.5065 10.4368 15.4436 10.4483 15.3795 10.4478C15.3139 10.4472 15.2513 10.4346 15.1916 10.4113C15.1319 10.3866 15.0794 10.3539 15.0342 10.3093C14.9889 10.266 14.9537 10.216 14.93 10.1595C14.9062 10.1029 14.8939 10.0438 14.8944 9.98347C14.895 9.92178 14.9083 9.86422 14.933 9.8081C14.9578 9.75064 14.9939 9.70132 15.0399 9.6588C15.0859 9.61628 15.1389 9.58321 15.199 9.56093C15.2591 9.53732 15.3219 9.52713 15.3875 9.52771C15.4517 9.52827 15.5143 9.53954 15.574 9.56421C15.6337 9.58753 15.6861 9.62152 15.7314 9.66484C15.7766 9.70815 15.8119 9.75809 15.8356 9.81597C15.8593 9.87252 15.8717 9.9303 15.8711 9.99199Z" fill="#5271FF"/>
<path d="M15.379 10.455C15.1023 10.4526 14.8803 10.2401 14.8826 9.97992C14.8849 9.71972 15.1106 9.50977 15.3872 9.51218C15.6624 9.51458 15.8844 9.72845 15.8821 9.98864C15.8798 10.2488 15.6542 10.4574 15.379 10.455ZM15.387 9.53498C15.1232 9.53268 14.909 9.73201 14.9068 9.98013C14.9047 10.2269 15.1154 10.4299 15.3792 10.4322C15.6415 10.4345 15.8557 10.2352 15.8579 9.98843C15.86 9.7403 15.6493 9.53727 15.387 9.53498Z" fill="#5271FF"/>
<path d="M15.3612 10.2247C15.2271 10.2235 15.1182 10.1207 15.1193 9.99458L15.135 8.20005L16.4962 5.4931C16.8183 4.85208 17.5135 4.44234 18.2678 4.44893L19.3015 4.45795C19.4355 4.45912 19.543 4.56199 19.5419 4.68807C19.5408 4.81548 19.4315 4.91647 19.2975 4.9153L18.2638 4.90628C17.6977 4.90134 17.176 5.20931 16.9351 5.69008L15.6203 8.30488L15.6056 9.99882C15.6045 10.1249 15.4952 10.2259 15.3612 10.2247Z" fill="#5271FF"/>
<mask id="mask3_179_604" style="mask-type:luminance" maskUnits="userSpaceOnUse" x="18" y="3" width="3" height="3">
<path d="M18.2891 3.77344L20.4792 3.79255L20.4629 5.66085L18.2728 5.64174L18.2891 3.77344Z" fill="white"/>
</mask>
<g mask="url(#mask3_179_604)">
<path d="M19.2847 5.54664C18.7671 5.54212 18.3513 5.14281 18.3556 4.65595C18.3598 4.16909 18.7825 3.7771 19.3001 3.78161C19.8162 3.78612 20.2334 4.18544 20.2291 4.6723C20.2249 5.15916 19.8008 5.55114 19.2847 5.54664ZM19.2961 4.23896C19.0465 4.23679 18.8424 4.42547 18.8404 4.66018C18.8383 4.89489 19.0391 5.08711 19.2887 5.08929C19.5367 5.09145 19.7409 4.90277 19.7429 4.66806C19.745 4.43335 19.5442 4.24113 19.2961 4.23896Z" fill="#5271FF"/>
</g>
<path d="M23.5869 7.41127C23.0693 7.40676 22.6521 7.00609 22.6564 6.51923C22.6606 6.03372 23.0847 5.64039 23.6023 5.64491C24.1184 5.64941 24.5356 6.05008 24.5314 6.53559C24.5271 7.02245 24.103 7.41578 23.5869 7.41127ZM23.5983 6.1036C23.3487 6.10142 23.1446 6.2901 23.1426 6.52347C23.1405 6.75819 23.3413 6.9504 23.5909 6.95258C23.839 6.95475 24.0431 6.76606 24.0451 6.53135C24.0472 6.29798 23.8464 6.10576 23.5983 6.1036Z" fill="#5271FF"/>
<path d="M26.0503 10.6482C25.5341 10.6437 25.117 10.2444 25.1212 9.75751C25.1255 9.27066 25.5481 8.87866 26.0657 8.88318C26.5818 8.88768 26.999 9.28701 26.9948 9.77386C26.9905 10.2607 26.5664 10.6527 26.0503 10.6482ZM26.0617 9.34053C25.8122 9.33835 25.608 9.52703 25.606 9.76174C25.6039 9.99645 25.8048 10.1887 26.0543 10.1908C26.3024 10.193 26.5065 10.0043 26.5086 9.76962C26.5106 9.53491 26.3098 9.34269 26.0617 9.34053Z" fill="#5271FF"/>
<path d="M20.1368 17.0857C20.1362 17.1474 20.1229 17.205 20.0981 17.2625C20.0734 17.3186 20.0373 17.3679 19.9913 17.4104C19.9453 17.4529 19.8923 17.486 19.8322 17.5083C19.7721 17.5319 19.7093 17.5421 19.6451 17.5415C19.5795 17.5409 19.5183 17.5297 19.4586 17.505C19.3989 17.4817 19.3465 17.4477 19.2998 17.4044C19.2545 17.3611 19.2207 17.3111 19.1956 17.2546C19.1718 17.1967 19.1595 17.1389 19.16 17.0772C19.1606 17.0169 19.1739 16.958 19.1987 16.9018C19.2248 16.8457 19.2595 16.7964 19.3055 16.7539C19.3529 16.71 19.4059 16.6783 19.466 16.6547C19.5261 16.6324 19.5875 16.6209 19.6531 16.6215C19.7173 16.622 19.7799 16.6346 19.8396 16.658C19.8993 16.6826 19.9518 16.7153 19.997 16.7599C20.0423 16.8032 20.0775 16.8532 20.1012 16.9097C20.125 16.9663 20.1373 17.0254 20.1368 17.0857Z" fill="#5271FF"/>
<path d="M19.6553 17.5644C19.5683 17.5637 19.4829 17.5415 19.4063 17.4992C19.1679 17.367 19.0891 17.0766 19.2294 16.8538C19.3682 16.6297 19.6755 16.5546 19.9139 16.6868C20.0288 16.7508 20.1106 16.8535 20.1452 16.9745C20.1784 17.0969 20.1587 17.2241 20.0922 17.3322C20.0242 17.4416 19.9152 17.5184 19.7851 17.5495C19.7423 17.5598 19.698 17.5648 19.6553 17.5644ZM19.6647 16.6444C19.5007 16.6429 19.3389 16.722 19.2493 16.8647C19.1162 17.0782 19.1922 17.3538 19.4193 17.4792C19.5286 17.5405 19.6567 17.5577 19.7796 17.5266C19.9025 17.4968 20.0058 17.424 20.0709 17.3213C20.1346 17.2172 20.1527 17.0966 20.1209 16.981C20.0892 16.864 20.0116 16.7668 19.9023 16.7068C19.8271 16.6646 19.746 16.6451 19.6647 16.6444Z" fill="#5271FF"/>
<path d="M25.9724 20.042L24.8674 20.0324C24.6122 20.0302 24.3604 19.9649 24.1404 19.8423L19.5327 17.2831C19.4163 17.219 19.3776 17.0792 19.4456 16.9698C19.5135 16.8604 19.6621 16.8255 19.7785 16.8895L24.3862 19.4487C24.5338 19.5292 24.7003 19.5735 24.8714 19.575L25.9764 19.5847C26.1105 19.5858 26.2179 19.6887 26.2168 19.8161C26.2157 19.9422 26.1065 20.0432 25.9724 20.042Z" fill="#5271FF"/>
<path d="M18.2852 18.8279C18.2847 18.8883 18.2713 18.9472 18.2466 19.0033C18.2204 19.0594 18.1843 19.1087 18.1383 19.1512C18.0923 19.1951 18.0393 19.2268 17.9792 19.2505C17.9191 19.2727 17.8577 19.2843 17.7921 19.2837C17.7279 19.2831 17.6653 19.2705 17.6056 19.2472C17.546 19.2225 17.4935 19.1899 17.4482 19.1452C17.403 19.1019 17.3678 19.052 17.344 18.9954C17.3189 18.9389 17.308 18.8798 17.3085 18.8194C17.309 18.7577 17.3209 18.7001 17.3471 18.644C17.3718 18.5879 17.4079 18.5373 17.4539 18.4947C17.4999 18.4522 17.553 18.4191 17.613 18.3969C17.6731 18.3733 17.736 18.3631 17.8001 18.3636C17.8657 18.3642 17.9269 18.3755 17.9866 18.4001C18.0463 18.4235 18.0988 18.4574 18.144 18.5008C18.1893 18.5441 18.2245 18.5954 18.2497 18.6519C18.2734 18.7085 18.2857 18.7662 18.2852 18.8279Z" fill="#5271FF"/>
<path d="M17.786 19.2832C17.6121 19.2817 17.4446 19.1957 17.3532 19.0447C17.2183 18.8182 17.3021 18.5292 17.5427 18.4012C17.6588 18.3392 17.7944 18.3243 17.9224 18.3576C18.0519 18.3909 18.1582 18.471 18.2242 18.5802C18.3606 18.8067 18.2753 19.0944 18.0361 19.2224C17.9573 19.2646 17.8701 19.284 17.786 19.2832ZM17.7926 18.3632C17.7099 18.3624 17.6285 18.3818 17.554 18.4214C17.3262 18.5428 17.2454 18.8171 17.3747 19.0328C17.504 19.2486 17.7956 19.3249 18.0234 19.2035C18.2526 19.0807 18.3335 18.8065 18.2027 18.5921C18.1409 18.4869 18.0389 18.4122 17.9165 18.3803C17.8753 18.3692 17.834 18.3635 17.7926 18.3632Z" fill="#5271FF"/>
<path d="M23.3717 23.2505L22.0599 23.2391C21.4596 23.2338 20.9058 22.9728 20.5389 22.5256L17.6071 18.9442C17.5252 18.8443 17.545 18.7009 17.6512 18.6241C17.7574 18.5472 17.9098 18.5646 17.9916 18.6659L20.9235 22.246C21.1987 22.5824 21.6148 22.7778 22.0639 22.7817L23.3757 22.7932C23.5097 22.7943 23.6186 22.8972 23.6175 23.0233C23.6164 23.1494 23.5057 23.2517 23.3717 23.2505Z" fill="#5271FF"/>
<path d="M15.793 19.4334C15.7925 19.4938 15.7791 19.5527 15.7544 19.6088C15.7297 19.6649 15.6936 19.7142 15.6476 19.7567C15.6016 19.8006 15.5485 19.8323 15.4884 19.8559C15.4284 19.8782 15.3655 19.8897 15.3013 19.8892C15.2358 19.8886 15.1731 19.876 15.1134 19.8527C15.0538 19.828 15.0013 19.7954 14.9561 19.7507C14.9108 19.7074 14.8756 19.6574 14.8518 19.6009C14.8281 19.5444 14.8158 19.4852 14.8163 19.4249C14.8168 19.3632 14.8302 19.3056 14.8549 19.2482C14.8796 19.192 14.9157 19.1427 14.9617 19.1002C15.0077 19.0577 15.0608 19.0246 15.1209 19.0023C15.181 18.9787 15.2438 18.9685 15.3094 18.9691C15.3735 18.9697 15.4362 18.9809 15.4959 19.0056C15.5555 19.0289 15.608 19.0629 15.6533 19.1062C15.6985 19.1496 15.7337 19.1995 15.7575 19.256C15.7812 19.3139 15.7935 19.3717 15.793 19.4334Z" fill="#5271FF"/>
<path d="M15.3008 19.8808C15.0242 19.8784 14.8022 19.6659 14.8045 19.4057C14.8067 19.1455 15.0325 18.9355 15.3091 18.938C15.5843 18.9404 15.8063 19.1542 15.804 19.4144C15.8017 19.6746 15.576 19.8832 15.3008 19.8808ZM15.3089 18.9608C15.0451 18.9585 14.8309 19.1578 14.8287 19.4059C14.8266 19.6527 15.0373 19.8557 15.301 19.858C15.5634 19.8603 15.7776 19.661 15.7798 19.4142C15.7819 19.1661 15.5712 18.9631 15.3089 18.9608Z" fill="#5271FF"/>
<path d="M19.122 25.01L18.0882 25.001C17.3339 24.9944 16.6461 24.5712 16.3351 23.9247L15.0214 21.1958L15.0371 19.4012C15.0382 19.2751 15.1474 19.1728 15.2829 19.174C15.4169 19.1752 15.5244 19.2794 15.5233 19.4055L15.5085 21.0981L16.7774 23.7368C17.0099 24.2217 17.5262 24.5387 18.0922 24.5436L19.126 24.5526C19.26 24.5538 19.3675 24.6567 19.3664 24.7828C19.3652 24.9102 19.256 25.0112 19.122 25.01Z" fill="#5271FF"/>
<mask id="mask4_179_604" style="mask-type:luminance" maskUnits="userSpaceOnUse" x="18" y="23" width="3" height="3">
<path d="M18.1133 23.8555L20.3034 23.8746L20.2875 25.6973L18.0974 25.6782L18.1133 23.8555Z" fill="white"/>
</mask>
<g mask="url(#mask4_179_604)">
<path d="M19.1089 25.6912C18.5913 25.6867 18.1755 25.2873 18.1798 24.8005C18.184 24.3136 18.6067 23.9216 19.1243 23.9261C19.6404 23.9306 20.0576 24.33 20.0534 24.8168C20.0491 25.3037 19.625 25.6957 19.1089 25.6912ZM19.1203 24.3835C18.8708 24.3813 18.6666 24.57 18.6646 24.8047C18.6625 25.0394 18.8633 25.2316 19.1129 25.2338C19.361 25.236 19.5651 25.0473 19.5671 24.8126C19.5692 24.5779 19.3684 24.3857 19.1203 24.3835Z" fill="#5271FF"/>
</g>
<path d="M23.4462 23.906C22.9287 23.9015 22.5115 23.5022 22.5157 23.0153C22.52 22.5285 22.9441 22.1365 23.4616 22.141C23.9778 22.1455 24.395 22.5448 24.3907 23.0317C24.3865 23.5185 23.9624 23.9105 23.4462 23.906ZM23.4577 22.5984C23.2081 22.5962 23.004 22.7849 23.0019 23.0196C22.9999 23.2543 23.2007 23.4465 23.4502 23.4487C23.6983 23.4508 23.9025 23.2622 23.9045 23.0274C23.9066 22.7927 23.7058 22.6005 23.4577 22.5984Z" fill="#5271FF"/>
<path d="M25.9643 20.6925C25.4482 20.688 25.031 20.2873 25.0353 19.8005C25.0395 19.3136 25.4622 18.9216 25.9798 18.9261C26.4959 18.9306 26.9131 19.33 26.9088 19.8168C26.9046 20.3037 26.4805 20.697 25.9643 20.6925ZM25.9758 19.3835C25.7262 19.3813 25.5221 19.5713 25.5201 19.8047C25.518 20.0394 25.7188 20.2316 25.9683 20.2338C26.2164 20.236 26.4206 20.0473 26.4226 19.8126C26.4247 19.5792 26.2239 19.3857 25.9758 19.3835Z" fill="#5271FF"/>
<mask id="mask5_179_604" style="mask-type:luminance" maskUnits="userSpaceOnUse" x="26" y="13" width="3" height="4">
<path d="M26.2422 13.6484L28.2227 13.6657L28.2017 16.0692L26.2212 16.0519L26.2422 13.6484Z" fill="white"/>
</mask>
<g mask="url(#mask5_179_604)">
<path d="M27.2847 15.699C26.7671 15.6945 26.3513 15.2952 26.3556 14.8083C26.3598 14.3214 26.7825 13.9294 27.3001 13.934C27.8162 13.9385 28.2334 14.3378 28.2291 14.8246C28.2249 15.3115 27.8008 15.7035 27.2847 15.699ZM27.2961 14.3913C27.0465 14.3891 26.8424 14.5778 26.8404 14.8125C26.8383 15.0472 27.0391 15.2395 27.2887 15.2416C27.5367 15.2438 27.7409 15.0551 27.7429 14.8204C27.745 14.5857 27.5442 14.3935 27.2961 14.3913Z" fill="#5271FF"/>
</g>
<path d="M13.2886 16.223C13.2109 16.1311 13.1391 16.0325 13.0772 15.9301L13.2834 15.8299C13.3383 15.9162 13.3975 15.9999 13.4638 16.0796L13.2886 16.223Z" fill="#5271FF"/>
<path d="M13.494 12.973C13.5818 12.8893 13.6766 12.8109 13.777 12.7407L13.908 12.9216C13.8234 12.9826 13.7429 13.0489 13.6667 13.1194L13.494 12.973Z" fill="#5271FF"/>
<path d="M12.7769 15.1565C12.7537 15.0396 12.739 14.9228 12.7344 14.8047L12.9668 14.8067C12.9716 14.906 12.9836 15.0067 13.0027 15.1048L12.7769 15.1565Z" fill="#5271FF"/>
<path d="M17.6224 14.0838C17.5919 13.987 17.5542 13.8927 17.5108 13.8012L17.717 13.701C17.7703 13.8074 17.8135 13.9191 17.8482 14.0321L17.6224 14.0838Z" fill="#5271FF"/>
<path d="M14.5539 12.3671C14.6726 12.3319 14.7955 12.3035 14.9197 12.2844L14.9449 12.5033C14.8406 12.5198 14.7364 12.543 14.6348 12.573L14.5539 12.3671Z" fill="#5271FF"/>
<path d="M12.833 13.9719C12.8697 13.8596 12.9148 13.7486 12.9685 13.6418L13.1744 13.7455C13.1294 13.8363 13.0901 13.9299 13.0593 14.0262L12.833 13.9719Z" fill="#5271FF"/>
<path d="M15.3333 17.1527C15.2705 17.1522 15.2078 17.149 15.1465 17.1444L15.1755 16.926C15.2282 16.9305 15.281 16.9323 15.3352 16.9328C15.3879 16.9332 15.4421 16.9324 15.4963 16.9288L15.5215 17.1477C15.4588 17.1511 15.396 17.1519 15.3318 17.1514L15.3333 17.1527Z" fill="#5271FF"/>
<path d="M14.2877 16.9335C14.1726 16.8856 14.0619 16.8296 13.9555 16.7657L14.0896 16.5871C14.1804 16.6402 14.2741 16.688 14.3707 16.729L14.2877 16.9335Z" fill="#5271FF"/>
<path d="M17.1853 16.1231C17.253 16.0446 17.3151 15.962 17.37 15.8766L17.5744 15.9803C17.5108 16.0817 17.4373 16.1776 17.358 16.2695L17.1853 16.1231Z" fill="#5271FF"/>
<mask id="mask6_179_604" style="mask-type:luminance" maskUnits="userSpaceOnUse" x="17" y="14" width="2" height="2">
<path d="M18.2122 14.5369L17.1172 14.5273L17.1082 15.5574L18.2032 15.5669L18.2122 14.5369Z" fill="white"/>
</mask>
<g mask="url(#mask6_179_604)">
<mask id="mask7_179_604" style="mask-type:luminance" maskUnits="userSpaceOnUse" x="17" y="14" width="2" height="2">
<path d="M17.4648 14.6211L18.0637 14.6263L18.0572 15.368L17.4584 15.3628L17.4648 14.6211Z" fill="white"/>
</mask>
<g mask="url(#mask7_179_604)">
<path d="M17.5656 14.6764L17.5655 14.6817C17.5641 14.8521 17.5397 15.0235 17.4955 15.1868L17.9665 15.3009C18.0196 15.1001 18.0485 14.8938 18.0503 14.6859L18.0504 14.6806L17.5656 14.6764Z" fill="#5271FF"/>
</g>
</g>
<path d="M17.677 15.1443C17.6979 15.0439 17.7116 14.9421 17.7182 14.8402L17.9506 14.8422C17.9439 14.9615 17.9286 15.0808 17.9033 15.1986L17.677 15.1443Z" fill="#5271FF"/>
<mask id="mask8_179_604" style="mask-type:luminance" maskUnits="userSpaceOnUse" x="16" y="12" width="2" height="2">
<path d="M17.5091 12.5291L16.4141 12.5195L16.4051 13.5496L17.5001 13.5591L17.5091 12.5291Z" fill="white"/>
</mask>
<g mask="url(#mask8_179_604)">
<mask id="mask9_179_604" style="mask-type:luminance" maskUnits="userSpaceOnUse" x="16" y="12" width="2" height="2">
<path d="M16.6328 12.4727L17.5097 12.4803L17.5025 13.3051L16.6256 13.2975L16.6328 12.4727Z" fill="white"/>
</mask>
<g mask="url(#mask9_179_604)">
<path d="M16.9158 12.5337L16.6373 12.9081C16.7848 13.006 16.9207 13.1198 17.0408 13.2483L17.4056 12.9484C17.2601 12.7915 17.0959 12.6519 16.9158 12.5337Z" fill="#5271FF"/>
</g>
</g>
<path d="M17.0448 13.1603C16.9699 13.0873 16.8906 13.0208 16.807 12.9584L16.9398 12.7785C17.039 12.8504 17.1324 12.9304 17.22 13.0157L17.0448 13.1603Z" fill="#5271FF"/>
<mask id="mask10_179_604" style="mask-type:luminance" maskUnits="userSpaceOnUse" x="15" y="11" width="2" height="2">
<path d="M16.3997 11.8064L15.3047 11.7969L15.2957 12.8269L16.3907 12.8365L16.3997 11.8064Z" fill="white"/>
</mask>
<g mask="url(#mask10_179_604)">
<mask id="mask11_179_604" style="mask-type:luminance" maskUnits="userSpaceOnUse" x="15" y="12" width="2" height="1">
<path d="M15.582 12.0938L16.3705 12.1006L16.3648 12.7605L15.5763 12.7536L15.582 12.0938Z" fill="white"/>
</mask>
<g mask="url(#mask11_179_604)">
<path d="M15.7133 12.1646L15.6523 12.6174C15.8318 12.6391 16.0082 12.6809 16.1774 12.7427L16.3522 12.3163C16.1475 12.2421 15.9312 12.1906 15.7133 12.1646Z" fill="#5271FF"/>
</g>
</g>
<path d="M16.0661 12.5854C15.9652 12.5537 15.8613 12.5286 15.7559 12.5116L15.7849 12.2932C15.9088 12.3144 16.0312 12.3436 16.1506 12.3809L16.0661 12.5854Z" fill="#5271FF"/>
<path d="M16.2878 16.7528C16.3866 16.7134 16.4811 16.6673 16.5728 16.6158L16.7038 16.7966C16.5964 16.8587 16.4847 16.9128 16.3688 16.9587L16.2878 16.7528Z" fill="#5271FF"/>
<mask id="mask12_179_604" style="mask-type:luminance" maskUnits="userSpaceOnUse" x="0" y="0" width="8" height="7">
<path d="M0.261719 0L7.61482 0.0641695L7.55494 6.92577L0.201838 6.8616L0.261719 0Z" fill="white"/>
</mask>
<g mask="url(#mask12_179_604)">
<path d="M7.42998 0.166764L7.37232 6.77354L0.348594 6.71224L7.42998 0.166764Z" fill="#5271FF"/>
</g>
<path d="M41.9737 19.4593L42.9604 19.4679C44.7313 19.4834 46.0265 18.2861 46.041 16.6204L46.0728 12.983C46.0873 11.3172 44.8132 10.0976 43.0423 10.0822L42.0556 10.0735C40.2847 10.0581 38.9895 11.2553 38.9749 12.9211L38.9432 16.5584C38.9286 18.2242 40.2028 19.4438 41.9737 19.4593ZM42.4799 17.3404C42.0307 17.3365 41.6715 16.9927 41.6753 16.5581L41.7066 12.9691C41.7104 12.5345 42.0756 12.197 42.5247 12.2009C42.9853 12.2049 43.3444 12.5488 43.3407 12.9833L43.3093 16.5724C43.3055 17.0069 42.9404 17.3444 42.4799 17.3404Z" fill="white"/>
<path d="M47.9216 19.518L48.9824 19.5273C49.4558 19.5314 49.821 19.1939 49.8248 18.7486L49.8428 16.6953C49.8464 16.2728 50.2116 15.9366 50.6607 15.9405L54.7515 15.9762C55.212 15.9803 55.59 15.6429 55.594 15.1855L55.5986 14.6571C55.6026 14.1997 55.2434 13.8559 54.77 13.8518L50.6793 13.8161C50.2301 13.8122 49.8709 13.4697 49.8746 13.0472C49.8784 12.6126 50.2435 12.2751 50.6927 12.279L55.2825 12.3191C55.7559 12.3232 56.121 11.9871 56.1249 11.5404L56.1297 10.9892C56.1336 10.5439 55.7744 10.2001 55.301 10.196L48.0035 10.1323C47.5301 10.1282 47.165 10.4657 47.1611 10.9109L47.0929 18.7248C47.089 19.1701 47.4482 19.5139 47.9216 19.518Z" fill="white"/>
<path d="M57.906 19.6196L58.9668 19.6289C59.4402 19.633 59.8053 19.2955 59.8092 18.8502L59.8271 16.7968C59.8308 16.3743 60.196 16.0382 60.6451 16.0421L64.7359 16.0778C65.1964 16.0818 65.5744 15.7444 65.5784 15.2871L65.583 14.7586C65.587 14.3013 65.2278 13.9575 64.7544 13.9533L60.6636 13.9176C60.2145 13.9137 59.8553 13.5712 59.859 13.1487C59.8628 12.7142 60.2279 12.3767 60.677 12.3806L65.2669 12.4207C65.7402 12.4248 66.1054 12.0886 66.1093 11.642L66.1141 11.0908C66.118 10.6455 65.7588 10.3017 65.2854 10.2975L57.9879 10.2339C57.5145 10.2297 57.1494 10.5672 57.1455 11.0125L57.0773 18.8264C57.0734 19.2716 57.4326 19.6155 57.906 19.6196Z" fill="white"/>
<path d="M67.8865 19.7055L68.9473 19.7148C69.4207 19.7189 69.7858 19.3814 69.7897 18.9361L69.8579 11.1223C69.8618 10.677 69.5026 10.3332 69.0292 10.329L67.9684 10.3198C67.495 10.3157 67.1298 10.6532 67.126 11.0984L67.0578 18.9123C67.0539 19.3576 67.4131 19.7014 67.8865 19.7055Z" fill="white"/>
<path d="M73.8448 19.7757L78.9222 19.82C79.3956 19.8241 79.7607 19.4866 79.7646 19.0414L79.7694 18.4901C79.7733 18.0435 79.4141 17.701 78.9407 17.6969L74.3509 17.6568C73.9018 17.6529 73.5426 17.3091 73.5464 16.8745L73.5777 13.2855C73.5815 12.8509 73.9467 12.5134 74.3958 12.5173L78.9856 12.5574C79.4461 12.5614 79.824 12.2361 79.8279 11.7908L79.8328 11.2275C79.8367 10.7822 79.4775 10.4384 79.0041 10.4343L73.9267 10.3899C72.1558 10.3745 70.8605 11.5717 70.846 13.2375L70.8143 16.8748C70.7997 18.5406 72.0739 19.7602 73.8448 19.7757Z" fill="white"/>
<path d="M81.656 19.8266L88.9649 19.8904C89.4397 19.8946 89.8048 19.5571 89.8087 19.1118L89.8135 18.5605C89.8174 18.1139 89.4582 17.7714 88.9834 17.7673L84.3822 17.7271C83.9331 17.7232 83.5739 17.3794 83.5777 16.9448C83.5813 16.5224 83.9466 16.1741 84.3957 16.178L88.4993 16.2139C88.9599 16.2179 89.3378 15.8805 89.3418 15.4231L89.3459 14.9537C89.3498 14.5084 88.9906 14.1646 88.5172 14.1605L84.4136 14.1247C83.9645 14.1207 83.6053 13.7783 83.609 13.3558C83.6128 12.9212 83.9779 12.5837 84.427 12.5876L89.0283 12.6278C89.5031 12.6319 89.8682 12.2958 89.8721 11.8492L89.8769 11.2979C89.8808 10.8526 89.5216 10.5088 89.0468 10.5047L81.7379 10.4409C81.2645 10.4368 80.8994 10.7743 80.8955 11.2195L80.8273 19.0334C80.8234 19.4787 81.1826 19.8225 81.656 19.8266Z" fill="white"/>
<path d="M95.8005 19.9204L96.8613 19.9296C97.3347 19.9338 97.6999 19.5963 97.7038 19.151L97.7222 17.0386C97.726 16.6054 98.0911 16.2679 98.5402 16.2718C99.0008 16.2758 99.3599 16.6304 99.3562 17.0529L99.3378 19.1653C99.3339 19.6105 99.6931 19.9544 100.166 19.9585L101.227 19.9677C101.701 19.9719 102.066 19.6344 102.07 19.1891L102.082 17.758C102.085 17.4764 102.024 17.2639 101.863 17.0278L100.977 15.6828C100.792 15.3995 100.795 15.142 100.984 14.8619L101.894 13.5326C102.058 13.2993 102.123 13.088 102.125 12.8063L102.138 11.3752C102.142 10.93 101.783 10.5861 101.309 10.582L100.248 10.5727C99.775 10.5686 99.4098 10.9061 99.406 11.3514L99.3875 13.4638C99.3838 13.8863 99.0187 14.2224 98.5582 14.2184C98.109 14.2145 97.7498 13.872 97.7535 13.4495L97.7719 11.3371C97.7758 10.8919 97.4166 10.548 96.9433 10.5439L95.8824 10.5346C95.409 10.5305 95.0439 10.868 95.04 11.3133L94.9718 19.1272C94.9679 19.5724 95.3271 19.9163 95.8005 19.9204Z" fill="white"/>
<path d="M103.941 20.0024L105.002 20.0117C105.475 20.0158 105.84 19.6783 105.844 19.233L105.913 11.4192C105.916 10.9739 105.557 10.6301 105.084 10.6259L104.023 10.6167C103.55 10.6125 103.185 10.95 103.181 11.3953L103.112 19.2092C103.109 19.6545 103.468 19.9983 103.941 20.0024Z" fill="white"/>
<path d="M110.415 20.054L111.513 20.0635C112.049 20.0682 112.338 19.8132 112.342 19.3076L112.392 13.5712C112.396 13.1488 112.774 12.8114 113.223 12.8153L114.333 12.825C114.869 12.8296 115.158 12.5626 115.162 12.0583L115.167 11.4829C115.171 10.9786 114.887 10.7065 114.351 10.7018L107.754 10.6322C107.205 10.6274 106.927 10.8946 106.923 11.4002L106.918 11.9863C106.913 12.4906 107.199 12.7627 107.735 12.7674L108.832 12.777C109.294 12.781 109.666 13.1249 109.662 13.5474L109.612 19.273C109.608 19.7773 109.879 20.0493 110.415 20.054Z" fill="white"/>
</svg>
